<?xml version="1.0" encoding="UTF-8"?>
<svg id="_клякса_3" data-name="клякса 3" xmlns="http://www.w3.org/2000/svg" viewBox="0 0 266.54 252.47">
  <defs>
    <style>
      .cls-1 {
        stroke-miterlimit: 10;
      }

      .cls-1, .cls-2 {
        fill: none;
        stroke: #9bc4f8;
      }

      .cls-2 {
        stroke-linecap: round;
        stroke-linejoin: round;
        stroke-width: 1.2px;
      }
    </style>
  </defs>
  <path class="cls-1" d="m261.42,96.32c1.44,12.19-10.57,16.14-2.96,28.63,10.5,17.22,11.85,30.43-2.43,42.54-14.28,12.11-26.46,10.1-23.85,34.71s7.78,50.4-11.44,49.13c-19.22-1.27-34.33-19.47-54.33-20.36-21.29-.94-25.6,2.16-41-1.9-12.61-3.32-33.36,1.78-45.78,11.56-12.42,9.79-29.46,16.66-29.12-6.6.34-23.26-6.92-23.01-18.4-28.27-11.48-5.26-17.34-11.52-3.46-40.08,13.88-28.56-9.31-31.65-19.58-39.54s-16.97-14.92,9.33-24.69c26.31-9.77,15.36-23.12,17.3-32.55,0,0-1.31-29.18,26.8-23.83,28.11,5.34,23.46-17.42,25.19-23.78,1.72-6.35-.62-22.9,26.51-8.49,27.13,14.42,28.52,17.44,35.78,7.67s17.33-31.75,28.9-9.38c11.58,22.37,7.67,21.37,17.75,23.61,10.09,2.24,20.23-3.43,25.8,18.18s34.04,1.49,38.98,43.44Z"/>
  <g>
    <path class="cls-2" d="m3.28,109.15c.13.22,8.86-5.35,8.96-5.17.22.37-12.16,11.16-11.98,11.46C2.6,119.5,176.98,7.42,179.57,11.91S-.24,115,2.55,119.84c2.24,3.89,176.34-107.74,178.91-103.29C183.76,20.53,1.79,117.99,4.71,123.05c2.51,4.35,175.31-108.17,178.32-102.95,2.07,3.59-177.69,100.31-174.64,105.59,2.06,3.56,174.38-105.95,176.66-102S10.52,123.83,13.36,128.74c2.58,4.46,170.67-104.93,173.44-100.13,2.25,3.9-171,98.39-168.42,102.85,2.26,3.91,169.15-103.98,171.89-99.24,2.87,4.97-170.08,97.61-167.31,102.41S192.95,29.64,195.92,34.78c2.15,3.73-171.6,98.07-168.9,102.75S201.74,31.52,203.96,35.37c2.62,4.53-176.13,100.76-173.27,105.7,2.44,4.23,178.49-109,181.06-104.54,2.21,3.83-182.71,103.09-179.77,108.17,3.17,5.49,180.67-109.79,183.04-105.68,2.72,4.71-184.69,106.45-182.22,110.72S215.34,38.36,217.93,42.85c2.17,3.76-188.81,105.93-185.65,111.41,2.38,4.13,184.65-113.37,187.58-108.3S29.06,154.67,31.54,158.97,217.8,43.92,221.05,49.55c2.3,3.99-195.71,112.63-192.84,117.59,2.44,4.23,191.71-117.74,194.76-112.45,3.29,5.69-200.56,114.85-197.91,119.44,2.36,4.1,197.07-121.15,200.26-115.62,3.44,5.96-205.55,117-202.83,121.7S224.96,56.54,227.9,61.63c3.09,5.35-210.13,118.41-206.74,124.27,2.66,4.6,208.01-126.68,210.86-121.74S16.58,185.8,20.23,192.12c2.64,4.56,216.38-130.78,218.91-126.39,3.43,5.94-219.74,126.74-217.06,131.39,3,5.2,220.11-134.71,223.42-128.99S20.74,195.62,23.81,200.94,246.91,65.38,249.83,70.44c2.68,4.64-223.51,128.58-220.77,133.33,3.09,5.35,221.5-134.24,224.25-129.47,3.5,6.06-223.17,126.59-220.39,131.4,3.2,5.54,219.15-133.75,222.28-128.33,3.5,6.06-220.99,124.83-217.61,130.7,3.16,5.47,217.09-132.24,220.08-127.06,2.66,4.6-217.18,125.45-214.61,129.9,2.85,4.93,212.93-130.24,216.09-124.76,2.61,4.52-215.32,124.02-212.73,128.51,3.21,5.56,210.55-129.36,213.93-123.51S45.21,212.6,48.51,218.32c2.59,4.48,209.5-127.79,212.46-122.66S46.6,217.19,49.88,222.88c2.72,4.71,208.46-127.23,211.44-122.07,3.34,5.78-214.38,121.21-210.95,127.17,2.87,4.97,206.02-125.29,208.77-120.53,3.25,5.63-212.11,120.84-208.74,126.67s203.13-123.71,205.91-118.88c3.13,5.42-208.57,118.34-205.21,124.16,3,5.19,202.05-124.32,205.37-118.57,3.12,5.4-206.5,119.52-204.04,123.77,3.05,5.29,202.8-125.24,206.33-119.12S52.25,243.56,55.09,248.48c2.61,4.52,202.7-123.94,205.69-118.76,3.39,5.88-202.44,115.42-199.74,120.09,3.46,6,199.28-121.21,201.94-116.59,2.08,3.61-159.57,91.3-156.95,95.84s155.95-95.13,158.16-91.31c2.5,4.33-150.08,86.85-148.02,90.4s147.96-89.84,149.87-86.53c1.73,3-144.57,83.31-142.58,86.75s140.83-86.25,142.97-82.54-139.71,80.62-137.94,83.69,135.94-83.5,138.11-79.74c2.03,3.52-133.45,77.45-131.19,81.36,1.59,2.75,127.53-77.53,129.22-74.6,2.02,3.5-121.43,71-119.34,74.63,1.87,3.24,109.87-67.23,111.51-64.38,1.41,2.45-104.01,61.67-102.76,63.84,1.1,1.91,79.32-48.9,80.66-46.57.88,1.52-72.66,45.22-71.67,46.92.81,1.41,67.91-41.62,68.96-39.81s-60.54,39.34-59.81,40.61c.87,1.51,58.71-35.67,59.48-34.34.66,1.14-52.77,35.13-52.12,36.27.83,1.44,51.65-31.82,52.51-30.32s-48.14,31.6-47.49,32.73,47.29-29.13,48.08-27.76c.69,1.2-44.04,28.43-43.29,29.74.65,1.13,42.97-26.55,43.72-25.24.49.85-39.41,26.89-38.85,27.87.69,1.19,38.75-23.58,39.28-22.68.6,1.03-34.9,24.91-34.38,25.83.57.98,35.07-21.53,35.62-20.57.53.91-30.98,22.28-30.45,23.19s29.79-18.35,30.29-17.49c.37.65-24.79,18.92-24.35,19.67.37.65,24.37-14.98,24.77-14.3.31.53-19.2,15.74-18.88,16.29.3.52,17.48-10.62,17.71-10.22.15.26-10.3,10.34-10.1,10.7.12.21,7.72-4.69,7.82-4.52"/>
    <path class="cls-2" d="m162.3,4.2c.07.12,4.05-2.47,4.11-2.37.22.39-11.17,10.11-11,10.4.24.42,16.78-10.33,17.06-9.85.36.62-23.47,18.11-23.04,18.86.35.61,25.64-15.56,25.97-14.99"/>
    <path class="cls-2" d="m43.68,48.5c.09.15,5.05-3.09,5.12-2.96.19.34-11.65,12.13-11.45,12.48.38.65,22.26-13.58,22.57-13.03.36.62-24.56,18.81-24.23,19.38.46.79,31.94-19.66,32.47-18.74.57.98-33.35,23.86-32.81,24.8,1.4,2.42,87.87-54.01,89.29-51.55,1.52,2.64-89.76,55.38-88.62,57.35,1.55,2.69,93.34-57.16,94.75-54.71,1.13,1.95-95.96,57.51-94.34,60.33,1.45,2.52,98.43-60.01,99.81-57.63,1.71,2.96-102.14,59.79-100.38,62.84s103.99-63.62,105.54-60.94S28.49,92.21,30.16,95.11c2.48,4.3,145.48-89.29,147.77-85.32"/>
    <path class="cls-2" d="m91.33,9.39c.06.1,3.12-1.92,3.18-1.83.14.24-5.77,8.41-5.64,8.63.18.31,13.58-8.38,13.81-7.98s-15.12,13.41-14.88,13.82c.32.55,20.5-12.56,20.81-12.02.35.61-21.95,17.42-21.66,17.91.36.62,25.91-15.72,26.24-15.15.47.81-26.86,19.23-26.49,19.88.5.86,30.45-18.73,30.95-17.87.6,1.04-33.7,22.75-33.1,23.79.54.94,37.06-22.5,37.53-21.67"/>
  </g>
</svg>