<?xml version="1.0" encoding="UTF-8"?>
<svg id="_клякса_1" data-name="клякса 1" xmlns="http://www.w3.org/2000/svg" viewBox="0 0 248.78 252.48">
  <defs>
    <style>
      .cls-1 {
        stroke-miterlimit: 10;
      }

      .cls-1, .cls-2 {
        fill: none;
        stroke: #afd889;
      }

      .cls-2 {
        stroke-linecap: round;
        stroke-linejoin: round;
        stroke-width: 1.2px;
      }
    </style>
  </defs>
  <path class="cls-1" d="m61.27,146.23c-4.2,10.72-7.83,26.34-3.34,45.93,4.49,19.59,8.1,40.03,14.81,48.89s19.8,18.27,29.19,3.5c9.39-14.77,15.74-40,25.27-37.37s18.85,25.24,21.55,28.05,11.51,18.27,17.97,3.77,8.49-18.69,17.31-20.79c8.82-2.1,18.59-3.21,9.31-18.83-9.28-15.62-25.88-39.51-.21-39.01s66.56,3.91,48.31-10.43c-18.25-14.33-39.8-25.81-15.86-36.72,23.94-10.91,27.5-18.15,19.07-27.58-8.43-9.43-25.55-14.64-35.27-16.46s-8.09-16.23-7.53-22.09c.87-9.07-.42-27.97-5.49-30.75-5.07-2.78-8.38-7.88-29.17,7.96-20.79,15.85-32.64,31.7-38.94,21.5-6.3-10.2-10.42-40.35-21.74-26.92-11.32,13.43-13.73,12.25-20.92,5.77-7.19-6.48-29.77-31.95-42.38-18.55-12.61,13.4,19.9,37.93,16.1,49.24-3.8,11.3-32.04,1.16-35.95,1.41s-16.71-1.47,3.01,20.7c19.72,22.17,46.84,23.18,11.83,35.17-35.02,11.99-49.58,17.07-20.04,18.95s48.28,1.46,43.11,14.66Z"/>
  <g>
    <path class="cls-2" d="m181.71,218.76c.25.43,15.18-9.31,15.42-8.9"/>
    <path class="cls-2" d="m124.69,207.13c.92,1.59,54.5-33.52,55.39-31.98.75,1.29-50.91,31.93-50.05,33.43s51.46-31.37,52.18-30.13c.87,1.51-48.93,32.3-48.16,33.64.84,1.46,49.55-30.25,50.26-29.02.82,1.41-48.36,31.25-47.74,32.32.67,1.16,48.46-29.57,49.15-28.38.59,1.03-47.29,31.02-46.53,32.35.57.99,48.31-29.65,49.07-28.33s-47.04,31.81-46.37,32.98,48.15-29.21,48.76-28.15c.72,1.24-46.44,31.3-45.75,32.5.6,1.04,48.55-29.4,49.14-28.37.7,1.21-48.03,31.25-47.18,32.73.67,1.16,47.98-29.45,48.73-28.14.63,1.09-47,30.44-46.39,31.5.75,1.31,46.7-28.8,47.49-27.42s-44.56,29.8-44.01,30.75c.32.56,18.54-11.36,18.83-10.87.23.41-16.22,14.23-15.97,14.66.18.3,12.46-7.62,12.64-7.3.14.24-8.66,8.65-8.48,8.96.08.13,5.89-3.57,5.96-3.44"/>
    <path class="cls-2" d="m185.76,161.02c.47.81,39.35-24.29,40.04-23.11.5.87-28.32,21.46-27.78,22.39.43.74,31.48-19.41,32.02-18.49.43.75-23.69,18.35-23.26,19.1.33.57,27.67-16.77,28.01-16.17s-20.97,15.63-20.63,16.21c.41.71,23.1-14.23,23.48-13.56.19.33-13.23,13.22-12.96,13.68.3.52,17.13-10.57,17.43-10.06.17.29-8.45,9.54-8.3,9.81s11.77-7.25,11.97-6.91"/>
    <path class="cls-2" d="m2.69,126.95c.08.14,6.09-3.69,6.17-3.56.08.14-2.25,6.97-2.17,7.11.44.76,29.4-17.88,29.79-17.2s-21.68,17.35-21.39,17.86c2.39,4.13,182.1-112.22,185.17-106.91,2.42,4.19-178.84,102.38-175.8,107.65,2.67,4.62,174.25-105.92,176.55-101.93,2.92,5.06-172.17,97.46-169.34,102.36S199.96,30.53,201.97,34.01c2.38,4.12-163.48,95.19-161.17,99.19,2.1,3.63,158.9-97.76,161.5-93.24,1.94,3.36-155.83,89.47-153.3,93.86,2.3,3.99,150.31-92.66,152.86-88.25S51.85,131.19,54.19,135.25c2.05,3.54,145.12-88.51,147.17-84.97,2.32,4.01-143.21,84.33-141.31,87.62,2.39,4.14,139.6-85.54,141.74-81.83,1.82,3.15-142.17,82.47-140,86.23,2.34,4.05,138.19-85.05,140.47-81.1,2.01,3.48-144.58,83.65-142.2,87.76,2.16,3.74,142.47-86.33,144.23-83.27,2.36,4.09-147.75,84.72-145.65,88.35s146.18-88.92,148.13-85.53c2.61,4.53-151.13,87.73-149.11,91.23,2.4,4.16,153.91-93.05,155.73-89.91S54.27,162.3,56.27,165.76c2.35,4.06,160.75-97.18,162.64-93.9,2.34,4.04-165.55,93.59-162.7,98.52,2.14,3.71,165.15-101.44,167.79-96.87S53.58,171.79,56.08,176.13c2.71,4.69,171.53-105.28,174.23-100.59S54.15,177.45,56.71,181.89c2.29,3.97,176.96-107.26,179.16-103.44,2.59,4.49-181.61,104.31-178.8,109.18s180.54-110.85,183.4-105.89c2.46,4.27-184.61,106.69-182.31,110.68,2.73,4.72,183.26-112.43,186.13-107.46S57.04,193.23,59.62,197.7c2.95,5.12,185.08-113.06,187.76-108.41,3.16,5.48-190.25,108.26-187.25,113.47,2.21,3.83,185.38-114.17,188.48-108.82S58.61,203.2,61.49,208.17c2.14,3.71,179.26-108.47,181.41-104.74,2.75,4.77-182.17,105.63-179.76,109.8s150.11-91.79,152.33-87.95c2.59,4.48-153.21,88.44-151.41,91.55,2.33,4.04,150.05-91.87,152.32-87.94,1.98,3.43-153.14,89.05-151.25,92.32,2.21,3.83,151.88-92.3,153.88-88.84s-154.99,90.85-153.08,94.15c2.45,4.25,154.92-95.1,157.37-90.86,2.7,4.68-158.41,91.36-155.95,95.63,1.62,2.81,110.64-68.32,112.56-64.99,1.79,3.09-112.09,66.97-110.38,69.93,1.81,3.13,108.53-65.99,109.97-63.49,1.83,3.16-109.46,64.22-107.98,66.79.72,1.25,46.19-28.23,46.86-27.06.77,1.33-44.06,29.56-43.43,30.66.5.87,38.45-23.37,38.96-22.49.56.96-37.03,24.92-36.4,26,.46.79,32.69-19.83,33.11-19.11.53.92-28.4,21.36-27.93,22.17.41.71,23.6-14.51,23.98-13.85.34.59-19.67,15.46-19.31,16.08.24.41,15.45-9.46,15.69-9.06"/>
    <path class="cls-2" d="m172.38,20.58c.14.23,10.03-6.1,10.16-5.87.53.91-34.05,23.94-33.58,24.75.72,1.25,42.86-26.33,43.55-25.14"/>
    <path class="cls-2" d="m16,58.74c.04.06,2.52-1.54,2.56-1.48.09.15-1.9,5.8-1.83,5.93.13.23,10.01-6.08,10.14-5.86.17.3-8.89,9.92-8.72,10.21.22.38,15.35-9.31,15.55-8.98.25.43-12.62,11.97-12.38,12.39.32.55,19.08-11.55,19.31-11.15.31.53-16.17,14.83-15.94,15.22.39.67,24.88-15.17,25.23-14.57s-22.64,18.3-22.27,18.94c1.18,2.05,91.35-55.74,92.65-53.49,1.45,2.52-90.34,54.13-89.2,56.12S119.9,27.56,121.29,29.98c1.15,2-88.07,53.6-86.81,55.78s87.75-53.18,88.84-51.29c1.17,2.03-85.94,51.89-84.74,53.97,1.05,1.82,85.38-52,86.56-49.97,1.24,2.15-83.69,51.25-82.59,53.15,1.4,2.42,82.81-50.16,83.83-48.4,1.25,2.17-80.5,49.76-79.37,51.71,1.29,2.24,81.5-49.92,82.74-47.77,1.09,1.89-80.66,47.8-79.26,50.22,1.26,2.18,82.79-50.35,83.9-48.44,1.3,2.26-80.98,49.47-79.73,51.64,2.14,3.7,140.55-86.46,142.85-82.48,2.13,3.69-145.92,84.31-144.08,87.5S197.82,17.57,199.84,21.06"/>
    <path class="cls-2" d="m107.98,17.47c.05.09,3.38-2.07,3.43-1.98.18.32-12.59,10.88-12.38,11.24.23.39,16.21-9.92,16.45-9.5"/>
    <path class="cls-2" d="m43.77,5.5c.07.12,4.41-2.71,4.48-2.59.17.29-7.97,10.4-7.79,10.7.28.48,17.55-10.61,17.75-10.25.27.46-17.55,14.22-17.22,14.8.36.62,21.26-13.04,21.59-12.47.3.52-20.15,15.22-19.83,15.78.3.51,23.43-14.45,23.83-13.76s-22.9,17.61-22.58,18.16c.37.64,25.52-15.68,25.93-14.97.33.58-23.66,18.77-23.26,19.46.35.6,27.33-16.54,27.66-15.97.37.64-24.55,19.45-24.15,20.14.43.74,28.18-17.2,28.58-16.5.43.74-26.43,19.03-26.07,19.65.42.72,28.52-17.58,29-16.74s-27.72,19.09-27.3,19.82c.4.69,29.59-17.92,29.95-17.29.5.86-28.17,20.64-27.68,21.5s30.91-18.84,31.34-18.09c.53.92-29.2,21.74-28.67,22.65.59,1.01,35.09-21.27,35.53-20.51.62,1.07-35.58,23.96-35.04,24.89.93,1.61,57.39-34.92,58.16-33.58"/>
  </g>
</svg>