<?xml version="1.0" encoding="UTF-8"?>
<svg id="_клякса_3" data-name="клякса 3" xmlns="http://www.w3.org/2000/svg" viewBox="0 0 270.73 274.05">
  <defs>
    <style>
      .cls-1 {
        stroke-miterlimit: 10;
      }

      .cls-1, .cls-2 {
        fill: none;
        stroke: #fb6d61;
      }

      .cls-2 {
        stroke-linecap: round;
        stroke-linejoin: round;
        stroke-width: 1.2px;
      }
    </style>
  </defs>
  <path class="cls-1" d="m26.11,207.99c-4.96-11.23,5.36-18.54-5.59-28.23-15.1-13.37-20.28-25.6-10.19-41.38s22.32-17.43,12.58-40.19c-9.73-22.76-22.26-45.88-3.51-50.32,18.75-4.44,38.54,8.51,57.92,3.48,20.63-5.36,23.83-9.59,39.75-10.24,13.03-.53,31.36-11.51,40.36-24.51,9-13.01,23.26-24.59,29.78-2.26,6.51,22.33,13.38,19.96,25.9,21.61,12.52,1.65,19.96,5.91,15.09,37.29s18.2,27.51,30.35,32.03,20.61,9.27-1.66,26.35c-22.27,17.08-7.88,26.62-6.96,36.2,0,0,9.84,27.5-18.6,30.66-28.44,3.16-17.3,23.55-17.08,30.13.22,6.58,7.32,21.71-22.84,15.91-30.17-5.8-32.39-8.28-36.45,3.19s-7.23,35.44-24.87,17.46c-17.64-17.98-13.61-18.17-23.91-17.35-10.3.82-18.32,9.23-30.01-9.78-11.68-19.01-32.98,8.59-50.03-30.06Z"/>
  <g>
    <path class="cls-2" d="m160.72,240.1c.76,1.31,51.09-30.94,51.72-29.86.69,1.19-44.17,28.76-43.61,29.72s42.67-26.08,43.29-24.99c.56.96-36.26,25.28-35.67,26.31.46.79,35.46-21.67,35.98-20.77.43.74-31.43,21.37-30.89,22.3.44.77,31.14-19.21,31.67-18.29.32.56-25.75,18.53-25.28,19.36.31.53,25.99-15.78,26.33-15.2.27.46-18.66,15.89-18.31,16.49.28.49,18.29-11.26,18.59-10.73.17.29-9.94,10.9-9.74,11.24.13.23,10.05-6.17,10.21-5.9"/>
    <path class="cls-2" d="m222.02,200.53c.45.78,28.14-17.12,28.52-16.46.34.59-18.12,13.92-17.86,14.36.23.4,16.11-9.92,16.38-9.46"/>
    <path class="cls-2" d="m167.61,5.46c.1.17,5.5-3.37,5.58-3.22.26.45-16.77,14.93-16.5,15.39.4.69,23.67-14.44,24.01-13.86.54.93-38.55,26.35-38.05,27.22.59,1.02,41.09-25.3,41.78-24.12"/>
    <path class="cls-2" d="m12.96,51.11c.08.14,4.32-2.66,4.39-2.54.16.27-7.4,9.3-7.25,9.56.24.42,18.69-11.53,19.01-10.98.27.47-19.12,15.6-18.83,16.1.41.71,26.57-16.27,26.97-15.57s-26.67,20.02-26.33,20.61c.45.78,32.5-19.72,32.92-19,.54.94-31.82,21.95-31.39,22.7.6,1.04,36.93-22.72,37.54-21.67.65,1.13-37.05,24.56-36.4,25.69.62,1.07,42.18-25.61,42.72-24.67s-41.78,27.4-41.24,28.33c.69,1.2,46.85-28.9,47.65-27.51.7,1.21-46.74,29.33-45.93,30.74.74,1.29,51.74-31.68,52.52-30.32s-51.72,33.85-50.83,35.4c1.1,1.91,67.34-40.93,68.23-39.39.82,1.42-68.12,41.44-67.04,43.31,1.13,1.96,83.93-51.71,85.34-49.27S20.86,93.55,21.88,95.33c1.46,2.53,92.28-56.4,93.63-54.06S22.09,97.76,23.5,100.2C26.26,104.98,181.52,2.7,184.24,7.41c1.99,3.45-160.86,93.76-158.6,97.66,1.92,3.33,157.87-97.25,160.51-92.67S24.09,105.2,26.23,108.9c2.57,4.44,159.27-97.41,161.63-93.32S23.76,111.03,26.18,115.23,187.16,17.24,189.34,21.03c2.55,4.41-167.75,95.03-165.09,99.64,2.28,3.95,164.47-100.14,166.72-96.25,2.44,4.23-178.75,103.81-176.33,108.01,2.63,4.55,175.93-108.39,178.89-103.28,2.56,4.44-187.25,106.42-184.4,111.35,3.22,5.59,184.91-113.82,187.97-108.52S3.24,142.81,5.88,147.38c2.36,4.09,192.93-117.58,195.61-112.94S1.87,149.05,4.78,154.09c2.59,4.48,201.94-124.26,205.26-118.51,2.48,4.3-207.77,117.44-204.85,122.5,3.23,5.59,207.54-127.45,210.84-121.73S3.08,156.33,6.72,162.63c3.15,5.45,211.97-130.7,215.57-124.46,2.93,5.07-216.44,123.27-213.63,128.14,3.16,5.47,213.65-130.39,216.7-125.11,3.72,6.45-216.87,123.41-214.05,128.3,3.29,5.7,213.7-130.35,216.72-125.12S10.81,167.94,13.64,172.84,226.8,43.94,229.32,48.31c3.54,6.14-216.04,121.63-212.33,128.06,2.87,4.98,209.54-128.7,212.89-122.91,3.11,5.39-211.56,121.95-209.11,126.18,2.6,4.5,206.26-125.02,208.83-120.57S20.67,177.77,23.68,182.98c3.39,5.87,203.02-123.89,205.91-118.88,3.05,5.28-207.22,118.06-204.29,123.14s200.02-122.93,203.25-117.34c2.62,4.54-205.78,118.29-202.95,123.2,2.6,4.51,199.32-120.73,201.76-116.49,3.42,5.92-205.29,117.05-202.77,121.41s200.03-121.79,202.76-117.06c2.93,5.07-204.75,118.12-202.13,122.65,2.45,4.24,199.8-122.84,203.04-117.22,2.91,5.05-205.82,116.21-202.46,122.03,2.92,5.06,200.57-122.02,203.27-117.36,3,5.19-204.07,114.73-200.79,120.41s200.18-121.09,202.57-116.95c3.03,5.25-204.13,115.82-201.07,121.12,2.38,4.13,201.4-123.13,204.37-117.99,2.57,4.46-204.49,116.64-201.5,121.83,3.48,6.03,203.37-124.66,206.51-119.23,2.88,4.99-205.57,118.35-203.04,122.74,3.63,6.28,206.26-124.92,208.79-120.54,3.17,5.49-208.29,118.82-205.79,123.14,3.56,6.16,208.44-127.21,211.41-122.06,3.47,6.01-209.87,120.05-206.89,125.2s211.37-128.39,214.12-123.62c3.54,6.13-211.75,119.85-208.69,125.16,3.29,5.7,210.7-128.69,213.75-123.41,2.76,4.77-208.42,119-205.86,123.43s207.42-126.05,210.15-121.33c3.49,6.05-203.93,117.26-201.45,121.55,3.16,5.47,201.2-123.22,204.25-117.93,3.27,5.66-201.13,115.31-198.03,120.68,2.78,4.82,194.42-118.47,197.11-113.8,3.2,5.54-196.1,112.22-192.96,117.67,2.28,3.95,174.53-106.15,176.86-102.11s-177.36,101.11-174.9,105.37c2.69,4.66,165.89-100.47,167.92-96.95,2.48,4.3-168.45,95.85-165.63,100.72,2.42,4.18,161.73-99.19,164.25-94.83,2.81,4.86-163.13,93.58-160.98,97.32,1.95,3.38,158.99-96.92,161.21-93.08,1.89,3.28-160.4,90.86-157.75,95.46,2.14,3.71,157.26-95.24,159.19-91.91s-154.32,89.71-152.25,93.3c2.47,4.27,151.74-91.95,153.62-88.69,1.99,3.46-142.67,82.7-140.64,86.21,2.23,3.85,140.87-86.05,142.91-82.51,2.23,3.85-136.65,80.33-134.94,83.29,1.86,3.23,134-81.18,135.66-78.32,1.86,3.23-133.89,79.78-132.27,82.59,2,3.46,131.47-79.57,133.06-76.82,1.93,3.34-130.74,77.57-128.95,80.66s127.27-77.02,128.8-74.36c2.09,3.61-128.1,74.16-125.96,77.88.52.9,32.63-20.13,33.18-19.16.42.72-29.8,22.47-29.41,23.16s25.3-15.38,25.64-14.8c.36.63-21.38,17.82-21.05,18.39.25.44,17.64-10.88,17.95-10.36s-15.05,12.26-14.81,12.67c.19.34,13.51-8.3,13.73-7.92.15.26-8.47,9.11-8.33,9.37.06.1,3.97-2.43,4.03-2.33"/>
  </g>
</svg>