<?xml version="1.0" encoding="UTF-8"?>
<svg id="_Слой_6" data-name="Слой 6" xmlns="http://www.w3.org/2000/svg" viewBox="0 0 237.62 252.3">
  <defs>
    <style>
      .cls-1 {
        stroke-linecap: round;
        stroke-linejoin: round;
        stroke-width: 1.2px;
      }

      .cls-1, .cls-2 {
        fill: none;
        stroke: #fcf9e8;
      }

      .cls-2 {
        stroke-miterlimit: 10;
      }
    </style>
  </defs>
  <g>
    <path class="cls-2" d="m116.74,49.52L107.28,0l22.64,10.97s4.25,39.85,4.68,40.02,9.17,3.74,9.17,3.74l12.27-34.09,18.52,7.04-13.58,32.75,9.12,3.88,31.77-26.16,21.9,9.02-40.22,29.52,8.45,52.12-21.59-7.24-4.32-40.54-10.82-4.21-13.86,33.47s-18.25-6.44-18.03-7.02,13.8-33.33,13.8-33.33l-11.94-4.32-29.22,27.29s-21.62-8.88-21.42-8.97,42.13-34.42,42.13-34.42Z"/>
    <g>
      <path class="cls-1" d="m159.18,74.88c.78,1.36,50.21-30.6,50.91-29.39.63,1.08-48.4,31.99-47.74,33.13.97,1.67,54.41-32.99,55.1-31.81s-49.78,33.47-49.13,34.59c.6,1.04,40.12-24.51,40.71-23.5.53.92-42.45,28.86-41.85,29.9.27.46,16.04-9.9,16.32-9.42.31.53-15.28,13.96-15.02,14.41s12.26-7.73,12.55-7.24c.3.51-17.2,15-16.91,15.5s20.75-12.62,21.03-12.14c.24.41-14.89,13.39-14.61,13.87s19.49-11.81,19.74-11.39c.26.45-19.58,16.36-19.25,16.93.23.39,16.54-10.19,16.82-9.71.37.64-19.7,16.24-19.38,16.8.3.52,21.24-12.97,21.54-12.44s-18.99,15.72-18.64,16.33c.31.54,18.71-11.48,19-10.97.31.54-16.3,14.31-16.03,14.79.22.39,15.21-9.31,15.44-8.91.14.25-7.08,9.45-6.91,9.75.12.2,10.62-6.45,10.76-6.21.17.29-6.48,9.19-6.31,9.48.05.09,3.99-2.42,4.04-2.33"/>
      <path class="cls-1" d="m199.58,39.84s3.16-1.87,3.18-1.84c.32.56-19.98,16.14-19.66,16.68.36.62,22.94-14.18,23.34-13.48"/>
      <path class="cls-1" d="m128.93,63.81c.66,1.14,36.07-22.21,36.67-21.17s-35.09,25.22-34.54,26.17c.47.82,34.12-21,34.68-20.02.61,1.06-33.66,24.25-33.12,25.19.41.71,33.26-20.15,33.67-19.44.5.86-31.09,22.29-30.68,23,.51.89,25.7-15.9,26.15-15.1.49.84-28.17,20.48-27.71,21.29.55.96,32.5-19.87,32.98-19.04.53.92-35.69,24.98-35.11,25.98.46.79,20.2-12.54,20.58-11.88.5.87-26.81,20.87-26.45,21.5.33.58,25.62-15.58,25.96-14.99.37.65-24.41,18.56-24.06,19.17.28.48,22.11-13.46,22.41-12.94.28.48-17.13,15.46-16.83,15.98.14.24,11.85-7.25,12.02-6.94.15.26-6.09,8.81-5.96,9.04.05.08,2.65-1.64,2.7-1.56"/>
      <path class="cls-1" d="m154.76,21.75s2.53-1.48,2.54-1.47c.08.14-2.17,7.01-2.07,7.18.15.26,8.31-5.09,8.43-4.87.24.42-11.58,12.12-11.34,12.53.31.53,17.91-10.94,18.17-10.49.31.54-20.32,17.16-19.98,17.75.4.69,20.93-12.82,21.25-12.27.53.91-31.37,22.53-30.83,23.45.36.63,33.38-20.09,33.73-19.48"/>
      <path class="cls-1" d="m107.38.37s.26-.16.27-.15c.1.17-2.72,7.06-2.61,7.25.05.09,10.03-5.96,10.1-5.83.16.28-6.95,9.63-6.83,9.84.11.19,9.55-5.77,9.66-5.58.1.17-3.98,7.97-3.84,8.2.18.31,6.91-4.45,7.11-4.1.24.42-13.06,12.94-12.8,13.39s21.47-13.02,21.74-12.55c.22.38-14.14,13.23-13.87,13.69.3.51,17.91-10.83,18.12-10.46.33.57-19.61,16.44-19.29,16.99.26.46,12.4-7.85,12.7-7.33.27.47-13.72,13.38-13.53,13.71.22.38,19.68-11.85,19.89-11.48.35.61-18.04,15.44-17.72,16,.22.37,13.98-8.6,14.21-8.21.16.28-10.72,11.27-10.49,11.68.28.48,11.3-7.02,11.51-6.65.48.83-33.06,23.63-32.53,24.54s35.73-21.74,36.21-20.9c.93,1.62-63.76,40.26-62.67,42.14.8,1.39,59.9-36.49,60.72-35.06s-53.8,35.49-52.99,36.9c.69,1.2,59.8-36.65,60.72-35.06.82,1.41-59.16,38.38-58.24,39.97.42.72,41.57-25.38,42.16-24.34.48.83-29.65,22.27-29.23,23,.18.31,9.34-5.71,9.48-5.47"/>
    </g>
  </g>
  <g>
    <path class="cls-2" d="m3.36,142.3s-5.44-21.54,11.55-33.32,40.69-16.52,52.83-3.35c12.14,13.17,10.75,29.4-3.4,38.3,0,0,17.29-1.13,23.56,6.05s12.16,20.92,8.3,30.6c-3.86,9.68-27.46,27.29-44.04,26.98-16.58-.31-29.26-4.58-35.38-20.4l21.67-7.16s2.87,11.91,17.42,7.66,20.82-16.66,14.11-25.12c-6.71-8.46-28.02-.94-30.58.65l-6.05-15.61s9.49-2.28,14.47-5.89,9.36-9.64,7.03-16.49-9.37-10.65-17.28-7.95-14.09,8.39-12.95,17.32l-21.24,7.73Z"/>
    <g>
      <path class="cls-1" d="m19.65,185.87s.64-.41.66-.38c.05.09,2.56,4.04,2.63,4.16.32.55,19.66-11.94,19.91-11.5.32.56-17.96,15.89-17.64,16.44.25.43,15.47-9.61,15.76-9.1s-14.06,13.85-13.8,14.29c.27.46,15.76-9.9,16.11-9.3.17.3-11.77,11.54-11.53,11.95.38.66,28.3-17.39,28.76-16.6.3.52-20.77,17.58-20.46,18.11.83,1.43,56.35-34.43,57.17-33.01.88,1.52-55.43,36.02-54.65,37.38.83,1.44,53.32-32.86,54.21-31.3.57.98-39.5,27.01-38.91,28.03s35.94-22.33,36.62-21.14"/>
      <path class="cls-1" d="m34.57,118.67c.41.71,26.37-16.27,26.83-15.49.26.45-16.39,14.14-16.06,14.7.25.43,18.3-11.31,18.62-10.75.23.39-12.13,12.59-11.88,13.03s15.73-9.66,15.98-9.22c.23.4-11.76,12.3-11.51,12.74.31.53,20.83-12.6,21.08-12.17.26.46-20.17,16.4-19.78,17.07.25.43,14.53-9.15,14.86-8.58.47.82-36.85,25.79-36.33,26.68.58,1,37.91-23.12,38.44-22.19.76,1.31-42.27,28.55-41.62,29.68.57.99,43.65-26.45,44.19-25.51.58,1-37.17,25.28-36.52,26.39.41.71,31.05-19.21,31.61-18.25.5.87-33.1,23.25-32.51,24.27.44.76,26.4-16.09,26.77-15.45.33.57-16.47,15.15-16.23,15.56.32.55,30.96-18.56,31.25-18.04.38.66-21.52,16.95-21.22,17.47s22.97-13.87,23.24-13.42-15.98,14.44-15.7,14.91,18.91-11.56,19.19-11.08-15.05,14.33-14.78,14.81c.31.54,20.41-12.47,20.71-11.95.4.7-23.92,18.36-23.5,19.08.32.56,25.83-15.49,26.08-15.06.34.59-27.03,20.08-26.7,20.67.41.7,23.96-14.67,24.32-14.04"/>
      <path class="cls-1" d="m16.81,108.01c.17.3,10.9-6.6,11.03-6.37.38.66-21.33,17.97-21.03,18.48.56.96,35.9-21.88,36.4-21.01.65,1.13-43.53,29.94-42.97,30.9.75,1.3,57.75-34.74,58.35-33.69.79,1.37-54.1,35.34-53.34,36.66.84,1.46,58.49-35.89,59.41-34.3,1.04,1.8-58.85,38.32-58.13,39.56.27.47,21.46-13.01,21.73-12.55.11.2-5.98,9.42-5.85,9.64.03.05,2.1-1.27,2.13-1.23"/>
    </g>
  </g>
  <g>
    <path class="cls-2" d="m114.45,170.28c.59-.2,17.31-6.63,17.31-6.63,0,0,21.55,66.02,22.13,65.82s21.16-8.25,21.16-8.25l-22.47-63.92,17.21-4.97,21.49,63.92,22.87-7.04-22.13-65.82,16.68-5.61,27.05,80.45-94.49,31.77-26.8-79.72Z"/>
    <g>
      <path class="cls-1" d="m193.39,142.98s2.35-1.4,2.37-1.37c.1.18-2.02,7.08-1.91,7.27.2.35,13.26-8.15,13.47-7.78.27.47-16.04,15.01-15.81,15.42.19.33,15.77-9.61,15.99-9.23.27.46-14.33,13.23-14.13,13.57.22.38,17.08-10.36,17.3-9.99s-12.1,11.68-11.88,12.06,14.15-8.69,14.37-8.3-12.07,11.85-11.86,12.21c.25.43,10.44-6.52,10.66-6.15s-11.6,11.47-11.39,11.83,16-9.67,16.18-9.34-11.75,12-11.52,12.4c.2.34,15.86-9.61,16.05-9.27.3.52-19.16,16.32-18.79,16.96.22.37,20.67-12.44,20.89-12.06.3.52-21.49,17.31-21.11,17.97.23.4,17.21-10.44,17.43-10.06.18.3-11.3,11.51-11.07,11.91s16.42-10.08,16.68-9.63c.2.35-13,12.43-12.77,12.83.22.37,13.64-8.46,13.89-8.02.33.57-18.66,15.86-18.34,16.4.26.46,19.55-11.87,19.8-11.43.28.49-14.36,13.25-14.09,13.71s17.44-10.61,17.67-10.2"/>
      <path class="cls-1" d="m149.5,159.46s2.41-1.43,2.43-1.4c.06.11,5.64,2.45,5.73,2.61.23.4,11.24-7.08,11.5-6.64.2.35-11.54,12.4-11.33,12.76s16.68-10.07,16.87-9.74c.33.56-19.87,17.08-19.55,17.63.18.32,15.58-9.59,15.84-9.15.18.31-10.17,10.96-9.97,11.31.22.38,18.3-11.12,18.54-10.7.31.53-17.47,15.34-17.18,15.84.25.43,18.2-10.97,18.4-10.62.38.65-18.98,16.4-18.64,16.98.27.46,18.44-11.16,18.66-10.78.25.43-14.66,13.46-14.46,13.82.24.42,16.66-10.04,16.84-9.72.27.46-18.88,15.91-18.51,16.55.22.38,14.6-9,14.85-8.57s-15.27,13.56-15.06,13.92c.23.39,22.05-13.26,22.28-12.86.25.44-12.98,12.53-12.74,12.94.18.32,12.76-7.91,13-7.5.31.53-18.92,15.77-18.63,16.26.26.45,20.31-12.2,20.52-11.85.27.47-20.55,16.39-20.19,17.01.25.43,16.73-10.1,16.92-9.77.21.36-10.75,11.65-10.53,12.02.23.4,16.51-10.09,16.75-9.67"/>
      <path class="cls-1" d="m115.6,170s3.23-1.93,3.26-1.88c.12.2-4.95,8.29-4.85,8.47.27.46,18.34-11.08,18.55-10.71.25.43-16.31,14.88-16.02,15.38.23.4,17.95-10.97,18.21-10.51s-17.56,15.48-17.23,16.06c.25.44,14.73-8.99,14.94-8.63.16.28-8.92,10.61-8.72,10.95.22.38,14.42-8.94,14.69-8.48s-15.19,13.51-14.93,13.95,18.03-10.85,18.22-10.52c.28.49-18.79,16.06-18.43,16.68.25.44,13.06-8.16,13.33-7.7.19.33-9.87,10.5-9.69,10.81.21.36,18.3-11.19,18.57-10.72.37.64-19.56,16.31-19.3,16.76.24.42,18.32-11.04,18.52-10.69.31.53-18.81,16-18.52,16.51.24.41,19.36-11.76,19.61-11.32s-15.94,14.25-15.69,14.69,19-11.48,19.22-11.1c.32.55-17.45,15.07-17.2,15.49s19.59-11.92,19.86-11.46c.25.43-14.83,13.93-14.53,14.44.26.46,15.3-9.38,15.53-8.97.28.49-17.58,15.72-17.26,16.27.23.4,17.22-10.58,17.49-10.1s-17.72,15.43-17.38,16.02c.23.4,13.55-8.42,13.81-7.97.16.28-9.52,10.6-9.34,10.92.89,1.54,46.03-28.02,46.65-26.93.84,1.45-49.94,32.76-49.17,34.11.74,1.27,62.57-38.53,63.61-36.73.61,1.05-40.51,27.92-39.84,29.07,1.06,1.84,68.72-41.81,69.64-40.21.62,1.08-50.15,33.17-49.47,34.34.87,1.51,51.77-31.3,52.39-30.24.56.98-32.69,23.76-32.26,24.5s32.94-20.05,33.39-19.28c.11.2-4,7.49-3.91,7.65.12.21,4.46-2.85,4.58-2.64"/>
    </g>
  </g>
</svg>