<?xml version="1.0" encoding="UTF-8"?>
<svg id="_Слой_3" data-name="Слой 3" xmlns="http://www.w3.org/2000/svg" viewBox="0 0 225.21 253.76">
  <defs>
    <style>
      .cls-1 {
        stroke-linecap: round;
        stroke-linejoin: round;
        stroke-width: 1.2px;
      }

      .cls-1, .cls-2 {
        fill: none;
        stroke: #fcf9e8;
      }

      .cls-2 {
        stroke-miterlimit: 10;
      }
    </style>
  </defs>
  <g>
    <path class="cls-2" d="m48.22,5.47C35.47,8.29,1.17,31.34,1.17,31.34l52.72,91.54,20.43-11.77-17.35-30.13c19.56-5.27,48.21-29.15,33.29-54.83C74.92-.26,60.36,2.79,48.22,5.47Zm20.22,28.71c12.22,22.55-20.66,31.65-20.66,31.65l-17.08-29.67s26.23-23.24,37.75-1.99Z"/>
    <g>
      <path class="cls-1" d="m43.16,28.2c.38.65,31.83-19.47,32.3-18.65.3.52-16.52,14.07-16.22,14.58.35.6,16.18-10.2,16.55-9.56.2.35-11.13,12.08-10.93,12.41.28.48,14.4-9.03,14.71-8.49.26.44-12.74,12.12-12.51,12.53.3.51,17.94-10.96,18.2-10.51s-16.72,14.36-16.46,14.83c.33.58,20-12.34,20.34-11.74.29.5-15.53,13.76-15.29,14.18.28.48,18.9-11.59,19.2-11.08.4.69-24,19.2-23.62,19.85.33.57,20.24-12.43,20.56-11.87.25.43-18.7,16-18.34,16.61.32.55,24.39-14.9,24.74-14.29"/>
      <path class="cls-1" d="m15.48,22.37c.3.52,24.11-14.79,24.49-14.14C40.49,9.13-.42,36.07.28,37.27c.93,1.6,54.19-32.95,54.91-31.7S4.01,39.32,4.8,40.68C5.7,42.24,68.89,1.77,69.72,3.2c.96,1.66-60.35,39.36-59.6,40.65.84,1.45,60.58-37.32,61.6-35.56.78,1.35-60.39,38.48-59.49,40.03.33.57,15.83-9.72,16.08-9.28.23.39-11.68,12.19-11.47,12.54.27.47,17.62-10.79,17.89-10.33.39.67-20.34,16.96-19.99,17.57.27.47,20.77-12.77,21.11-12.19.21.37-13.76,13.21-13.55,13.57.3.52,19.03-11.57,19.28-11.13.38.67-20.95,16.52-20.61,17.12.26.44,17.64-10.76,17.89-10.33.28.49-18.61,15.73-18.25,16.37.32.55,20.17-12.26,20.44-11.8.25.43-12.2,12.04-11.98,12.44.33.56,18.35-11.28,18.64-10.76.33.57-23.81,18.4-23.42,19.09,1.08,1.88,68.09-41.42,69-39.84.8,1.39-65,41.11-64.14,42.61.97,1.68,61.64-37.94,62.66-36.18.71,1.24-55.34,36.55-54.66,37.73.92,1.6,52.43-31.98,53.18-30.7.88,1.53-58.44,37.38-57.45,39.08.71,1.24,52.41-31.73,53.04-30.63s-45.65,30.43-45.09,31.41c.29.49,21.57-13.25,21.91-12.65s-18.24,15.53-17.92,16.09c.27.46,15.94-10,16.29-9.4.3.52-17.08,14.9-16.76,15.45s20.14-12.35,20.45-11.81c.28.48-16.13,14.29-15.9,14.69.33.57,20.51-12.45,20.78-11.99.36.63-23.72,18.7-23.36,19.32.31.53,25.28-15.35,25.61-14.78.4.69-22.07,17.84-21.71,18.46.31.53,22.19-13.62,22.54-13.01.28.49-19.09,15.8-18.81,16.29s15.41-9.51,15.67-9.05"/>
    </g>
  </g>
  <g>
    <path class="cls-2" d="m123.55,244.45s13.04-11.74-11.31-28.07c-24.35-16.33-54.95-34.1-54.95-34.1l35.47-64.09,93.89,51.96-11.09,20.04-77.96-43.15-13.52,24.74s53.58,33.84,56.64,39.23,14.02,18.33-.34,42.76l-16.83-9.31Z"/>
    <g>
      <path class="cls-1" d="m96.73,147.86c.37.63,27.31-16.54,27.64-15.96s-25.25,19.12-24.93,19.68c.37.65,26.75-16.31,27.13-15.66.26.44-15.25,13.54-14.96,14.04.34.59,17.21-10.79,17.58-10.15.23.4-14.54,13.37-14.28,13.83.31.54,23.21-14.21,23.56-13.6.39.68-24.81,19.64-24.44,20.28.3.51,24.06-14.53,24.33-14.05s-19.82,16.58-19.52,17.1c.37.64,23.38-14.24,23.7-13.68.16.27-10.57,11.39-10.36,11.76.29.51,22.97-13.97,23.27-13.44.32.56-22.7,18.3-22.35,18.9s27.28-16.57,27.64-15.96c.42.73-23.64,18.51-23.22,19.25.34.6,21.85-13.33,22.16-12.79.22.37-13.5,12.68-13.27,13.07.3.51,17.92-11.14,18.26-10.54.19.33-13.29,12.97-13.08,13.34.33.58,15.82-9.78,16.1-9.3.32.55-15.9,14.95-15.65,15.37.32.56,27.58-16.81,27.96-16.14.44.77-24.74,18.69-24.33,19.4.33.57,26.98-16.27,27.28-15.75s-17.76,15.28-17.42,15.87c.28.49,23.8-14.53,24.14-13.94.36.63-24.53,19.24-24.09,20,.15.26,19.25-11.48,19.41-11.21.19.32-10.14,11.16-9.96,11.48.03.05,4.09-2.45,4.13-2.38"/>
      <path class="cls-1" d="m92.49,118.73s.58-.36.59-.34c.13.23-5.6,9.16-5.49,9.36.13.23,12.78-7.71,12.93-7.46.26.45-16.29,14.21-16.07,14.6.31.54,15.04-9.35,15.33-8.85.24.42-17.78,15.06-17.54,15.48.5.86,27.8-16.84,28.14-16.25.57.98-39.11,26.63-38.54,27.62.47.81,43.21-26.1,43.71-25.23.63,1.09-50.39,32.7-49.68,33.92.76,1.31,54.99-33.16,55.6-32.1.72,1.25-52.68,33.9-51.77,35.48.52.9,24.11-15.01,24.58-14.19.51.89-34.65,24.39-34.07,25.4.39.67,26.95-16.59,27.4-15.82.48.83-30.21,21.8-29.67,22.72.44.77,30.17-18.45,30.61-17.67.35.6-21.65,17.61-21.26,18.27.28.49,22.32-13.7,22.68-13.09.4.69-23.5,18.7-23.19,19.23.26.46,20.16-12.48,20.53-11.85.2.35-13.82,12.56-13.54,13.05.38.66,24.99-15.12,25.29-14.6.36.62-25.54,19.75-25.09,20.53.31.53,23.31-14.23,23.64-13.65.22.38-13.5,13.34-13.22,13.81.37.64,22.68-13.91,23.03-13.3s-21.55,17.63-21.16,18.32c.33.57,21-12.74,21.26-12.28.24.42-15.12,13.33-14.86,13.78.32.56,22.85-13.89,23.15-13.36.43.74-22.95,18.15-22.54,18.86.36.62,25.09-15.3,25.44-14.69s-21.26,17.08-20.92,17.67c.3.53,23.99-14.58,24.31-14.04.2.34-13.53,13.47-13.33,13.82.35.61,22.74-13.9,23.07-13.32s-24.56,19.32-24.21,19.93,24.55-14.84,24.84-14.34c.24.41-18.17,15.21-17.92,15.63.33.57,18.84-11.53,19.12-11.04.24.41-15.87,13.8-15.55,14.35.27.47,19.69-12.08,20-11.55.37.65-19.41,16.5-19.1,17.03s25.5-15.51,25.84-14.92c.36.62-20.63,17.3-20.23,18,.24.41,22.61-13.62,22.85-13.19.35.61-24.18,19.19-23.76,19.92.23.41,19.63-12.07,19.95-11.52.23.39-15.84,14.77-15.57,15.25s22.34-13.62,22.65-13.08c.38.66-23.37,18.85-23.01,19.46.25.42,20.52-12.49,20.8-12.01s-15.49,13.72-15.25,14.14c.15.26,12.08-7.37,12.25-7.07.14.25-6.28,9.34-6.12,9.62.02.04,1.81-1.12,1.84-1.06"/>
    </g>
  </g>
  <g>
    <path class="cls-2" d="m199.58,59.13l20.35,9.41s11.3-34.04-19.92-50.39c-26-13.61-37.21-10.25-49.65-2.54-13.32,8.25-23.95,21.33-27.84,46.82-2.41,15.83,2.63,38.47,27.68,49.7,22.98,10.3,44.77,6.94,56.27-14.5l-19.78-9.95s-23.01,21.66-38.55-5.32c-10.12-17.56,9.06-49.01,24.47-51.86,14.07-2.6,31.49,9.98,26.97,28.63Z"/>
    <g>
      <path class="cls-1" d="m165.96,33.57c.32.56,31.15-18.87,31.53-18.2.23.4-14.48,13.34-14.21,13.81.3.52,19.24-11.91,19.59-11.31.29.51-19.92,17.05-19.62,17.57.24.41,21.82-13.24,22.1-12.76.24.41-12.96,12.27-12.75,12.63.31.54,19.63-11.97,19.91-11.49.34.58-19.99,17-19.68,17.54.22.38,23.15-13.85,23.36-13.49.41.7-22.35,18.42-22.01,19.02.3.52,26.2-15.79,26.49-15.29.42.74-22.86,18.65-22.55,19.19.22.38,20.19-12.19,20.42-11.79.25.44-15.41,14.35-15.18,14.74.28.48,20.3-12.46,20.62-11.9.35.6-20.41,16.38-20.05,17,.28.48,20.03-12.27,20.33-11.74.25.43-16.82,15.23-16.52,15.76.22.39,14.08-8.53,14.25-8.23.21.36-12.42,12.23-12.2,12.62.14.24,13.85-8.27,13.97-8.07.13.22-4.76,8.78-4.66,8.96.02.03,1.04-.64,1.06-.61"/>
      <path class="cls-1" d="m147.01,17.88c.14.25,7.88-4.94,8.05-4.65.41.7-24.19,18.32-23.76,19.07.62,1.08,42.71-25.84,43.22-24.95.57.99-44.82,30.45-44.13,31.64s46.05-28.13,46.72-26.97c.73,1.26-50.42,33.39-49.59,34.82.91,1.58,60.78-36.75,61.5-35.51.99,1.72-67.57,42.14-66.6,43.83.8,1.38,68.49-41.53,69.35-40.04,1.05,1.83-65.76,41.51-64.82,43.15.58,1,33.21-20.36,33.72-19.47.54.94-41.17,28.44-40.6,29.43.46.8,32.56-19.76,32.98-19.04.47.81-28.75,21.27-28.3,22.05.42.73,26.3-16.07,26.69-15.41.4.7-26.28,20.44-25.81,21.24.33.58,17.33-10.63,17.6-10.16.29.5-18.82,15.68-18.45,16.32.33.58,17.51-10.75,17.79-10.27.33.57-16.55,14.6-16.3,15.04.28.49,22.08-13.34,22.33-12.89.35.61-19.28,16.62-18.92,17.24.23.4,16.23-10,16.51-9.53.3.51-16,14.61-15.71,15.11.26.45,24.08-14.45,24.32-14.04.33.58-23.06,18-22.67,18.68.29.51,20.13-12.24,20.4-11.78.18.32-12.13,12.32-11.89,12.73s12.98-8.25,13.3-7.68c.2.34-8.52,10.13-8.33,10.47.34.59,19.5-11.89,19.78-11.42s-21.6,17.8-21.19,18.52c.47.82,43.39-26.55,44.04-25.42.55.95-35.03,24.8-34.39,25.91s36.41-22.58,37.09-21.41c.58,1-31.87,23.12-31.32,24.07.45.78,41.11-25.09,41.7-24.08.44.76-30.18,21.93-29.72,22.73s32.09-19.6,32.55-18.79c.36.62-26.69,19.78-26.29,20.48.35.61,28.88-17.43,29.21-16.86"/>
    </g>
  </g>
</svg>