<?xml version="1.0" encoding="UTF-8"?>
<svg id="_диалоговое_окно" data-name="диалоговое окно" xmlns="http://www.w3.org/2000/svg" viewBox="0 0 95.17 103.58">
  <defs>
    <style>
      .cls-1 {
        stroke-miterlimit: 10;
        stroke-width: 2px;
      }

      .cls-1, .cls-2 {
        fill: none;
        stroke: #fb6d61;
      }

      .cls-2 {
        stroke-linecap: round;
        stroke-linejoin: round;
      }
    </style>
  </defs>
  <path class="cls-1" d="m49.49,1.08c-24.55,0-44.44,20.41-44.44,45.6,0,9.03,6.97,24.53,6.97,24.53l-.77,3.28-6.21,26.6,21.07-15.62c6.79,4.32,14.8,6.81,23.38,6.81,24.55,0,44.44-20.41,44.44-45.6,0-25.18-19.9-45.6-44.44-45.6Z"/>
  <g>
    <path class="cls-2" d="m26.34,85.58c1.11,1.92,66.63-40.61,67.56-39.01,1.05,1.82-63.22,40.12-62.23,41.84s61.09-37,61.84-35.7-56.01,36.81-55.3,38.04c.63,1.09,53.02-32.56,53.86-31.1s-46.95,31.28-46.28,32.43,42.89-26.09,43.46-25.09c.44.75-33.18,23.83-32.69,24.68.37.64,26.31-16.17,26.73-15.44"/>
    <path class="cls-2" d="m23.86,9.46c.14.24,7.89-4.83,8.01-4.62.28.49-20.07,16.52-19.71,17.15C12.58,22.72,47.75.21,48.28,1.13S7.39,29.46,7.97,30.47C8.59,31.55,56.83.66,57.52,1.86c.81,1.4-52.32,33.8-51.47,35.28.76,1.32,57.13-35.07,58.03-33.5.73,1.26-59.79,38.49-58.91,40.03S68.89,4.34,69.99,6.24c.87,1.5-65.68,41.46-64.74,43.08,1.04,1.8,68.53-41.81,69.5-40.13S5.23,52.69,6.16,54.31c1.21,2.1,71.65-43.54,72.59-41.91.85,1.48-72.16,45.17-71.23,46.78,1.24,2.15,73.93-44.7,74.8-43.19,1.2,2.08-74.1,46.38-73.16,48.01,1.01,1.74,75.16-46.04,76.3-44.05.93,1.61-75.5,47.02-74.42,48.9S87.16,22.53,88.2,24.32c1.31,2.26-78.01,48.75-77,50.5S89.23,26.92,90.46,29.06c1.35,2.34-81.89,50.53-80.81,52.41,1.34,2.32,81.35-49.55,82.47-47.61,1.46,2.54-85.33,51.82-83.99,54.14,1.45,2.5,83.94-51.19,85.12-49.14S5.42,92.88,6.54,94.81s86.25-52.24,87.31-50.41"/>
  </g>
</svg>