<?xml version="1.0" encoding="UTF-8"?>
<svg id="_книга" data-name="книга" xmlns="http://www.w3.org/2000/svg" viewBox="0 0 99.43 92.52">
  <defs>
    <style>
      .cls-1 {
        stroke-linecap: round;
        stroke-linejoin: round;
      }

      .cls-1, .cls-2 {
        fill: none;
        stroke: #ffd382;
      }

      .cls-2 {
        stroke-miterlimit: 10;
        stroke-width: 2px;
      }
    </style>
  </defs>
  <path class="cls-2" d="m25.25,3.35c-6.75-.85-7.29.53-15.76-1.37C.05-.14,1.67,9.95,1.67,9.95c0,0,.06,52.69.07,61.08s14.7,6.99,24.45,8.15c9.76,1.16,22.74,10.7,22.74,10.7l-.09-77.33C42.73,6.19,29.42,3.87,25.25,3.35Z"/>
  <path class="cls-1" d="m3.1,3.34c.04.06,2.54-1.54,2.57-1.48.1.18-4.08,7.93-3.96,8.13.21.36,12.2-7.44,12.37-7.14.24.42-12.58,12.48-12.37,12.85.35.6,21.41-12.96,21.67-12.51.29.5-21.98,17.84-21.66,18.38.43.75,29.28-17.7,29.62-17.1.38.66-30.03,21.82-29.62,22.53.49.84,35.46-21.62,35.96-20.76C38.31,7.33,1.28,31.95,1.73,32.73c.51.89,41.1-25.06,41.67-24.06.61,1.06-42.28,28.72-41.67,29.77.69,1.2,45.6-27.77,46.23-26.69.67,1.17-46.91,31.39-46.22,32.58.75,1.3,46.44-28.28,47.08-27.18.81,1.4-47.69,31.6-47.07,32.66.58,1,46.33-28.49,47.08-27.18.71,1.23-47.79,31.5-47.08,32.74.6,1.04,46.46-28.25,47.08-27.18.86,1.48-47.93,31.16-47.08,32.63.68,1.18,46.33-28.48,47.08-27.18.81,1.4-47.68,31.85-47.08,32.89.65,1.12,46.52-28.17,47.09-27.18.82,1.42-47.63,31.64-46.99,32.74.77,1.34,46.36-28.23,47-27.13.72,1.25-44.5,29.9-43.71,31.28.68,1.19,43.15-26.21,43.71-25.24.47.82-37.79,25.9-37.14,27.02.57.99,36.62-22.36,37.15-21.45s-28.88,21.25-28.37,22.15c.33.57,27.94-17.14,28.37-16.38.38.66-20.13,16.76-19.77,17.4.26.46,19.53-11.85,19.78-11.42.21.36-13.98,13.21-13.79,13.54s13.56-8.37,13.79-7.96c.17.29-8.31,10.53-8.16,10.79.1.18,8.04-4.94,8.17-4.72.1.17-3.65,7.3-3.54,7.49.05.08,3.49-2.15,3.55-2.05"/>
  <path class="cls-2" d="m74.29,3.29c6.75-.87,7.29.51,15.76-1.41,9.43-2.14,7.84,7.96,7.84,7.96,0,0,.06,52.69.07,61.08,0,8.39-14.68,7.03-24.43,8.21-9.75,1.18-22.72,10.75-22.72,10.75l-.09-77.33c6.1-6.38,19.41-8.73,23.57-9.26Z"/>
  <path class="cls-1" d="m52.36,11.11c.08.13,6.31-3.84,6.4-3.69.17.3-8.14,10.28-8.01,10.52.35.61,25.37-15.38,25.69-14.83.39.68-26.09,19.7-25.68,20.41.49.86,35.95-21.76,36.39-21.01.57.99-37.05,25.69-36.38,26.85.75,1.31,44.83-27.5,45.53-26.29.76,1.31-46.32,30.36-45.52,31.73.7,1.21,46.39-28.57,47.17-27.23.71,1.22-47.98,31.55-47.16,32.97.7,1.21,46.41-28.36,47.09-27.18.84,1.46-47.94,31.67-47.08,33.16.67,1.15,46.27-28.59,47.08-27.18.72,1.24-47.75,31.87-47.08,33.03.59,1.03,46.49-28.21,47.08-27.18.68,1.18-47.82,31.35-47.08,32.63.66,1.15,46.46-28.26,47.08-27.18.78,1.35-47.76,31.54-47.08,32.72.72,1.25,46.47-28.25,47.08-27.18s-47.78,31.78-47.08,33,46.34-28.47,47.08-27.18-47.7,32.07-47.07,33.15,46.3-28.54,47.08-27.18c.58,1.01-47.72,31.56-47.07,32.67.72,1.24,46.38-28.4,47.08-27.18.63,1.09-47.83,31.46-47.07,32.77.55.94,46.38-28.39,47.08-27.18.47.81-25.56,19.46-25.14,20.18.31.54,24.81-15.09,25.15-14.52.27.47-13.73,13.14-13.47,13.6.19.33,13.3-8.09,13.48-7.78"/>
</svg>