<?xml version="1.0" encoding="UTF-8"?>
<svg id="_диалоговое_окно" data-name="диалоговое окно" xmlns="http://www.w3.org/2000/svg" viewBox="0 0 112.09 103.66">
  <defs>
    <style>
      .cls-1 {
        stroke-linecap: round;
        stroke-linejoin: round;
      }

      .cls-1, .cls-2 {
        fill: none;
        stroke: #fcf9e8;
      }

      .cls-2 {
        stroke-miterlimit: 10;
        stroke-width: 2px;
      }
    </style>
  </defs>
  <path class="cls-2" d="m56.34,1.35C31.79,1.35,11.9,21.77,11.9,46.95c0,9.03,6.97,24.53,6.97,24.53l-.77,3.28-6.21,26.6,21.07-15.62c6.79,4.32,14.8,6.81,23.38,6.81,24.55,0,44.44-20.41,44.44-45.6S80.89,1.35,56.34,1.35Z"/>
  <g>
    <path class="cls-1" d="m33.19,85.85c1.11,1.92,66.63-40.61,67.56-39.01,1.05,1.82-63.22,40.12-62.23,41.84s61.09-37,61.84-35.7-56.01,36.81-55.3,38.04c.63,1.09,53.02-32.56,53.86-31.1s-46.95,31.28-46.29,32.43,42.89-26.09,43.46-25.09c.44.75-33.18,23.83-32.69,24.68.37.64,26.31-16.17,26.73-15.44"/>
    <path class="cls-1" d="m30.71,9.74c.14.24,7.89-4.83,8.01-4.62.28.49-20.07,16.52-19.71,17.15.42.73,35.59-21.77,36.12-20.85S14.24,29.74,14.82,30.74c.62,1.08,48.87-29.8,49.55-28.61.81,1.4-52.32,33.8-51.47,35.28.76,1.32,57.13-35.07,58.03-33.5.73,1.26-59.79,38.49-58.91,40.03S75.74,4.61,76.84,6.52c.87,1.5-65.68,41.46-64.74,43.08,1.04,1.8,68.53-41.81,69.5-40.13S12.08,52.97,13.02,54.59c1.21,2.1,71.65-43.54,72.59-41.91.85,1.48-72.16,45.17-71.23,46.78,1.24,2.15,73.93-44.7,74.8-43.19,1.2,2.08-74.1,46.38-73.16,48.01,1.01,1.74,75.16-46.04,76.3-44.05.93,1.61-75.5,47.02-74.42,48.9S94.01,22.8,95.05,24.6c1.31,2.26-78.01,48.75-77,50.5S96.08,27.2,97.31,29.33c1.35,2.34-81.89,50.53-80.81,52.41,1.34,2.32,81.35-49.55,82.47-47.61,1.46,2.54-85.33,51.82-83.99,54.14,1.45,2.5,83.94-51.19,85.12-49.14S12.27,93.16,13.39,95.09s86.25-52.24,87.31-50.41"/>
  </g>
</svg>