<?xml version="1.0" encoding="UTF-8"?>
<svg id="_пазл" data-name="пазл" xmlns="http://www.w3.org/2000/svg" viewBox="0 0 92.28 93.03">
  <defs>
    <style>
      .cls-1 {
        stroke-miterlimit: 10;
        stroke-width: 2px;
      }

      .cls-1, .cls-2 {
        fill: none;
        stroke: #9bc4f8;
      }

      .cls-2 {
        stroke-linecap: round;
        stroke-linejoin: round;
      }
    </style>
  </defs>
  <path class="cls-1" d="m91.07,41.53l-.11-15.53s.04-2.25-1.4-4.46c-.86-1.32-1.35-2.22-4.49-2.33-5.18-.18-20.13.15-20.13.15,0,0,2.49-17.77-9.95-17.7-12.67.08-9.69,17.97-9.69,17.97,0,0-14.7-.02-19.88.15-3.25.1-4.02,1.23-4.95,2.21-1.41,1.48-1.34,4.17-1.34,4.17l.15,19.88S1.5,43.93,1.59,56.48c.08,11.43,18.33,8.81,18.33,8.81,0,0-.05,15.01.15,19.88.15,3.7.31,3.68,1.4,4.84s3.86,1.46,3.86,1.46l16.4-.12s-.45-18.57,14.09-18.62,13.37,19.04,13.37,19.04l16.53-.12s2.83.1,4.09-1.52c.17-.21,1.3-1.07,1.59-3.99.08-.83-.08-17.52-.08-17.52,0,0-18.42,2.99-19.15-13.03-.69-14.9,18.91-14.06,18.91-14.06Z"/>
  <g>
    <path class="cls-2" d="m51.46,73.37c.26.45,21.46-13.03,21.74-12.55.18.31-12.06,12.58-11.87,12.92.22.39,14.64-9.01,14.88-8.59.2.35-10.71,11.68-10.54,11.98.22.38,15.62-9.49,15.82-9.14s-13.77,13.01-13.56,13.38c.3.52,21.5-13,21.75-12.56.39.67-20.96,17.08-20.6,17.71.32.56,21.95-13.33,22.24-12.84.41.71-22.04,17.33-21.62,18.05.33.57,21.3-13.14,21.66-12.51.24.42-11.91,12.14-11.73,12.44.16.28,11.6-7.04,11.75-6.79"/>
    <path class="cls-2" d="m80.76,43.16c.13.22,10.11-6.16,10.25-5.92"/>
    <path class="cls-2" d="m4.4,49.52c.06.1,4.09-2.5,4.15-2.39.16.28-7.06,9.51-6.91,9.77.82,1.42,64.02-39.26,65.02-37.54.88,1.52-64.2,40.57-63.2,42.29,1.15,1.99,72.39-44.37,73.51-42.44S7.76,63.21,8.59,64.64c1.2,2.08,76.99-47.45,78.29-45.2,1.13,1.97-71.37,44-70.17,46.06.99,1.71,72.5-44.37,73.59-42.49,1.16,2.01-71.21,44.67-70.35,46.17,1.06,1.84,69.95-42.82,71-40.99S18.95,72.88,19.95,74.62c1.19,2.05,69.81-43.12,71.03-41.01.97,1.69-71.85,45.29-70.99,46.78.78,1.36,52.49-31.84,53.16-30.69.8,1.38-53.87,35.02-53,36.53s51.32-31.28,52.03-30.04c.89,1.55-50.41,33.16-49.63,34.51.27.48,23.2-14.07,23.49-13.56.22.38-15.51,13.78-15.23,14.27.16.27,11.53-7.08,11.71-6.76.1.17-1.39,6.53-1.3,6.69,0,.01.47-.28.48-.27"/>
    <path class="cls-2" d="m20.94,21.53c.04.06,2.57-1.58,2.61-1.51.09.16-4.49,7.94-4.37,8.15.21.36,14.53-8.8,14.7-8.49.23.39-14.95,13.71-14.66,14.21.41.71,24.34-14.81,24.67-14.24.4.68-25.01,19.39-24.63,20.05.61,1.05,45.14-27.45,45.74-26.41.73,1.27-46.52,30.73-45.7,32.14.59,1.02,44.91-27.6,45.63-26.35"/>
    <path class="cls-2" d="m48.57,4.09c.05.09,3.39-2.09,3.45-1.99.14.24-6.88,9.08-6.72,9.36.23.41,14.5-8.86,14.71-8.49s-15.13,13.94-14.92,14.31,18.03-10.9,18.25-10.54"/>
  </g>
</svg>