<?xml version="1.0" encoding="UTF-8"?>
<svg id="_проирыватель" data-name="проирыватель" xmlns="http://www.w3.org/2000/svg" viewBox="0 0 93.32 92.73">
  <defs>
    <style>
      .cls-1 {
        stroke-miterlimit: 10;
        stroke-width: 2px;
      }

      .cls-1, .cls-2 {
        fill: none;
        stroke: #fb6d61;
      }

      .cls-2 {
        stroke-linecap: round;
        stroke-linejoin: round;
      }
    </style>
  </defs>
  <path class="cls-1" d="m59.01,40.7L10.64,2.58C6.68-.53,1.31,2.73,1.31,8.25v76.24c0,5.52,5.37,8.79,9.32,5.67l48.38-38.12c3.46-2.73,3.46-8.61,0-11.34Z"/>
  <path class="cls-2" d="m3.28,4.16c.04.07,2.84-1.74,2.88-1.66.11.19-4.94,8.23-4.82,8.43.19.32,10.56-6.52,10.74-6.2.16.28-10.98,11.52-10.74,11.93s14.68-9.06,14.94-8.62c.29.49-15.18,13.65-14.94,14.07.31.54,18.67-11.36,18.93-10.93.34.59-19.22,16.28-18.93,16.79.33.57,22.9-13.97,23.22-13.41.36.62-23.63,18.79-23.22,19.5.33.57,27.34-16.59,27.69-15.98.4.7-28.21,20.61-27.69,21.51s31.2-19.25,31.74-18.32c.45.79-32.23,23.48-31.74,24.34.44.76,35.53-21.93,36.14-20.87.47.81-36.6,26.14-36.14,26.93.59,1.03,40.06-24.34,40.58-23.43.6,1.04-41.29,28.05-40.58,29.27.58,1.01,44.28-26.9,44.86-25.9S.56,61.74,1.34,63.09s48.28-29.43,48.95-28.26c.79,1.37-49.72,32.7-48.95,34.02.92,1.59,52.45-31.95,53.17-30.7S.66,73.28,1.34,74.46c.97,1.67,56.32-34.73,57.28-33.07.83,1.44-58.07,37.59-57.28,38.96.9,1.55,59.06-36.39,60.05-34.67.89,1.54-61.08,38.43-60.04,40.23.8,1.38,57.61-35.36,58.52-33.79.82,1.41-57.35,37.1-56.6,38.39.42.73,29.83-18.14,30.23-17.45"/>
  <rect class="cls-1" x="70.37" y="1.37" width="21.84" height="90" rx="2.79" ry="2.79"/>
  <path class="cls-2" d="m70.92,2.56c.03.06,1.95-1.18,1.97-1.14.09.15-2.56,7.12-2.49,7.26.19.33,12.39-7.65,12.61-7.28.26.45-12.86,12.68-12.61,13.11.35.6,20.78-12.69,21.08-12.17.34.58-21.37,17.23-21.08,17.72.36.62,21.43-13.17,21.78-12.58s-22.11,18.08-21.78,18.64c.27.47,21.48-13.1,21.78-12.58s-22.11,17.76-21.78,18.33c.36.62,21.42-13.19,21.78-12.58.31.54-22.14,17.41-21.78,18.04.31.54,21.44-13.16,21.78-12.58.38.66-22.15,17.74-21.78,18.37.31.54,21.5-13.07,21.78-12.58.35.6-22.18,17.34-21.78,18.04.37.64,21.51-13.05,21.78-12.58.37.64-22.16,17.35-21.78,18,.26.45,21.45-13.14,21.78-12.58.43.74-22.1,18.08-21.78,18.63s21.47-13.1,21.78-12.58-22.07,17.75-21.78,18.26c.37.65,21.5-13.07,21.78-12.58.34.58-22.1,17.85-21.78,18.4.28.49,21.43-13.18,21.78-12.58s-22.16,17.54-21.78,18.2,21.5-13.06,21.78-12.58c.36.63-22.16,17.58-21.78,18.25.3.52,21.42-13.2,21.78-12.58.41.71-22.2,17.28-21.78,18.01.3.52,21.48-13.1,21.78-12.58.28.48-16.85,15-16.52,15.57.28.49,16.23-10.03,16.52-9.54.13.22-6.97,9.31-6.84,9.54.1.17,6.73-4.13,6.84-3.95"/>
</svg>