<?xml version="1.0" encoding="UTF-8"?>
<svg id="_ухо" data-name="ухо" xmlns="http://www.w3.org/2000/svg" viewBox="0 0 69.43 92.38">
  <defs>
    <style>
      .cls-1 {
        stroke-linecap: round;
        stroke-linejoin: round;
      }

      .cls-1, .cls-2 {
        fill: none;
        stroke: #ffd382;
      }

      .cls-2 {
        stroke-miterlimit: 10;
        stroke-width: 2px;
      }
    </style>
  </defs>
  <path class="cls-2" d="m1.65,76.91c-.98-11.62-.67-35.15.38-46.08C3.19,18.66,10.91.54,34.9,1.3s31.13,19.74,32.49,27.33.76,20.65-8.5,28.54-13.06,12.45-16.55,17.61-10.32,17.76-21.26,16.7-18.3-1.07-19.43-14.58Z"/>
  <path class="cls-2" d="m16.55,58.3c-3.92,0-3.46-21.35-2.2-27.47s6.41-15.87,16.76-16.78,17.81,2.09,21.12,8.2c2.96,5.47,5.3,13.35.76,12.98-6.6-.53,1.67-11.46-13.21-15.11-17.27-4.23-19.97,12.23-19.51,18.61,0,0,10.63-2.89,16.02.52,4.33,2.73,7.14,6.53,3.34,12.15-3.34,4.93-8.47,13.17-11.01,12.07-2.98-1.29-2.51-1.97,1.75-8.05,6.22-8.88,8.27-10.09,2.12-11.76s-11.99.45-11.99,1.36,1.21,13.28-3.95,13.28Z"/>
  <g>
    <path class="cls-1" d="m26.59,14.82c.25.42,19.48-11.9,19.77-11.41.17.29-8.04,10.46-7.88,10.73.24.41,13.59-8.27,13.78-7.95.13.22-8.21,9.24-8.06,9.49s11.62-7.1,11.79-6.81c.15.26-7.15,9.62-7,9.88s10.58-6.4,10.71-6.18c.15.26-7.57,10.59-7.42,10.85.13.23,10.58-6.44,10.72-6.19.15.26-8.74,11.48-8.54,11.84.14.24,10.98-6.73,11.15-6.44.2.35-11.09,10.9-10.88,11.27.19.34,12.06-7.33,12.22-7.05"/>
    <path class="cls-1" d="m25.23,22.59c.05.1,4.1-2.51,4.16-2.4.2.34-9.09,10.54-8.92,10.84.25.43,18.45-11.33,18.75-10.82.37.63-19.85,15.39-19.53,15.95s24.08-14.62,24.39-14.08c.27.46-17.89,14.94-17.55,15.52.26.45,20.76-12.68,21.06-12.16.2.35-13.96,12.51-13.74,12.9.18.31,14.87-9.08,15.08-8.71.24.41-10.67,11.37-10.44,11.76.15.25,11.71-7.15,11.88-6.86.2.35-9.95,9.89-9.75,10.25.39.67,26.42-16.19,26.82-15.49.44.76-27.93,19.64-27.44,20.49.34.59,27.4-16.86,27.85-16.08.51.89-35.16,25.11-34.62,26.05.4.7,33.84-20.66,34.32-19.82"/>
    <path class="cls-1" d="m19.93,45.08c.03.05,2.21-1.36,2.25-1.3.07.13-2.25,6.3-2.16,6.45.17.29,11.28-6.84,11.43-6.6.26.46-13.44,13.08-13.18,13.54.23.41,16.58-10.22,16.86-9.74"/>
    <path class="cls-1" d="m13.99,7.39c.09.16,6.23-3.85,6.34-3.66.24.41-14.21,12.31-13.95,12.76.43.75,25.84-15.83,26.23-15.15.51.88-30.09,22.72-29.53,23.7S41.91,1.28,42.5,2.3C43.2,3.52,1.27,31.33,1.94,32.5c.2.34,13.97-8.5,14.16-8.17.21.36-14.83,14.34-14.57,14.8.2.34,11.69-7.2,11.89-6.86.25.43-12.37,12.21-12.11,12.66.14.24,11.45-6.93,11.59-6.69.22.38-11.93,12.62-11.73,12.97s11.44-6.98,11.6-6.7c.26.44-11.88,12.23-11.65,12.62.15.26,11.73-7.17,11.9-6.87.25.43-12.1,11.55-11.88,11.93.16.28,12.4-7.52,12.56-7.25.25.43-12.66,13.46-12.42,13.86.4.7,31.6-19.32,32.07-18.51.43.75-32.42,22.61-31.84,23.61.32.56,25.37-15.39,25.69-14.83.49.85-25.44,20.41-25.04,21.09,1.1,1.91,64-39.14,64.94-37.5S2.87,83.31,3.98,85.23c.83,1.43,59.5-36.16,60.28-34.8.88,1.53-56.29,37.47-55.47,38.9.65,1.13,40.04-24.57,40.67-23.48.49.86-32.64,24.47-32.2,25.22.36.62,22.7-14,23.08-13.33.27.47-13.7,12.62-13.5,12.97.07.11,5.01-3.04,5.08-2.93"/>
  </g>
</svg>