<?xml version="1.0" encoding="UTF-8"?><svg id="_человек" xmlns="http://www.w3.org/2000/svg" viewBox="0 0 112.36 92.52"><defs><style>.cls-1{stroke-miterlimit:10;stroke-width:2px;}.cls-1,.cls-2{fill:none;stroke:#9bc4f8;}.cls-2{stroke-linecap:round;stroke-linejoin:round;}</style></defs><path class="cls-1" d="m78.02,62.04l-.63-.23c7.93-6.18,12.99-15.58,12.99-26.41,0-18.66-15.13-33.79-33.79-33.79S22.8,16.74,22.8,35.4c0,11.03,5.38,20.53,13.57,26.7l-.62.3c-21.31,9.42-40.83,29.21-30.73,29.21,14.07,0,84.59,0,103.7,0,9.1,0-8.51-20.3-30.71-29.57Z"/><path class="cls-2" d="m36.36,8.38c.09.16,6.97-4.22,7.05-4.07.25.44-16.82,14.67-16.56,15.12.44.76,30.38-18.46,30.78-17.77.53.93-34.41,24.52-33.79,25.59S65.38,2.02,65.92,2.95c.57.99-43.74,29.08-43.01,30.34S70.84,3.82,71.62,5.17c.68,1.18-49.24,32.65-48.59,33.78S75.82,7.02,76.45,8.1,23.29,42.77,23.96,43.92c.86,1.5,55.69-33.69,56.36-32.54.77,1.34-55.63,35.61-54.7,37.23S82.92,13.98,83.59,15.14c.91,1.58-56.54,36.28-55.56,37.97.8,1.38,57.61-34.9,58.32-33.67,1,1.72-56.07,36.39-55.38,37.57.87,1.51,56.5-34.63,57.37-33.12s-54.43,35.44-53.62,36.84c.86,1.49,54.17-33.23,55.02-31.76,1.14,1.97-84.37,51.49-83.11,53.67s82.69-50.09,83.71-48.33c1.56,2.71-88.96,54.19-87.55,56.63s85.77-52.76,87.18-50.33S10.86,89.6,12,91.58s74.86-45.92,76.02-43.89S20.45,89.55,21.62,91.58c.72,1.25,60.72-36.97,61.55-35.53.67,1.15-51.91,33.93-50.99,35.53.75,1.3,48.19-29.26,48.81-28.18.49.84-39.64,27.23-39.1,28.18.69,1.19,43.56-26.73,44.24-25.54.56.96-34.41,24.5-33.8,25.54.65,1.12,38.3-23.51,38.91-22.46.54.94-28.93,21.6-28.43,22.46.45.77,32.62-20.13,33.18-19.16.44.76-23.63,18.5-23.25,19.16.33.57,27.07-16.47,27.43-15.84.24.42-17.6,15.27-17.27,15.84.3.53,20.91-12.77,21.21-12.25.22.38-11.14,11.95-10.97,12.25s14.31-8.76,14.53-8.39c.1.18-4.29,8.18-4.17,8.39.09.16,6.94-4.25,7.05-4.07"/><path class="cls-1" d="m95.73,17.71l.96-.4c.52-.22,1.13,0,1.39.5,1.56,3.02,5.95,13.67.34,29.56-.2.56-.8.86-1.36.69l-1.19-.37c-.6-.19-.92-.84-.7-1.43,1.31-3.46,4.81-14.79-.04-27.14-.22-.55.05-1.18.6-1.41Z"/><path class="cls-2" d="m95.15,18.1s1.87-1.14,1.9-1.09c.07.12-.61,5.94-.53,6.08.05.09,3.02-1.84,3.06-1.77.08.14-2.21,6.91-2.13,7.04.05.08,3.28-1.98,3.31-1.91.08.14-3.25,7.27-3.15,7.43.05.09,3.48-2.15,3.54-2.05.11.19-4.44,8.12-4.31,8.35.06.11,3.79-2.32,3.85-2.22.12.2-5.5,8.8-5.35,9.05.06.11,3.74-2.29,3.8-2.19"/><path class="cls-1" d="m103.95,13.88l1.21-.51c.66-.28,1.43,0,1.76.64,1.97,3.82,7.53,17.32.44,37.44-.25.7-1.01,1.09-1.72.87l-1.51-.47c-.76-.24-1.17-1.07-.89-1.81,1.66-4.38,6.09-18.73-.05-34.38-.28-.7.06-1.49.76-1.78Z"/><path class="cls-2" d="m103.25,14.27c.03.06,2.18-1.32,2.21-1.27.07.13-.98,6.15-.9,6.3.06.11,3.75-2.29,3.8-2.2.09.15-2.72,7.2-2.64,7.34.06.1,4.03-2.44,4.08-2.35.08.15-3.6,7.46-3.5,7.63.07.12,4.23-2.61,4.3-2.48.11.19-4.49,8.14-4.35,8.38.08.13,4.49-2.75,4.56-2.63.12.2-5.55,8.82-5.4,9.07.08.14,4.81-2.94,4.88-2.82.14.24-6.94,9.68-6.8,9.9.07.13,5.33-3.29,5.42-3.13"/></svg>