<?xml version="1.0" encoding="UTF-8"?>
<svg id="_шляпа" data-name="шляпа" xmlns="http://www.w3.org/2000/svg" viewBox="0 0 113.87 92.19">
  <defs>
    <style>
      .cls-1 {
        stroke-linecap: round;
        stroke-linejoin: round;
      }

      .cls-1, .cls-2 {
        fill: none;
        stroke: #fdf9e8;
      }

      .cls-2 {
        stroke-miterlimit: 10;
        stroke-width: 2px;
      }
    </style>
  </defs>
  <polygon class="cls-2" points="2.08 30.6 57.14 1.39 112.47 30.6 112.47 70.52 100.95 70.52 100.95 36.61 57.28 61.36 2.08 30.6"/>
  <path class="cls-1" d="m2.4,30.74c.08.14,5.87-3.57,5.95-3.43.09.16-1.06,6.08-.99,6.2.8,1.38,52.02-31.84,52.8-30.49.65,1.12-48.39,32.25-47.79,33.28.67,1.15,52.13-31.97,52.94-30.56.62,1.07-48.23,32.4-47.56,33.56.73,1.26,52.42-31.8,53.08-30.65.61,1.05-48.53,32.3-47.77,33.61S75.47,10.13,76.28,11.52,27.4,43.9,28.07,45.05,80.61,12.82,81.43,14.24c.63,1.09-49.12,32.19-48.29,33.63.68,1.17,52.67-32.32,53.5-30.89.63,1.09-48.88,32.67-48.21,33.83s52.93-32.2,53.64-30.97c.77,1.33-49.45,32.58-48.84,33.64.74,1.29,53.14-32.13,53.77-31.04.88,1.53-49.21,32.72-48.47,33.99.93,1.61,53.17-32.41,53.91-31.13.83,1.44-49.54,32.8-48.89,33.92s53.21-32.66,54.05-31.2c.14.24-6.79,9.35-6.61,9.65.2.34,11.33-6.85,11.46-6.62.23.4-11.65,11.87-11.46,12.19.17.29,11.32-6.89,11.47-6.62.21.36-11.67,11.94-11.47,12.29.13.23,11.29-6.94,11.47-6.62.24.41-11.69,11.97-11.47,12.35.18.3,11.33-6.89,11.48-6.63.18.32-11.71,12.09-11.48,12.49.19.33,11.33-6.88,11.48-6.63.22.38-11.65,11.8-11.48,12.09.18.32,11.29-6.97,11.49-6.63.15.25-9.26,10.84-9.08,11.15.13.22,8.96-5.48,9.09-5.25"/>
  <polygon class="cls-2" points="22.25 45.58 57.57 65.23 92.89 45.58 92.89 71.47 57.57 90.67 22.25 70.96 22.25 45.58"/>
  <path class="cls-1" d="m22.28,45.92s.25-.15.25-.15c.07.12-.33,5.47-.25,5.6.08.14,4.99-3.06,5.07-2.93.14.24-5.22,8.7-5.07,8.96s10.24-6.27,10.4-6c.22.39-10.61,11.71-10.4,12.08s15.55-9.46,15.76-9.1c.22.38-16.03,14.58-15.76,15.06.35.6,20.67-12.72,21.02-12.13s-17.64,15.12-17.29,15.73c.27.47,22.09-13.38,22.36-12.91.29.5-17.43,15.35-17.16,15.81.39.67,22.06-13.45,22.37-12.91.35.6-17.55,15.24-17.25,15.77.7,1.22,55.72-34.08,56.54-32.65.91,1.58-52.46,33.96-51.64,35.38.66,1.14,51-30.94,51.64-29.82.76,1.32-47.02,31.56-46.31,32.79.58,1.01,45.64-27.91,46.32-26.74.55.96-42.11,28.23-41.38,29.5.52.9,40.86-24.79,41.38-23.89.67,1.16-36.61,25.91-36.07,26.85.61,1.06,35.54-21.74,36.07-20.82"/>
</svg>