<?xml version="1.0" encoding="UTF-8"?>
<svg xmlns="http://www.w3.org/2000/svg" viewBox="0 0 288.72 211.98">
  <defs>
    <style>
      .cls-1, .cls-2, .cls-3, .cls-4, .cls-5, .cls-6, .cls-7, .cls-8 {
        fill: none;
      }

      .cls-1, .cls-2, .cls-6, .cls-7 {
        stroke-miterlimit: 10;
        stroke-width: 2px;
      }

      .cls-1, .cls-4 {
        stroke: #fb6d61;
      }

      .cls-2, .cls-3 {
        stroke: #afd889;
      }

      .cls-3, .cls-4, .cls-5, .cls-8 {
        stroke-linecap: round;
        stroke-linejoin: round;
      }

      .cls-5, .cls-6 {
        stroke: #ffd382;
      }

      .cls-7, .cls-8 {
        stroke: #9bc4f8;
      }
    </style>
  </defs>
  <g id="_диалоговое_окно" data-name="диалоговое окно">
    <g>
      <path class="cls-1" d="m227.4,202.33c24.28,3.58,46.94-13.72,50.61-38.63,1.32-8.93-3.32-25.28-3.32-25.28l1.24-3.13,10.01-25.41-23.12,12.39c-6.09-5.26-13.65-8.9-22.14-10.15-24.28-3.58-46.94,13.72-50.61,38.63-3.67,24.91,13.04,48.01,37.33,51.58Z"/>
      <path class="cls-4" d="m208.53,120.14c.14.24,8.04-4.92,8.16-4.71.28.49-20.29,16.63-19.92,17.27.43.74,35.83-21.92,36.36-20.99s-41.16,28.47-40.57,29.48c.63,1.09,49.11-29.95,49.8-28.75.81,1.41-52.6,33.95-51.74,35.44.77,1.33,57.4-35.24,58.31-33.66.73,1.27-60.12,38.67-59.23,40.21s64.02-39.51,65.13-37.6c.87,1.51-66.11,41.69-65.17,43.33,1.04,1.81,68.95-42.06,69.93-40.37s-70.3,43.92-69.35,45.56c1.6,2.77,94.31-57.31,95.55-55.16,1.12,1.94-95.63,58.04-94.41,60.16,1.52,2.63,90.45-54.69,91.52-52.84,1.47,2.54-91,55.66-89.85,57.65s85.6-52.43,86.9-50.17c1.05,1.82-85.9,52.69-84.67,54.82s80.55-49.04,81.64-47.14c1.34,2.32-79.89,49.78-78.86,51.57s75.76-46.5,76.96-44.43c1.24,2.15-74.8,46.65-73.81,48.37,1.22,2.11,73.99-45.07,75.01-43.31,1.25,2.17-72.57,44.9-71.43,46.89,1.23,2.13,71.4-43.54,72.41-41.8.91,1.58-68.96,43.67-68.08,45.2s67.99-41.18,68.82-39.73c1.01,1.75-64.99,40.93-64.03,42.6.83,1.44,63.39-38.65,64.28-37.11.84,1.46-59.34,38.15-58.54,39.54s57.01-34.46,57.68-33.3c.85,1.47-50.96,34.05-50.34,35.11.57.98,47.37-28.9,48.04-27.74.61,1.06-39.14,27.33-38.64,28.19.54.93,33.52-20.66,34.09-19.68"/>
    </g>
  </g>
  <g id="_пазл" data-name="пазл">
    <g>
      <path class="cls-7" d="m157.18,27.71l-14.37,5.9s-2.1.8-3.62,2.96c-.91,1.29-1.55,2.08-.49,5.03,1.76,4.87,7.65,18.62,7.65,18.62,0,0-17.42,4.32-12.71,15.83,4.8,11.73,20.28,2.28,20.28,2.28,0,0,5.47,13.64,7.55,18.39,1.3,2.97,2.64,3.27,3.9,3.77,1.9.76,4.37-.32,4.37-.32l18.39-7.55s4.68,17.29,16.29,12.52c10.58-4.34,1.34-20.3,1.34-20.3,0,0,13.94-5.55,18.39-7.55,3.37-1.52,3.3-1.66,3.96-3.11s-.08-4.13-.08-4.13l-6.23-15.17s-17.06,7.34-22.53-6.13c-5.7-14.05,12.68-19.51,12.68-19.51l-6.28-15.29s-.96-2.66-2.94-3.23c-.26-.07-1.47-.81-4.29.02-.8.23-16.23,6.61-16.23,6.61,0,0,9.65,15.97-4.95,22.63-13.56,6.19-20.1-12.3-20.1-12.3Z"/>
      <g>
        <path class="cls-8" d="m207.38,84.18c.28.49,20.66-12.63,20.96-12.1"/>
        <path class="cls-8" d="m182.39,17.61s1.6-.98,1.63-.94c.06.1.24,5.32.31,5.45.27.47,18.87-11.43,19.1-11.03.27.46-18.43,15.59-18.09,16.19s20.54-12.51,20.82-12.02c.36.62-22.34,17.93-22,18.53.32.55,23.62-14.36,23.93-13.82"/>
        <path class="cls-8" d="m140.33,35.3c.06.1,3.78-2.33,3.85-2.22.12.21-5.56,8.36-5.42,8.61.31.54,19.27-11.78,19.56-11.29.25.43-17.99,15.52-17.74,15.94s20.05-12.12,20.29-11.71c.28.48-18.74,15.72-18.4,16.32.37.64,21.48-13.18,21.82-12.6s-20.07,16.95-19.81,17.4c.32.55,24.93-15.38,25.36-14.64.56.98-35.41,24.91-34.95,25.71,1.1,1.91,73.78-44.8,74.73-43.14s-77.86,47.99-76.61,50.15c1.08,1.87,77.33-47.52,78.57-45.36s-78,47.59-76.74,49.77c.95,1.64,62.43-38.49,63.49-36.65.72,1.25-60.25,38.1-59.25,39.83.74,1.27,58.83-35.64,59.55-34.38.62,1.07-45.16,30.58-44.57,31.6.54.94,46.07-28.1,46.72-26.97s-45.52,30.41-44.9,31.47c.69,1.19,47.94-29.12,48.57-28.04.68,1.19-47.21,31.85-46.57,32.96.84,1.46,53.25-32.23,53.89-31.12s-52.63,34.67-51.94,35.86c.85,1.46,61.79-37.64,62.64-36.17.96,1.66-61.6,39.13-60.73,40.62,1.06,1.84,61.77-37.53,62.58-36.13s-59.09,37.81-58.06,39.58,59.15-36.28,60.07-34.68c.55.95-38.4,26.77-37.77,27.87.51.89,39.09-23.84,39.64-22.89.66,1.14-38.23,26.39-37.72,27.28.24.41,16.78-10.14,16.97-9.8s-14.17,13.72-13.94,14.12c.21.36,15.32-9.39,15.55-8.98.17.3-11.35,11.6-11.17,11.91.14.25,11.27-6.84,11.42-6.59"/>
      </g>
    </g>
  </g>
  <g id="_книга" data-name="книга">
    <g>
      <path class="cls-6" d="m99.68,119.59c-6.42-2.26-7.24-1.02-15.11-4.67-8.77-4.07-9.33,6.14-9.33,6.14l-12.85,59.71c-1.77,8.2,12.88,9.94,22.18,13.14,9.29,3.19,19.96,15.27,19.96,15.27l16.26-75.6c-4.63-7.52-17.15-12.59-21.12-13.99Z"/>
      <path class="cls-5" d="m77.32,115.55c.04.06,2.52-1.53,2.55-1.47.12.2-5.1,8.49-4.98,8.71.2.35,11.73-7.15,11.89-6.86.26.45-13.52,12.99-13.29,13.39.31.54,19.49-11.81,19.73-11.39.28.49-21.49,17.57-21.18,18.1.41.71,27.79-16.8,28.11-16.23.38.65-29.86,21.73-29.45,22.44.47.82,34.43-20.99,34.91-20.16.64,1.1-36.77,25.92-36.32,26.7.51.89,40.94-24.96,41.51-23.97.63,1.09-43.54,29.41-42.92,30.5.71,1.23,46.84-28.53,47.48-27.41.71,1.23-49.66,32.89-48.93,34.14.84,1.46,52.09-31.72,52.81-30.49.92,1.59-54.85,35.54-54.15,36.75s54.14-33.3,55.02-31.77-57.23,36.65-56.39,38.11c.7,1.22,54.3-33.02,55.03-31.77,1.02,1.76-57.37,36.25-56.36,37.99.8,1.38,54.15-33.29,55.02-31.77s-54.32,35.5-53.64,36.68c.72,1.25,51.61-31.25,52.24-30.16.83,1.44-48.34,32.03-47.69,33.15.76,1.32,45.69-27.82,46.31-26.74.66,1.14-40.52,27.75-39.79,29.02.6,1.04,37.82-22.97,38.31-22.12.41.71-32.38,22.98-31.82,23.95.47.81,30.02-18.33,30.45-17.58s-24.8,19.05-24.35,19.83c.27.46,22.58-13.85,22.93-13.24s-18.26,15.75-17.93,16.33c.22.38,16.25-9.86,16.46-9.5.19.33-12.53,12.41-12.35,12.72.15.26,10.8-6.66,10.98-6.34.15.26-7.03,9.82-6.89,10.05.07.12,5.32-3.27,5.4-3.12s-2.09,6.44-2,6.6c0,.02.65-.4.66-.38"/>
      <path class="cls-6" d="m147.62,129.9c6.78.58,7.02,2.04,15.7,1.96,9.67-.1,5.98,9.43,5.98,9.43,0,0-11.08,51.51-12.85,59.71-1.77,8.2-15.83,3.76-25.62,2.85-9.78-.91-24.48,5.71-24.48,5.71l16.26-75.6c7.31-4.95,20.81-4.42,25-4.07Z"/>
      <path class="cls-5" d="m122.58,134.27c.05.08,3.69-2.24,3.74-2.16.14.23-5.3,8.71-5.19,8.89.27.46,19.28-11.69,19.52-11.27.33.56-21.23,17.06-20.89,17.65.41.7,29.49-17.85,29.84-17.23.5.86-31.86,22.9-31.28,23.9.64,1.12,38.3-23.5,38.9-22.46.67,1.16-40.95,27.46-40.24,28.68s47.97-29.54,48.77-28.16c.75,1.3-51.05,33.21-50.18,34.71.8,1.39,53.35-32.6,54.13-31.25.99,1.71-56.61,36.34-55.6,38.08.78,1.35,54.08-33.42,55.03-31.77.85,1.48-57.26,37.07-56.47,38.45.69,1.2,54.33-32.97,55.03-31.77.81,1.39-57.24,36.47-56.37,37.99.77,1.34,54.3-33.03,55.03-31.77.93,1.61-57.2,36.69-56.39,38.09s54.31-33.01,55.03-31.77-57.29,36.96-56.45,38.41,54.16-33.27,55.02-31.77-57.23,37.3-56.49,38.59,54.11-33.36,55.02-31.77c.54.94-44.37,29.73-43.77,30.77.64,1.12,41.79-25.59,42.42-24.49.41.72-30.57,22.09-30.07,22.95.33.58,28.27-17.31,28.7-16.57.4.69-21.12,17.05-20.77,17.65.24.42,19.12-11.63,19.37-11.19.23.4-11.12,11.72-10.9,12.11.14.23,9.34-5.68,9.47-5.47"/>
    </g>
  </g>
  <g id="_человек" data-name="человек">
    <g>
      <path class="cls-2" d="m68.53,57.26l-.65.17c2.87-9.63,1.55-20.23-4.74-29.05-10.82-15.2-31.92-18.75-47.12-7.93C.82,31.28-2.73,52.38,8.1,67.58c6.4,8.99,16.3,13.6,26.54,13.88l-.33.6c-11.9,20.03-16.32,47.48-8.09,41.62,11.46-8.16,68.91-49.06,84.48-60.15,7.41-5.28-18.7-11.61-42.16-6.28Z"/>
      <path class="cls-3" d="m15.39,20.97c.09.16,6.95-4.21,7.03-4.06.25.44-16.8,14.66-16.54,15.11.44.76,30.39-18.47,30.79-17.78.53.93-34.42,24.53-33.8,25.59S44.41,14.61,44.94,15.54c.57.99-43.73,29.08-43.01,30.34s47.94-29.47,48.72-28.13c.68,1.18-49.25,32.65-48.6,33.78s52.81-31.93,53.44-30.85S2.29,55.37,2.96,56.52c.87,1.5,55.73-33.71,56.39-32.56.77,1.34-55.71,35.65-54.78,37.28S61.95,26.56,62.62,27.73c.92,1.59-56.66,36.35-55.68,38.04.8,1.38,57.73-34.97,58.44-33.74,1,1.73-56.27,36.5-55.58,37.69.88,1.52,56.69-34.75,57.57-33.24S12.69,72.05,13.5,73.46c.87,1.5,54.39-33.36,55.24-31.89.71,1.23-51.64,33.69-50.86,35.04s50.79-30.76,51.41-29.68c.84,1.45-46.39,31.12-45.64,32.44s44.44-27.34,45.17-26.08c.67,1.17-38.47,26.85-37.89,27.85.62,1.08,42.41-26.01,43.07-24.87.75,1.3-42.6,28.4-41.84,29.71.62,1.08,52.42-31.92,53.13-30.68s-58.04,37.23-57.01,39.01,66.12-40.15,66.97-38.67S24.7,99.8,25.64,101.44c1.2,2.08,76.11-46.7,77.31-44.63S22.23,106.32,23.58,108.66c1.43,2.48,84.64-51.96,85.98-49.64,1.55,2.68-88.68,53.95-87.25,56.42,1.1,1.9,80.25-49.53,81.63-47.13S20.91,119.14,22.14,121.27c.47.82,38.71-23.54,39.23-22.65"/>
      <path class="cls-2" d="m57.24,10.87l.55-.88c.3-.48.92-.66,1.42-.4,3.02,1.55,12.77,7.69,17.42,23.88.16.57-.15,1.16-.71,1.35l-1.19.39c-.6.2-1.24-.15-1.4-.76-.94-3.58-4.66-14.83-15.77-22.09-.5-.33-.64-.99-.33-1.49Z"/>
      <path class="cls-3" d="m57.52,10.03s1.21-.74,1.23-.71c.06.1,1.47,4.77,1.54,4.89.05.09,3.14-1.92,3.19-1.84.06.1.61,5.33.67,5.43.04.07,3.09-1.87,3.12-1.8.06.1-.09,5.51-.02,5.62.05.08,2.99-1.85,3.04-1.76.07.12-.46,5.93-.37,6.08.05.09,2.93-1.8,2.98-1.72.07.12-.92,6.28-.83,6.44.05.09,2.91-1.78,2.95-1.71.07.12-.37,5.87-.31,5.99.02.04,1.7-1.05,1.73-1"/>
      <path class="cls-2" d="m61.72,2.99l.69-1.11c.38-.61,1.17-.83,1.8-.5,3.82,1.97,16.18,9.74,22.07,30.25.21.72-.19,1.47-.9,1.71l-1.5.5c-.76.25-1.57-.19-1.77-.96-1.19-4.54-5.9-18.79-19.97-27.98-.63-.41-.82-1.25-.42-1.89Z"/>
      <path class="cls-3" d="m62.15,1.79s1.37-.83,1.39-.8c.06.11.77,5.17.84,5.29s3.99-2.44,4.05-2.34c.06.11-.03,5.7.03,5.8.06.1,3.97-2.4,4.01-2.32.06.1-.66,5.83-.59,5.94.06.11,3.87-2.38,3.93-2.27.07.13-.93,6.19-.84,6.35.06.11,3.8-2.33,3.86-2.23.07.13-1.27,6.48-1.18,6.64.06.11,3.74-2.28,3.79-2.19.08.14-1.63,6.74-1.55,6.87.05.09,3.69-2.27,3.75-2.16.07.13-2.2,6.57-2.1,6.74.05.09,3.72-2.29,3.78-2.18"/>
    </g>
  </g>
</svg>