<?xml version="1.0" encoding="UTF-8"?>
<svg id="_клякса_1" data-name="клякса 1" xmlns="http://www.w3.org/2000/svg" viewBox="0 0 246.5 252.48">
  <defs>
    <style>
      .cls-1 {
        stroke-miterlimit: 10;
      }

      .cls-1, .cls-2 {
        fill: none;
        stroke: #fb6d61;
      }

      .cls-2 {
        stroke-linecap: round;
        stroke-linejoin: round;
        stroke-width: 1.2px;
      }
    </style>
  </defs>
  <path class="cls-1" d="m58.98,146.23c-4.2,10.72-7.83,26.34-3.34,45.93,4.49,19.59,8.1,40.03,14.81,48.89s19.8,18.27,29.19,3.5c9.39-14.77,15.74-40,25.27-37.37s18.85,25.24,21.55,28.05,11.51,18.27,17.97,3.77,8.49-18.69,17.31-20.79c8.82-2.1,18.59-3.21,9.31-18.83-9.28-15.62-25.88-39.51-.21-39.01s66.56,3.91,48.31-10.43c-18.25-14.33-39.8-25.81-15.86-36.72,23.94-10.91,27.5-18.15,19.07-27.58-8.43-9.43-25.55-14.64-35.27-16.46s-8.09-16.23-7.53-22.09c.87-9.07-.42-27.97-5.49-30.75-5.07-2.78-8.38-7.88-29.17,7.96-20.79,15.85-32.64,31.7-38.94,21.5-6.3-10.2-10.42-40.35-21.74-26.92-11.32,13.43-13.73,12.25-20.92,5.77-7.19-6.48-29.77-31.95-42.38-18.55-12.61,13.4,19.9,37.93,16.1,49.24-3.8,11.3-32.04,1.16-35.95,1.41s-16.71-1.47,3.01,20.7c19.72,22.17,46.84,23.18,11.83,35.17-35.02,11.99-49.58,17.07-20.04,18.95s48.28,1.46,43.11,14.66Z"/>
  <g>
    <path class="cls-2" d="m178.81,219.11c.23.4,15.87-9.72,16.11-9.3"/>
    <path class="cls-2" d="m122.66,206.99c.87,1.51,54.31-33.47,55.22-31.88.8,1.39-50.86,32.44-50.11,33.74.81,1.41,50.84-31.22,51.65-29.82s-47.7,32.42-47.06,33.52c.76,1.31,48.7-29.53,49.31-28.47.81,1.41-47.24,31.1-46.44,32.47s48.29-29.61,49.04-28.31c.64,1.11-47.7,30.48-46.93,31.82.82,1.43,48.8-29.56,49.4-28.52.79,1.37-47.28,30.84-46.43,32.31.7,1.22,47.66-29.46,48.5-28,.61,1.05-46.93,31.82-46.26,32.98.75,1.3,48.16-29.18,48.75-28.15s-47.48,30.08-46.76,31.33c.58,1.01,48-29.35,48.71-28.12.65,1.13-46.95,30.87-46.28,32.03.63,1.09,47.31-29.14,48.1-27.77.67,1.16-45.43,30.93-44.75,32.11.31.54,18.5-11.39,18.8-10.86.27.47-15.41,13.73-15.11,14.23.18.31,11.04-6.75,11.2-6.47s-7.1,7.86-6.97,8.1c.05.09,3.05-1.86,3.09-1.78"/>
    <path class="cls-2" d="m182.87,161.38c.66,1.15,40.26-24.33,40.73-23.52.39.67-31.93,21.59-31.42,22.46.4.7,33.9-20.56,34.33-19.82s-24.74,19.59-24.36,20.25c.47.81,28.95-17.81,29.42-16.99.35.61-20.92,16.6-20.63,17.11.32.56,23.79-14.4,24.07-13.9.23.39-15.3,13.6-15.01,14.1.31.54,18.93-11.52,19.19-11.08.21.36-11.23,10.44-11.08,10.71.2.35,13.56-8.36,13.79-7.96.09.15-2.42,6.48-2.33,6.63.05.08,3.45-2.11,3.5-2.02"/>
    <path class="cls-2" d="m.67,126.8c.11.19,5.92-3.6,6-3.46s-1.31,6.67-1.21,6.84c.41.71,29.75-18.23,30.21-17.44.37.64-21.87,17.79-21.5,18.44,3.14,5.43,181.48-111.01,184.18-106.33,2.46,4.26-179.73,102.3-177.04,106.96,3.02,5.23,174.95-106.84,177.47-102.46,2.09,3.61-170.77,98.15-167.91,103.09,2.68,4.64,165.95-101.38,168.36-97.2S37.54,129.52,39.48,132.89c2.28,3.94,157.58-96.59,160.01-92.38S44.64,129.85,47.07,134.06c1.88,3.26,150.17-92.57,152.71-88.17,2.12,3.67-147.8,86.37-145.84,89.77,1.75,3.03,143.34-87.08,145.21-83.84,2.37,4.11-143.41,82.36-141.35,85.93S197.19,52.38,199.31,56.05c2.26,3.91-141.19,83.93-139.5,86.87,2.39,4.14,138.21-83.87,139.97-80.81,2.37,4.11-144.26,84.45-142.28,87.87,2.43,4.22,143.1-86.54,144.8-83.6,2.13,3.7-148.01,86.54-146.28,89.54,2.55,4.41,148.25-90.33,150.3-86.77,2.52,4.37-154.11,89.49-152.04,93.07s156.34-95.64,158.67-91.61c2.1,3.64-161.84,92.59-159.1,97.33,2.58,4.46,163.63-99.23,165.69-95.66,2.24,3.88-167.46,96.24-165.47,99.68,2.82,4.88,166.96-102.71,169.69-97.97S50.86,172.8,53.54,177.44s172.92-104.83,175.08-101.08c2.96,5.12-176.88,101.24-174.74,104.94,2.77,4.79,175.32-108.19,178.34-102.96,2.58,4.47-179.75,104.31-177.66,107.94,3.02,5.24,180.06-109.22,182.34-105.27,2.82,4.89-184.09,106.37-181.66,110.58s183.26-112.26,186.06-107.42S53.51,191.87,56.39,196.84c2.4,4.15,185.51-112.84,187.99-108.54,3.12,5.41-188.89,109.27-186.36,113.65s186.15-112.91,188.51-108.83c2.2,3.82-190.17,108.94-187.48,113.59,2.51,4.35,182.05-112.23,185.14-106.89,2.5,4.34-186.72,107.84-184.26,112.09,2.14,3.71,150.52-92.66,153.01-88.34S59.36,212.92,61.37,216.41c2.57,4.45,150.63-91.66,152.66-88.14S60.49,217.53,62.43,220.89c2.06,3.57,152.05-92.36,154.03-88.93S61.83,222.86,63.79,226.26s154.91-94.9,157.27-90.8c2.5,4.33-157.87,91.25-155.84,94.77,1.4,2.42,111.06-68.25,112.85-65.16,1.65,2.86-112.98,66.22-111.49,68.79,1.33,2.3,109.26-66.58,110.78-63.96,1.87,3.24-110.55,64.88-109.06,67.45,1.27,2.2,108.14-66.4,109.86-63.43,1.46,2.52-109.25,64.06-107.51,67.08.73,1.27,42.67-25.84,43.19-24.93.73,1.27-40.62,27.41-40.06,28.37.42.74,36.16-22.03,36.66-21.16.61,1.06-33.16,24.01-32.66,24.87.47.81,28.04-17.16,28.46-16.43.35.6-24.7,18.3-24.39,18.84.26.44,20.92-12.83,21.24-12.26.28.48-15.16,13.75-14.94,14.12.16.28,9.74-5.99,9.89-5.71"/>
    <path class="cls-2" d="m169.49,20.93c.13.22,10.72-6.51,10.86-6.27.59,1.01-35.52,24.71-34.89,25.79.68,1.17,44.78-27.07,45.31-26.16"/>
    <path class="cls-2" d="m13.97,58.6c.03.06,2.35-1.44,2.39-1.38.07.12-2.08,6.2-2.01,6.32.18.31,10.71-6.54,10.86-6.27.17.29-8.97,10.54-8.83,10.8.2.35,15.12-9.34,15.39-8.88s-11.94,12.55-11.73,12.92c.26.45,19.67-11.99,19.95-11.52.34.58-17.27,14.68-17.03,15.09.39.68,25.68-15.82,26.11-15.07.37.64-23.26,18.08-22.94,18.63,1.29,2.23,91.11-55.38,92.31-53.3S27.77,80.56,28.86,82.45c1.38,2.38,89.11-54.66,90.5-52.25,1.48,2.57-88.46,53.16-87.41,54.97S119.48,31.14,121,33.76c1.22,2.11-85.99,52.27-84.68,54.53s85.14-51.83,86.3-49.82c1.01,1.75-84.51,49.87-83.21,52.13,1.43,2.49,83.42-50.94,84.63-48.86,1,1.73-81.75,49.94-80.36,52.34.97,1.68,81.6-49.89,82.8-47.81.95,1.65-79.74,48.59-78.55,50.64.99,1.72,81.85-49.86,82.98-47.91,1.21,2.1-79.88,49.01-78.64,51.16,1.84,3.2,141.26-85.96,143.17-82.66,2.34,4.05-146.36,83.39-143.87,87.7,1.93,3.35,143.51-87.78,145.64-84.09"/>
    <path class="cls-2" d="m105.08,17.82c.05.08,4.07-2.47,4.13-2.38.2.35-12.84,11.08-12.66,11.4.2.35,16.64-10.23,16.91-9.77"/>
    <path class="cls-2" d="m41.74,5.36c.07.11,4.24-2.62,4.31-2.49.16.28-8.06,8.52-7.92,8.75.22.38,14.69-8.96,14.89-8.6.22.38-14.78,13.32-14.52,13.76.3.53,20.36-12.39,20.64-11.92.31.54-19.95,16.09-19.66,16.58.34.59,24.16-14.61,24.45-14.12.41.7-23.09,16.96-22.77,17.52.35.61,25.52-15.47,25.83-14.92.34.6-23.29,18.01-22.96,18.58.37.64,26.46-16.32,26.91-15.54s-25.7,18.04-25.32,18.7c.34.59,27.89-17.01,28.28-16.33.37.64-26.03,19.73-25.58,20.52.36.62,28.84-17.68,29.29-16.91.49.85-27,19.2-26.55,19.98.48.84,28.87-17.48,29.22-16.87.4.69-27.65,19.23-27.26,19.89.51.89,30.07-18.47,30.55-17.64.42.74-29,21.89-28.55,22.65.4.7,32.47-19.62,32.85-18.96.49.85-30.73,22.33-30.34,23,.73,1.27,56.07-34.17,56.85-32.82.83,1.43-59.66,37.66-58.61,39.49.75,1.3,60.29-36.48,61.01-35.23"/>
  </g>
</svg>