<?xml version="1.0" encoding="UTF-8"?><svg id="_ОСНОВА" xmlns="http://www.w3.org/2000/svg" viewBox="0 0 252.33 140.04"><defs><style>.cls-1,.cls-2{fill:none;stroke:#fcf9e8;stroke-miterlimit:10;stroke-width:3px;}.cls-3{font-family:Ubuntu-Medium, Ubuntu;font-size:14.49px;font-weight:500;}.cls-3,.cls-4{fill:#fcf9e8;}.cls-2{stroke-linecap:round;}</style></defs><path class="cls-4" d="m37.85,3c18.89,0,34.26,15.37,34.26,34.26,0,5.35-1.21,10.49-3.59,15.26l-.87,1.74,1.23,1.5,12.49,15.29c.06.08.06.14.06.17,0,.17-.14.3-.3.3h-43.29c-18.89,0-34.26-15.37-34.26-34.26S18.95,3,37.85,3M37.85,0C17.27,0,.58,16.68.58,37.26s16.68,37.26,37.26,37.26h43.29c1.82,0,3.3-1.48,3.3-3.3,0-.72-.24-1.38-.63-1.93h0s-12.6-15.43-12.6-15.43c2.49-5,3.9-10.63,3.9-16.6C75.11,16.68,58.43,0,37.85,0h0Z"/><path class="cls-4" d="m121.83,3c18.89,0,34.26,15.37,34.26,34.26,0,5.35-1.21,10.49-3.59,15.26l-.87,1.74,1.23,1.5,12.5,15.29c.06.08.06.14.06.17,0,.17-.14.3-.3.3h-43.29c-18.89,0-34.26-15.37-34.26-34.26S102.94,3,121.83,3M121.83,0C101.25,0,84.57,16.68,84.57,37.26s16.68,37.26,37.26,37.26h43.29c1.82,0,3.3-1.48,3.3-3.3,0-.72-.24-1.38-.63-1.93h0s-12.6-15.43-12.6-15.43c2.49-5,3.9-10.63,3.9-16.6C159.1,16.68,142.41,0,121.83,0h0Z"/><path class="cls-4" d="m205.57,3c18.89,0,34.26,15.37,34.26,34.26,0,5.35-1.21,10.49-3.59,15.26l-.87,1.74,1.23,1.5,12.49,15.29c.06.08.06.14.06.17,0,.17-.14.3-.3.3h-43.29c-18.89,0-34.26-15.37-34.26-34.26S186.67,3,205.57,3M205.57,0C184.98,0,168.3,16.68,168.3,37.26s16.68,37.26,37.26,37.26h43.29c1.82,0,3.3-1.48,3.3-3.3,0-.72-.24-1.38-.63-1.93h0s-12.6-15.43-12.6-15.43c2.49-5,3.9-10.63,3.9-16.6C242.83,16.68,226.15,0,205.57,0h0Z"/><path class="cls-1" d="m26.79,103.19c.54,6.9-6.66,10.88-13.05,11.16l.43,5.49-10.3,1.28c-.3-3.66-1.34-20.38-1.78-24.32,7.64-2.28,22.9-4.48,24.71,6.38Z"/><path class="cls-1" d="m13.03,107.32c5.76.05,5.3-4.89-.25-3.67.09,1.66.18,2.89.25,3.67Z"/><path class="cls-1" d="m32.79,96.91c2.42-.34,6.84-.79,9.56-.93l.39,12.55c2.33-4.11,4.39-8.07,6.17-11.87,3.02-.31,7.4-.57,10.62-.57.24,9.18.37,17.17.39,23.99-2.9.32-7.33.76-10.3.93-.07-2.97-.12-6.13-.14-9.48-1.6,2.75-3.79,6.76-5.35,9.77-3.27-.3-8.14-.91-11.48-1.57-.57-7.23-1.03-14.76-1.39-22.6l1.53-.21Z"/><path class="cls-1" d="m88.77,107s-.55,0-1.35-.01c-1.47,0-3.79-.01-5.1.05.55,5.63.95,9.95,1.21,12.94-3.42.42-8.28.88-11.59,1.07-.07-4.25-.08-8.72-.04-13.41-2.21.2-5.19.62-7.24,1-.04-3.26.03-7.96.25-11.09,3.26-.26,10.57-.78,21.93-1.57.58,2.49,1.44,7.86,1.78,10.06.09.6.15.96.15.96Z"/><path class="cls-1" d="m124.03,119.8c-3.97.24-7.78.42-11.45.54-.05-1.74-.12-4.43-.21-8.09-1.81,1.85-3.46,3.43-4.96,4.74-1.35-1.69-2.69-3.51-3.99-5.46-.07.67-.21,2.02-.41,4.06s-.35,3.61-.45,4.71c-3.97-.48-7.61-.96-10.91-1.46.17-2.4.39-4.86.66-7.36.27-2.51.61-5.42,1.02-8.74.4-3.32.68-5.59.82-6.83,4.37.33,7.88.74,10.52,1.21,1.14,2.57,2.21,5.13,3.21,7.7,1.47-2.47,2.83-5.04,4.06-7.7,3.95-.45,7.58-.75,10.91-.89.21,3.09.45,7.49.7,13.21.25,5.72.41,9.17.48,10.36Z"/><path class="cls-1" d="m164.36,103.16c.54,6.88-6.65,10.85-13.02,11.13l.43,5.48-10.28,1.28c-.3-3.65-1.33-20.33-1.78-24.26,7.62-2.28,22.85-4.47,24.65,6.37Z"/><path class="cls-1" d="m150.63,107.29c5.75.05,5.28-4.88-.25-3.66.09,1.66.18,2.88.25,3.66Z"/><path class="cls-1" d="m191.28,120.24c-8.35.26-15.81.39-22.37.39-.24-8.42-.39-16.48-.46-24.19,5.83-.45,13.14-.72,21.91-.82-.07,3.49-.23,6.54-.46,9.18-4.67-.28-8.49-.58-11.45-.89,0,.9.01,1.57.04,1.99,2.11.12,3.97.24,5.58.36.09,1.33.2,2.64.32,3.95-1.92.4-3.84.77-5.76,1.1.05.66.08,1.2.11,1.6,3.75-.28,7.55-.66,11.42-1.14.45,2.78.83,5.6,1.14,8.47Z"/><path class="cls-1" d="m209.5,94.88c3.13,0,6.05.34,8.75,1.03.05,10.17-.05,18.58-.28,25.22-2.61,1.09-5.5,2.02-8.68,2.78-.02-2.35-.04-4.83-.04-7.43-2.63.21-5.02-.46-7.17-2.01s-3.84-3.75-5.09-6.6-1.97-6.09-2.19-9.75c3.25-.83,6.25-1.41,9-1.74.45,2.7,1,5.04,1.65,7.01.65,1.97,1.3,3.39,1.96,4.25.65.87,1.27,1.23,1.87,1.09.05-3.72.12-8.34.21-13.84Z"/><path class="cls-1" d="m223.55,96.9c1-.14,2.41-.31,4.25-.5,1.84-.19,3.6-.33,5.28-.43l.39,12.52c2.32-4.1,4.38-8.05,6.15-11.85l1.49-.14c1.02-.09,2.41-.19,4.18-.28s3.41-.14,4.93-.14c.24,9.15.37,17.13.39,23.94l-1.64.18c-1.09.12-2.5.25-4.22.41s-3.2.27-4.43.34c-.07-2.96-.12-6.12-.14-9.46l-.78,1.35c-.52.92-1.23,2.2-2.12,3.82s-1.7,3.15-2.44,4.57l-1.78-.18c-1.19-.12-2.73-.31-4.64-.57-1.91-.26-3.59-.53-5.03-.82-.57-7.21-1.03-14.73-1.39-22.55l1.53-.21Z"/><text class="cls-3" transform="translate(68.62 137.78)"><tspan x="0" y="0">детский логопед</tspan></text><line class="cls-2" x1="2.13" y1="82.62" x2="250.62" y2="82.62"/></svg>