<?xml version="1.0" encoding="UTF-8"?><svg id="_минималка" xmlns="http://www.w3.org/2000/svg" viewBox="0 0 167.72 34.81"><defs><style>.cls-1{fill:#d06c64;stroke:#fcf9e8;stroke-linecap:round;stroke-linejoin:round;stroke-width:1.5px;}.cls-2{fill:#fcf9e8;}</style></defs><path class="cls-2" d="m110.49,1.58c1.07,0,2.06.1,2.95.3.81.18,1.48.54,2.07,1.08.51.47.79,1.07.88,1.88.03.26.02.55-.05.85-.07.31-.22.68-.46,1.09-.24.41-.57.79-.97,1.13-.4.34-.98.65-1.74.94-.78.29-1.7.49-2.73.57l-1.49.12.12,1.49.13,1.65-2.79.35c-.08-1.14-.19-2.73-.32-4.75-.17-2.51-.32-4.56-.45-6.11.44-.11.92-.22,1.43-.31.97-.17,2.06-.27,3.23-.28h.19m-1.69,6.94l1.42-.05c1.67-.06,2.84-.58,3.45-1.52.72-1.06.46-2.32-.66-3.08-.55-.36-1.25-.55-2.07-.55-.35,0-.74.03-1.15.1l-1.33.22.08,1.35c.05.94.1,1.65.14,2.11l.13,1.41M110.49.08c-.07,0-.14,0-.2,0-1.27.01-2.42.11-3.48.3-1.05.19-1.98.42-2.78.7.16,1.62.35,4.06.56,7.29.21,3.24.36,5.35.44,6.33l5.77-.72-.24-3.08c1.17-.09,2.22-.31,3.14-.66.92-.35,1.65-.75,2.18-1.2.53-.45.96-.96,1.29-1.51.33-.55.54-1.07.64-1.54.1-.47.12-.92.07-1.35-.12-1.15-.57-2.08-1.35-2.8-.78-.72-1.7-1.2-2.76-1.44-1-.23-2.1-.34-3.28-.34h0Zm-.32,6.89c-.04-.44-.09-1.13-.14-2.06.33-.05.64-.08.91-.08.53,0,.94.1,1.25.3.41.28.49.61.24.98-.35.53-1.1.82-2.26.86h0Z"/><path class="cls-2" d="m133.01,2.21c.09,3.92.15,7.47.17,10.58-.53.05-1.17.12-1.91.18-.31.03-.61.05-.89.08-.02-1.19-.04-2.44-.05-3.72l-.04-5.51-2.76,4.77-.45.77c-.3.52-.7,1.25-1.2,2.17-.33.6-.63,1.16-.91,1.69-.64-.06-1.5-.17-2.54-.31-.58-.08-1.12-.16-1.62-.24-.24-3.24-.45-6.63-.62-10.1.48-.06,1.1-.13,1.84-.21.46-.05.92-.09,1.36-.13l.17,5.47.17,5.35,2.64-4.65c1.16-2.05,2.21-4.05,3.14-5.98.56-.05,1.33-.1,2.28-.15.42-.02.83-.04,1.23-.05m-8.17-1.58c-.95.05-1.94.13-2.97.24s-1.83.2-2.39.28l-.86.12c.2,4.4.46,8.62.78,12.67.81.16,1.75.31,2.83.46s1.94.25,2.61.32l1,.1c.41-.8.87-1.66,1.37-2.57.5-.91.9-1.63,1.19-2.15l.44-.76c.01,1.88.04,3.65.08,5.32.69-.04,1.52-.1,2.49-.19.97-.09,1.75-.16,2.37-.23l.92-.1c-.01-3.82-.09-8.31-.22-13.45-.85,0-1.78.03-2.77.08-.99.05-1.77.11-2.35.16l-.84.08c-1,2.13-2.15,4.35-3.46,6.65l-.22-7.03h0Z"/><path class="cls-2" d="m146.64,2.21c.08.41.16.86.25,1.33.11.65.21,1.23.29,1.73-.67,0-1.32.02-1.95.05l-1.58.07.15,1.57c.22,2.3.41,4.24.55,5.79-.43.05-.89.09-1.39.14-.78.07-1.45.13-2,.18-.02-1.89-.02-3.87,0-5.89l.02-1.66-1.65.15c-.6.06-1.26.13-1.97.23-.16.02-.31.04-.46.06,0-.31,0-.63.01-.97.02-.84.03-1.54.05-2.09,1.99-.15,5.23-.38,9.67-.69m1.2-1.59c-6.37.44-10.46.73-12.29.88l-.06.96c-.03.63-.05,1.46-.07,2.5s-.02,1.96,0,2.76l.56-.1c.39-.07.92-.15,1.6-.24.68-.09,1.31-.17,1.9-.22-.03,2.62-.02,5.13.02,7.51l1-.06c.67-.05,1.54-.13,2.62-.23,1.08-.1,2.04-.2,2.88-.31-.15-1.68-.37-4.1-.68-7.25.65-.03,1.32-.05,2.01-.05.52,0,1.06,0,1.61.03l-.14-.98c-.09-.67-.23-1.51-.41-2.54-.18-1.03-.36-1.91-.53-2.66h0Z"/><path class="cls-2" d="m152.29,2.19c1.36.12,2.54.26,3.53.41.51,1.17.99,2.35,1.45,3.51l1.11,2.86,1.57-2.64c.71-1.18,1.37-2.42,1.99-3.68,1.3-.14,2.54-.25,3.72-.32.09,1.56.19,3.53.29,5.89.08,1.84.15,3.3.19,4.33-1.16.06-2.29.12-3.38.16-.02-.83-.05-1.83-.08-3.02l-.09-3.56-2.48,2.55c-.53.54-1.03,1.04-1.51,1.5-.4-.54-.8-1.1-1.18-1.68l-2.3-3.43-.44,4.1c-.04.38-.12,1.14-.23,2.29-.04.4-.08.77-.11,1.11-1.1-.14-2.16-.28-3.16-.42.07-.88.16-1.78.26-2.68.15-1.4.34-3.03.57-4.88.12-.95.21-1.75.29-2.39m-1.32-1.61c-.08.69-.23,1.97-.46,3.83-.23,1.86-.42,3.49-.57,4.9-.15,1.41-.28,2.78-.37,4.13,1.85.28,3.89.55,6.11.82.05-.61.14-1.49.25-2.64.11-1.15.19-1.91.23-2.28.73,1.09,1.48,2.11,2.24,3.06.84-.73,1.76-1.62,2.78-2.66.05,2.05.09,3.56.12,4.54,2.05-.07,4.19-.17,6.41-.3-.04-.67-.13-2.6-.27-5.8-.14-3.2-.27-5.67-.39-7.4-1.87.08-3.9.25-6.11.5-.69,1.49-1.45,2.93-2.28,4.32-.56-1.44-1.16-2.88-1.8-4.32-1.48-.27-3.44-.49-5.89-.68h0Z"/><path class="cls-2" d="m110.49,20.08c1.07,0,2.06.1,2.95.3.81.18,1.48.54,2.07,1.08.51.47.79,1.07.88,1.88.03.26.02.55-.05.85-.07.31-.22.68-.46,1.09-.24.41-.57.79-.97,1.13-.4.34-.98.65-1.74.94-.78.29-1.7.49-2.73.57l-1.49.12.12,1.49.13,1.65-2.79.35c-.08-1.14-.19-2.73-.32-4.75-.17-2.51-.32-4.56-.45-6.11.44-.11.92-.22,1.43-.31.97-.17,2.06-.27,3.23-.28h.19m-1.69,6.94l1.42-.05c1.67-.06,2.84-.58,3.45-1.52.72-1.06.46-2.32-.66-3.08-.55-.36-1.25-.55-2.07-.55-.35,0-.74.03-1.15.1l-1.33.22.08,1.35c.05.94.1,1.65.14,2.11l.13,1.41m1.69-8.44c-.07,0-.14,0-.2,0-1.27.01-2.42.11-3.48.3-1.05.19-1.98.42-2.78.7.16,1.62.35,4.06.56,7.29.21,3.24.36,5.35.44,6.33l5.77-.72-.24-3.08c1.17-.09,2.22-.31,3.14-.66.92-.35,1.65-.75,2.18-1.2.53-.45.96-.96,1.29-1.51.33-.55.54-1.07.64-1.54.1-.47.12-.92.07-1.35-.12-1.15-.57-2.08-1.35-2.8-.78-.72-1.7-1.2-2.76-1.44-1-.23-2.1-.34-3.28-.34h0Zm-.32,6.89c-.04-.44-.09-1.13-.14-2.06.33-.05.64-.08.91-.08.53,0,.94.1,1.25.3.41.28.49.61.24.98-.35.53-1.1.82-2.26.86h0Z"/><path class="cls-2" d="m129.39,20.44c-.03.72-.06,1.4-.1,2.04-1.93-.13-3.57-.26-4.9-.4l-1.65-.17v1.66c0,.55,0,.94.02,1.2l.08,1.34,1.34.07c.07,0,.13,0,.2.01-.1.02-.19.03-.29.05l-1.34.23.1,1.35c.03.36.05.66.06.88l.09,1.52,1.52-.12c1.65-.13,3.34-.29,5.04-.48.08.55.15,1.09.22,1.65-3.42.1-6.58.15-9.43.17-.1-3.67-.17-7.25-.2-10.69,2.61-.17,5.71-.28,9.25-.34m1.54-1.52c-4.93.05-9.03.21-12.31.46.04,4.33.13,8.86.26,13.59,3.69,0,7.88-.07,12.57-.22-.17-1.61-.39-3.2-.64-4.76-2.17.27-4.31.48-6.41.64-.01-.23-.03-.53-.06-.9,1.08-.19,2.16-.39,3.24-.62-.07-.73-.13-1.47-.18-2.22-.91-.07-1.95-.13-3.14-.2-.01-.24-.02-.61-.02-1.12,1.67.17,3.81.34,6.43.5.13-1.48.22-3.2.26-5.16h0Z"/><path class="cls-2" d="m141.68,20.05c.67.05,1.32.13,1.95.24.01,4.65-.03,8.65-.13,11.92-.61.23-1.25.44-1.92.64,0-.72,0-1.46,0-2.23v-1.63l-1.62.13c-.14.01-.27.02-.41.02-.96,0-1.81-.28-2.62-.87-.98-.71-1.78-1.75-2.36-3.09-.48-1.1-.81-2.35-.99-3.72.77-.18,1.52-.32,2.23-.44.21,1,.45,1.91.72,2.72.42,1.27.86,2.2,1.32,2.82.61.81,1.32,1.22,2.11,1.22.17,0,.33-.02.49-.06l1.14-.27v-1.17c.04-1.74.07-3.82.11-6.24m-1.47-1.55c-.05,3.09-.09,5.68-.12,7.77-.05.01-.09.02-.14.02-.29,0-.59-.21-.91-.63-.37-.49-.73-1.28-1.1-2.39-.37-1.11-.68-2.42-.93-3.94-1.55.19-3.23.51-5.06.98.12,2.05.53,3.88,1.23,5.47s1.65,2.83,2.86,3.71c1.06.77,2.23,1.15,3.5,1.15.17,0,.35,0,.53-.02,0,1.47,0,2.86.02,4.18,1.78-.43,3.41-.95,4.88-1.56.13-3.73.19-8.45.16-14.17-1.52-.39-3.16-.58-4.92-.58h0Z"/><path class="cls-2" d="m160.2,20.71c.09,3.92.15,7.47.17,10.58-.53.05-1.17.12-1.91.18-.31.03-.61.05-.89.08-.02-1.19-.04-2.44-.05-3.72l-.04-5.51-2.76,4.77-.45.77c-.3.52-.7,1.25-1.2,2.17-.33.6-.63,1.16-.91,1.69-.64-.06-1.5-.17-2.54-.31-.58-.08-1.12-.16-1.62-.24-.24-3.24-.45-6.63-.62-10.1.48-.06,1.1-.13,1.84-.21.46-.05.92-.09,1.36-.13l.17,5.47.17,5.35,2.64-4.65c1.16-2.05,2.21-4.05,3.14-5.98.56-.05,1.33-.1,2.28-.15.42-.02.83-.04,1.23-.05m-8.17-1.58c-.95.05-1.94.13-2.97.24s-1.83.2-2.39.28l-.86.12c.2,4.4.46,8.62.78,12.67.81.16,1.75.31,2.83.46s1.94.25,2.61.32l1,.1c.41-.8.87-1.66,1.37-2.57.5-.91.9-1.63,1.19-2.15l.44-.76c.01,1.88.04,3.65.08,5.32.69-.04,1.52-.1,2.49-.19.97-.09,1.75-.16,2.37-.23l.92-.1c-.01-3.82-.09-8.31-.22-13.45-.85,0-1.78.03-2.77.08-.99.05-1.77.11-2.35.16l-.84.08c-1,2.13-2.15,4.35-3.46,6.65l-.22-7.03h0Z"/><path class="cls-2" d="m15.12,1.71c7.33,0,13.28,5.96,13.28,13.28,0,2.08-.47,4.07-1.39,5.92l-.43.87.61.75,4.7,5.75H15.12c-7.33,0-13.28-5.96-13.28-13.28S7.79,1.71,15.12,1.71m0-1.5C6.95.21.33,6.83.33,14.99s6.62,14.78,14.78,14.78h17.17c.72,0,1.31-.59,1.31-1.31,0-.29-.09-.55-.25-.76h0s-5-6.12-5-6.12c.99-1.98,1.55-4.22,1.55-6.59C29.9,6.83,23.28.21,15.12.21h0Z"/><path class="cls-2" d="m48.44,1.71c7.33,0,13.28,5.96,13.28,13.28,0,2.08-.47,4.07-1.39,5.92l-.43.87.61.75,4.7,5.75h-16.77c-7.33,0-13.28-5.96-13.28-13.28S41.11,1.71,48.44,1.71m0-1.5c-8.17,0-14.78,6.62-14.78,14.78s6.62,14.78,14.78,14.78h17.17c.72,0,1.31-.59,1.31-1.31,0-.29-.09-.55-.25-.76h0s-5-6.12-5-6.12c.99-1.98,1.55-4.22,1.55-6.59C63.22,6.83,56.6.21,48.44.21h0Z"/><path class="cls-2" d="m81.66,1.71c7.33,0,13.28,5.96,13.28,13.28,0,2.08-.47,4.07-1.39,5.92l-.43.87.61.75,4.7,5.75h-16.77c-7.33,0-13.28-5.96-13.28-13.28s5.96-13.28,13.28-13.28m0-1.5c-8.17,0-14.78,6.62-14.78,14.78s6.62,14.78,14.78,14.78h17.17c.72,0,1.31-.59,1.31-1.31,0-.29-.09-.55-.25-.76h0s-5-6.12-5-6.12c.99-1.98,1.55-4.22,1.55-6.59,0-8.17-6.62-14.78-14.78-14.78h0Z"/><line class="cls-1" x1=".96" y1="32.76" x2="99.54" y2="32.76"/></svg>