<?xml version="1.0" encoding="UTF-8"?><svg id="_ОСНОВА" xmlns="http://www.w3.org/2000/svg" viewBox="0 0 252.33 140.04"><defs><style>.cls-1{fill:#fcf9e8;}.cls-2{fill:none;stroke:#fcf9e8;stroke-linecap:round;stroke-miterlimit:10;stroke-width:3px;}</style></defs><path class="cls-1" d="m83.81,69.35h0s-12.6-15.43-12.6-15.43c2.49-5,3.9-10.63,3.9-16.6C75.11,16.74,58.42.06,37.84.06S.58,16.74.58,37.32s16.68,37.26,37.26,37.26h43.29c1.82,0,3.3-1.48,3.3-3.3,0-.72-.24-1.38-.63-1.93Z"/><path class="cls-1" d="m167.79,69.35h0s-12.6-15.43-12.6-15.43c2.49-5,3.9-10.63,3.9-16.6C159.09,16.74,142.41.06,121.83.06s-37.26,16.68-37.26,37.26,16.68,37.26,37.26,37.26h43.29c1.82,0,3.3-1.48,3.3-3.3,0-.72-.24-1.38-.63-1.93Z"/><path class="cls-1" d="m251.52,69.35h0s-12.6-15.43-12.6-15.43c2.49-5,3.9-10.63,3.9-16.6C242.82,16.74,226.14.06,205.56.06s-37.26,16.68-37.26,37.26,16.68,37.26,37.26,37.26h43.29c1.82,0,3.3-1.48,3.3-3.3,0-.72-.24-1.38-.63-1.93Z"/><path class="cls-1" d="m27.93,102.4c.1.84.06,1.73-.14,2.66s-.62,1.94-1.26,3.03c-.64,1.09-1.49,2.08-2.54,2.97-1.05.89-2.48,1.68-4.29,2.36-1.81.68-3.87,1.12-6.18,1.3l.47,6.06-11.37,1.42c-.16-1.94-.45-6.1-.87-12.47-.42-6.37-.79-11.16-1.1-14.36,1.57-.55,3.4-1.01,5.47-1.38,2.07-.37,4.35-.56,6.85-.59,2.49-.03,4.78.2,6.87.67,2.08.47,3.89,1.42,5.43,2.83,1.53,1.42,2.42,3.25,2.66,5.51Zm-15.19,4.56c2.28-.08,3.76-.64,4.45-1.69.5-.73.34-1.38-.47-1.93-.92-.6-2.33-.75-4.25-.43.1,1.84.2,3.19.28,4.05Z"/><path class="cls-1" d="m31.07,95.47c1.1-.16,2.67-.34,4.7-.55,2.03-.21,3.98-.37,5.84-.47l.43,13.85c2.57-4.54,4.84-8.9,6.81-13.1l1.65-.16c1.13-.1,2.67-.21,4.62-.31,1.95-.1,3.77-.16,5.45-.16.26,10.12.41,18.95.43,26.48l-1.81.2c-1.21.13-2.76.28-4.66.45-1.9.17-3.53.29-4.9.37-.08-3.28-.13-6.77-.16-10.46l-.87,1.5c-.58,1.02-1.36,2.43-2.34,4.23s-1.88,3.48-2.69,5.05l-1.97-.2c-1.31-.13-3.02-.34-5.13-.63-2.11-.29-3.97-.59-5.57-.9-.63-7.97-1.14-16.29-1.53-24.94l1.69-.24Z"/><path class="cls-1" d="m89.02,106.61c-2.52-.08-4.89-.07-7.12.04.6,6.22,1.05,10.98,1.34,14.28-1.65.21-3.54.41-5.67.61-2.12.2-3.84.35-5.15.45l-1.97.12c-.08-4.69-.09-9.62-.04-14.79-1.15.11-2.4.25-3.74.43-1.34.18-2.39.34-3.15.47l-1.1.2c-.03-1.57-.02-3.38.02-5.43.04-2.05.08-3.68.14-4.92l.12-1.89c3.59-.29,11.66-.87,24.19-1.73.34,1.47.69,3.21,1.04,5.23s.62,3.68.81,5l.28,1.93Z"/><path class="cls-1" d="m126.04,120.73c-4.38.26-8.59.46-12.63.59-.05-1.92-.13-4.89-.24-8.93-1.99,2.05-3.82,3.79-5.47,5.23-1.5-1.86-2.96-3.87-4.41-6.02-.08.73-.23,2.23-.45,4.49-.22,2.26-.39,3.99-.49,5.19-4.38-.52-8.39-1.06-12.04-1.61.18-2.65.43-5.36.73-8.12.3-2.77.68-5.98,1.12-9.64.45-3.66.75-6.17.9-7.53,4.83.37,8.69.81,11.61,1.34,1.26,2.83,2.44,5.67,3.54,8.5,1.63-2.73,3.12-5.56,4.48-8.5,4.35-.5,8.37-.83,12.04-.98.24,3.41.49,8.27.77,14.58.28,6.31.45,10.12.53,11.43Z"/><path class="cls-1" d="m165.58,102.4c.1.84.06,1.73-.14,2.66s-.62,1.94-1.26,3.03c-.64,1.09-1.49,2.08-2.54,2.97-1.05.89-2.48,1.68-4.29,2.36-1.81.68-3.87,1.12-6.18,1.3l.47,6.06-11.37,1.42c-.16-1.94-.45-6.1-.87-12.47-.42-6.37-.79-11.16-1.1-14.36,1.57-.55,3.4-1.01,5.47-1.38,2.07-.37,4.35-.56,6.85-.59,2.49-.03,4.78.2,6.87.67,2.08.47,3.89,1.42,5.43,2.83,1.53,1.42,2.42,3.25,2.66,5.51Zm-15.19,4.56c2.28-.08,3.76-.64,4.45-1.69.5-.73.34-1.38-.47-1.93-.92-.6-2.33-.75-4.25-.43.1,1.84.2,3.19.28,4.05Z"/><path class="cls-1" d="m192.29,121.28c-9.23.29-17.48.43-24.75.43-.26-9.31-.43-18.23-.51-26.75,6.45-.5,14.53-.8,24.23-.9-.08,3.86-.25,7.24-.51,10.15-5.17-.31-9.39-.64-12.67-.98,0,1,.01,1.73.04,2.2,2.33.13,4.39.26,6.18.39.1,1.47.22,2.92.35,4.37-2.12.45-4.25.85-6.37,1.22.05.73.09,1.32.12,1.77,4.14-.31,8.35-.73,12.63-1.26.5,3.07.92,6.19,1.26,9.36Z"/><path class="cls-1" d="m209.52,93.23c3.46,0,6.69.38,9.68,1.14.05,11.25-.05,20.55-.31,27.89-2.89,1.21-6.08,2.23-9.6,3.07-.03-2.6-.04-5.34-.04-8.22-2.91.24-5.55-.5-7.93-2.22-2.37-1.72-4.25-4.15-5.63-7.3s-2.18-6.74-2.42-10.78c3.59-.92,6.91-1.56,9.95-1.93.5,2.99,1.11,5.57,1.83,7.75.72,2.18,1.44,3.74,2.16,4.7.72.96,1.41,1.36,2.07,1.2.05-4.12.13-9.22.24-15.3Z"/><path class="cls-1" d="m222.27,95.47c1.1-.16,2.67-.34,4.7-.55,2.03-.21,3.98-.37,5.84-.47l.43,13.85c2.57-4.54,4.84-8.9,6.81-13.1l1.65-.16c1.13-.1,2.67-.21,4.62-.31,1.95-.1,3.77-.16,5.45-.16.26,10.12.41,18.95.43,26.48l-1.81.2c-1.21.13-2.76.28-4.66.45-1.9.17-3.53.29-4.9.37-.08-3.28-.13-6.77-.16-10.46l-.87,1.5c-.58,1.02-1.36,2.43-2.34,4.23s-1.88,3.48-2.69,5.05l-1.97-.2c-1.31-.13-3.02-.34-5.13-.63-2.11-.29-3.97-.59-5.57-.9-.63-7.97-1.14-16.29-1.53-24.94l1.69-.24Z"/><line class="cls-2" x1="2.12" y1="82.68" x2="250.61" y2="82.68"/><path class="cls-1" d="m68.8,136.35h.87c.3-.4.53-.84.7-1.33.17-.49.29-1,.37-1.54.08-.54.12-1.08.14-1.64s.03-1.11.04-1.64h5.44v6.15h1.16v3.58h-1.57v-2.15h-5.61v2.15h-1.55v-3.58Zm5.81,0v-4.7h-2.06c-.02.4-.04.8-.07,1.21-.03.41-.08.82-.16,1.22-.08.4-.18.79-.31,1.17s-.3.75-.51,1.09h3.12Z"/><path class="cls-1" d="m78.49,134.03c0-.67.1-1.25.3-1.75.2-.5.46-.92.79-1.25.33-.33.71-.58,1.13-.75.43-.17.86-.25,1.3-.25,1.04,0,1.86.32,2.44.97.58.65.88,1.61.88,2.9,0,.1,0,.21,0,.33,0,.12-.01.23-.02.33h-5c.05.61.26,1.08.65,1.41.38.33.94.5,1.66.5.43,0,.81-.04,1.17-.12.35-.08.63-.16.83-.25l.23,1.44c-.1.05-.23.1-.4.15-.17.05-.36.1-.58.14-.22.04-.45.08-.7.11-.25.03-.51.04-.77.04-.67,0-1.25-.1-1.74-.3-.49-.2-.9-.47-1.22-.83s-.56-.77-.71-1.25c-.15-.48-.23-1-.23-1.57Zm5.09-.78c0-.24-.03-.47-.1-.69-.07-.22-.17-.41-.3-.56-.13-.16-.29-.29-.48-.38s-.41-.14-.67-.14-.51.05-.71.15c-.2.1-.37.23-.51.4s-.25.35-.33.57c-.08.21-.13.43-.16.65h3.26Z"/><path class="cls-1" d="m92.89,131.67h-2.45v6.12h-1.75v-6.12h-2.44v-1.46h6.64v1.46Z"/><path class="cls-1" d="m93.78,134c0-.56.09-1.08.26-1.57s.42-.91.75-1.27.72-.64,1.18-.84c.46-.2.99-.3,1.57-.3.71,0,1.39.13,2.03.39l-.38,1.44c-.2-.09-.43-.16-.69-.22-.26-.06-.53-.09-.82-.09-.69,0-1.21.21-1.57.65-.36.43-.54,1.04-.54,1.82s.17,1.35.51,1.79c.34.44.91.66,1.71.66.3,0,.59-.03.88-.09.29-.06.54-.13.75-.22l.25,1.45c-.19.1-.49.18-.88.26-.39.08-.79.12-1.21.12-.65,0-1.21-.1-1.69-.3-.48-.2-.88-.47-1.19-.83s-.55-.77-.7-1.26c-.15-.49-.23-1.02-.23-1.59Z"/><path class="cls-1" d="m102.79,133.25c.22-.22.46-.47.73-.75.26-.28.52-.55.78-.83.26-.28.5-.55.73-.8s.42-.48.58-.66h2.06c-.21.25-.46.53-.73.83-.28.3-.56.61-.85.92-.29.31-.58.62-.87.91-.29.29-.54.56-.78.79.3.25.61.54.93.88s.64.69.96,1.06c.31.37.61.75.88,1.13s.5.74.68,1.07h-2.03c-.18-.29-.4-.59-.65-.91-.25-.32-.5-.63-.78-.93-.27-.3-.55-.59-.83-.86-.28-.27-.55-.5-.81-.7v3.41h-1.75v-7.58h1.75v3.04Z"/><path class="cls-1" d="m115.79,130.2v7.58h-1.74c0-.55,0-1.1,0-1.64,0-.54,0-1.04.01-1.51s0-.87.01-1.21,0-.6,0-.76c-.29.38-.59.79-.9,1.25-.31.45-.62.91-.92,1.36-.3.46-.59.9-.86,1.33s-.51.83-.71,1.17h-1.55v-7.58h1.72c0,.56,0,1.09,0,1.6,0,.51,0,.97,0,1.38s0,.78,0,1.09c0,.31,0,.55,0,.71.27-.42.55-.84.84-1.28.29-.44.58-.87.88-1.29s.59-.82.88-1.2c.29-.38.57-.72.84-1.01h1.51Z"/><path class="cls-1" d="m124.66,130.2v7.58h-1.74c0-.55,0-1.1,0-1.64,0-.54,0-1.04.01-1.51s0-.87.01-1.21,0-.6,0-.76c-.29.38-.59.79-.9,1.25-.31.45-.62.91-.92,1.36-.3.46-.59.9-.86,1.33s-.51.83-.71,1.17h-1.55v-7.58h1.72c0,.56,0,1.09,0,1.6,0,.51,0,.97,0,1.38s0,.78,0,1.09c0,.31,0,.55,0,.71.27-.42.55-.84.84-1.28.29-.44.58-.87.88-1.29s.59-.82.88-1.2c.29-.38.57-.72.84-1.01h1.51Zm-3.32-1.13c-.31,0-.6-.04-.86-.13s-.5-.21-.72-.38c-.21-.17-.39-.37-.52-.6-.14-.24-.22-.5-.25-.8l1.26-.33c.16.69.53,1.03,1.09,1.03s.93-.34,1.09-1.01l1.25.33c-.04.3-.12.57-.25.8-.13.24-.3.44-.51.59-.21.16-.45.28-.72.37-.27.09-.56.13-.86.13Z"/><path class="cls-1" d="m133.24,131.65c0,.42-.02.87-.04,1.33-.02.46-.07.91-.14,1.36-.07.44-.19.87-.34,1.28-.15.41-.37.77-.65,1.09-.28.32-.62.59-1.03.81-.41.22-.91.36-1.5.41l-.25-1.46c.49-.1.87-.25,1.15-.47s.48-.5.62-.83c.12-.25.21-.54.27-.86.06-.32.11-.65.15-1.01.03-.35.06-.71.07-1.08,0-.37.01-.72.01-1.07v-.94h5.36v7.58h-1.75v-6.13h-1.93Z"/><path class="cls-1" d="m146.01,133.98c0,.6-.09,1.15-.26,1.64-.17.49-.42.91-.74,1.26s-.7.62-1.15.81-.94.29-1.49.29-1.03-.1-1.48-.29c-.44-.19-.83-.46-1.15-.81s-.57-.77-.75-1.26c-.18-.49-.27-1.04-.27-1.64s.09-1.14.27-1.63c.18-.49.43-.91.75-1.25.32-.35.71-.62,1.15-.8s.93-.28,1.46-.28,1.02.09,1.47.28c.45.19.83.46,1.15.8s.57.77.75,1.25c.18.49.27,1.03.27,1.63Zm-1.8,0c0-.75-.16-1.35-.49-1.79-.32-.44-.78-.66-1.35-.66s-1.03.22-1.36.66c-.32.44-.49,1.04-.49,1.79s.16,1.37.49,1.81.78.67,1.36.67,1.03-.22,1.35-.67.49-1.05.49-1.81Z"/><path class="cls-1" d="m152.85,131.65h-3.28v6.13h-1.75v-7.58h5.03v1.45Z"/><path class="cls-1" d="m161.01,133.98c0,.6-.09,1.15-.26,1.64-.17.49-.42.91-.74,1.26s-.7.62-1.15.81-.94.29-1.49.29-1.03-.1-1.48-.29c-.44-.19-.83-.46-1.15-.81s-.57-.77-.75-1.26c-.18-.49-.27-1.04-.27-1.64s.09-1.14.27-1.63c.18-.49.43-.91.75-1.25.32-.35.71-.62,1.15-.8s.93-.28,1.46-.28,1.02.09,1.47.28c.45.19.83.46,1.15.8s.57.77.75,1.25c.18.49.27,1.03.27,1.63Zm-1.8,0c0-.75-.16-1.35-.49-1.79-.32-.44-.78-.66-1.35-.66s-1.03.22-1.36.66c-.32.44-.49,1.04-.49,1.79s.16,1.37.49,1.81.78.67,1.36.67,1.03-.22,1.35-.67.49-1.05.49-1.81Z"/><path class="cls-1" d="m169.13,130.2v7.58h-1.75v-6.12h-2.8v6.12h-1.75v-7.58h6.3Z"/><path class="cls-1" d="m170.94,134.03c0-.67.1-1.25.3-1.75.2-.5.46-.92.79-1.25.33-.33.71-.58,1.13-.75.43-.17.86-.25,1.3-.25,1.04,0,1.86.32,2.44.97.58.65.88,1.61.88,2.9,0,.1,0,.21,0,.33,0,.12-.01.23-.02.33h-5c.05.61.26,1.08.65,1.41.38.33.94.5,1.66.5.43,0,.81-.04,1.17-.12.35-.08.63-.16.83-.25l.23,1.44c-.1.05-.23.1-.4.15-.17.05-.36.1-.58.14-.22.04-.45.08-.7.11-.25.03-.51.04-.77.04-.67,0-1.25-.1-1.74-.3-.49-.2-.9-.47-1.22-.83s-.56-.77-.71-1.25c-.15-.48-.23-1-.23-1.57Zm5.09-.78c0-.24-.03-.47-.1-.69-.07-.22-.17-.41-.3-.56-.13-.16-.29-.29-.48-.38s-.41-.14-.67-.14-.51.05-.71.15c-.2.1-.37.23-.51.4s-.25.35-.33.57c-.08.21-.13.43-.16.65h3.26Z"/><path class="cls-1" d="m178.71,136.35h.87c.3-.4.53-.84.7-1.33.17-.49.29-1,.37-1.54.08-.54.12-1.08.14-1.64s.03-1.11.04-1.64h5.44v6.15h1.16v3.58h-1.57v-2.15h-5.61v2.15h-1.55v-3.58Zm5.81,0v-4.7h-2.06c-.02.4-.04.8-.07,1.21-.03.41-.08.82-.16,1.22-.08.4-.18.79-.31,1.17s-.3.75-.51,1.09h3.12Z"/></svg>