<?xml version="1.0" encoding="UTF-8"?><svg id="_минималка" xmlns="http://www.w3.org/2000/svg" viewBox="0 0 167.72 34.81"><defs><style>.cls-1{fill:#d06c64;stroke:#fcf9e8;stroke-linecap:round;stroke-linejoin:round;stroke-width:1.5px;}.cls-2{fill:#fcf9e8;}</style></defs><path class="cls-2" d="m117.88,4.66c.05.43.03.88-.07,1.35-.1.47-.31.99-.64,1.54-.33.55-.76,1.06-1.29,1.51-.53.45-1.26.85-2.18,1.2-.92.35-1.96.57-3.14.66l.24,3.08-5.77.72c-.08-.99-.23-3.1-.44-6.33-.21-3.24-.4-5.67-.56-7.29.8-.28,1.72-.51,2.78-.7,1.05-.19,2.21-.29,3.48-.3,1.27-.01,2.43.1,3.49.34,1.06.24,1.98.72,2.76,1.44.78.72,1.23,1.65,1.35,2.8Zm-7.71,2.32c1.16-.04,1.91-.33,2.26-.86.25-.37.17-.7-.24-.98-.47-.31-1.19-.38-2.16-.22.05.93.1,1.62.14,2.06Z"/><path class="cls-2" d="m119.48,1.14c.56-.08,1.36-.17,2.39-.28s2.02-.19,2.97-.24l.22,7.03c1.31-2.3,2.46-4.52,3.46-6.65l.84-.08c.57-.05,1.36-.11,2.35-.16.99-.05,1.92-.08,2.77-.08.13,5.14.21,9.62.22,13.45l-.92.1c-.61.07-1.4.14-2.37.23-.97.09-1.8.15-2.49.19-.04-1.67-.07-3.44-.08-5.32l-.44.76c-.29.52-.69,1.24-1.19,2.15-.5.91-.96,1.77-1.37,2.57l-1-.1c-.67-.07-1.54-.17-2.61-.32s-2.02-.3-2.83-.46c-.32-4.05-.58-8.27-.78-12.67l.86-.12Z"/><path class="cls-2" d="m148.91,6.8c-1.28-.04-2.48-.03-3.62.02.31,3.16.53,5.58.68,7.25-.84.11-1.8.21-2.88.31-1.08.1-1.95.18-2.62.23l-1,.06c-.04-2.38-.05-4.89-.02-7.51-.59.05-1.22.13-1.9.22-.68.09-1.21.17-1.6.24l-.56.1c-.01-.8-.01-1.72,0-2.76s.04-1.87.07-2.5l.06-.96c1.83-.15,5.92-.44,12.29-.88.17.75.35,1.63.53,2.66.18,1.03.32,1.87.41,2.54l.14.98Z"/><path class="cls-2" d="m167.72,13.97c-2.22.13-4.36.23-6.41.3-.03-.97-.07-2.48-.12-4.54-1.01,1.04-1.94,1.93-2.78,2.66-.76-.95-1.51-1.96-2.24-3.06-.04.37-.12,1.13-.23,2.28-.11,1.15-.2,2.02-.25,2.64-2.22-.27-4.26-.54-6.11-.82.09-1.35.22-2.72.37-4.13.15-1.41.34-3.04.57-4.9.23-1.86.38-3.13.46-3.83,2.45.19,4.42.41,5.89.68.64,1.44,1.24,2.88,1.8,4.32.83-1.38,1.58-2.82,2.28-4.32,2.21-.25,4.25-.42,6.11-.5.12,1.73.25,4.2.39,7.4.14,3.2.23,5.14.27,5.8Z"/><path class="cls-2" d="m117.88,23.16c.05.43.03.88-.07,1.35-.1.47-.31.99-.64,1.54-.33.55-.76,1.06-1.29,1.51-.53.45-1.26.85-2.18,1.2-.92.35-1.96.57-3.14.66l.24,3.08-5.77.72c-.08-.99-.23-3.1-.44-6.33-.21-3.24-.4-5.67-.56-7.29.8-.28,1.72-.51,2.78-.7,1.05-.19,2.21-.29,3.48-.3,1.27-.01,2.43.1,3.49.34,1.06.24,1.98.72,2.76,1.44.78.72,1.23,1.65,1.35,2.8Zm-7.71,2.32c1.16-.04,1.91-.33,2.26-.86.25-.37.17-.7-.24-.98-.47-.31-1.19-.38-2.16-.22.05.93.1,1.62.14,2.06Z"/><path class="cls-2" d="m131.45,32.75c-4.69.15-8.88.22-12.57.22-.13-4.73-.22-9.26-.26-13.59,3.28-.25,7.38-.41,12.31-.46-.04,1.96-.13,3.68-.26,5.16-2.62-.16-4.77-.33-6.43-.5,0,.51,0,.88.02,1.12,1.19.07,2.23.13,3.14.2.05.75.11,1.49.18,2.22-1.08.23-2.16.43-3.24.62.03.37.05.67.06.9,2.1-.16,4.24-.37,6.41-.64.25,1.56.47,3.14.64,4.76Z"/><path class="cls-2" d="m140.2,18.5c1.76,0,3.4.19,4.92.58.03,5.71-.03,10.44-.16,14.17-1.47.61-3.09,1.13-4.88,1.56-.01-1.32-.02-2.71-.02-4.18-1.48.12-2.82-.26-4.03-1.13-1.21-.87-2.16-2.11-2.86-3.71s-1.11-3.42-1.23-5.47c1.83-.47,3.51-.79,5.06-.98.25,1.52.56,2.83.93,3.94.37,1.11.73,1.9,1.1,2.39s.72.69,1.05.61c.03-2.09.07-4.68.12-7.77Z"/><path class="cls-2" d="m146.68,19.64c.56-.08,1.36-.17,2.39-.28s2.02-.19,2.97-.24l.22,7.03c1.31-2.3,2.46-4.52,3.46-6.65l.84-.08c.57-.05,1.36-.11,2.35-.16.99-.05,1.92-.08,2.77-.08.13,5.14.21,9.62.22,13.45l-.92.1c-.61.07-1.4.14-2.37.23-.97.09-1.8.15-2.49.19-.04-1.67-.07-3.44-.08-5.32l-.44.76c-.29.52-.69,1.24-1.19,2.15-.5.91-.96,1.77-1.37,2.57l-1-.1c-.67-.07-1.54-.17-2.61-.32s-2.02-.3-2.83-.46c-.32-4.05-.58-8.27-.78-12.67l.86-.12Z"/><path class="cls-2" d="m33.35,27.7h0s-5-6.12-5-6.12c.99-1.98,1.55-4.22,1.55-6.59C29.9,6.83,23.28.21,15.12.21S.33,6.83.33,14.99s6.62,14.78,14.78,14.78h17.17c.72,0,1.31-.59,1.31-1.31,0-.29-.09-.55-.25-.76Z"/><path class="cls-2" d="m66.67,27.7h0s-5-6.12-5-6.12c.99-1.98,1.55-4.22,1.55-6.59C63.22,6.83,56.6.21,48.44.21s-14.78,6.62-14.78,14.78,6.62,14.78,14.78,14.78h17.17c.72,0,1.31-.59,1.31-1.31,0-.29-.09-.55-.25-.76Z"/><path class="cls-2" d="m99.89,27.7h0s-5-6.12-5-6.12c.99-1.98,1.55-4.22,1.55-6.59,0-8.17-6.62-14.78-14.78-14.78s-14.78,6.62-14.78,14.78,6.62,14.78,14.78,14.78h17.17c.72,0,1.31-.59,1.31-1.31,0-.29-.09-.55-.25-.76Z"/><line class="cls-1" x1=".96" y1="32.76" x2="99.54" y2="32.76"/></svg>