<?xml version="1.0" encoding="UTF-8"?>
<svg id="_клякса_4" data-name="клякса 4" xmlns="http://www.w3.org/2000/svg" viewBox="0 0 234.29 252.48">
  <defs>
    <style>
      .cls-1 {
        stroke-miterlimit: 10;
      }

      .cls-1, .cls-2 {
        fill: none;
        stroke: #9bc4f8;
      }

      .cls-2 {
        stroke-linecap: round;
        stroke-linejoin: round;
        stroke-width: 1.2px;
      }
    </style>
  </defs>
  <path class="cls-1" d="m6.15,91.22s-12.09-12.42,9.15-14.71c21.24-2.29,56.54-3.92,59.48-10.79,2.94-6.86.98-17.98,22.22-20.92,21.24-2.94,38.57-46.74,57.19-42.81,18.63,3.92,6.86,40.61,16.34,44.49,9.48,3.88,18.96,6.82,15.69,18.26-3.27,11.44-6.21,24.19,2.94,29.74,9.15,5.56,6.21,8.5,4.25,23.86s4.58,21.9,13.73,28.11c9.15,6.21,27.78,28.43,27.13,34.97-.65,6.54-1.31,11.11-19.61,18.96s-12.09,21.24-32.03,22.55-34.32,9.48-46.41,2.61-18.96,6.54-26.47,15.69-10.13-10.46-16.67-16.67c-6.54-6.21-23.2,3.92-31.7,16.34-8.5,12.42-33.34,20.92-34.97-13.73s.33-33.99-11.77-41.83c-12.09-7.84-3.35-20.59-10.13-30.72-6.78-10.13-7.84-19.21,10.46-27.75,18.3-8.53,14.05-11.47-8.82-35.66Z"/>
  <g>
    <path class="cls-2" d="m126.7,224.13c1.5,2.6,98.64-59.95,99.94-57.7s-93.81,55.82-92.35,58.37c1.58,2.73,93.05-57.43,94.65-54.65,1.41,2.43-91.25,55.04-90.13,56.97,1.2,2.07,91.42-56.26,92.93-53.65,1.17,2.03-86.94,52.77-85.92,54.54,1.09,1.88,86.73-52.69,87.86-50.73,1.02,1.76-78.05,47.79-76.89,49.79,1.02,1.77,76.78-46.44,77.7-44.86s-64.18,40.22-63.14,42.02,59.99-36.52,60.8-35.11c.68,1.18-48.37,32.05-47.5,33.56.2.35,14.29-8.81,14.53-8.39"/>
    <path class="cls-2" d="m81.71,223.9c2.05,3.56,127.04-77.53,128.85-74.39s-121.57,70.17-119.59,73.6c1.55,2.68,121.2-73.87,122.88-70.95,1.77,3.07-120.96,70.86-119.34,73.67s120.71-73.82,122.5-70.72c1.45,2.52-121.91,70.94-120.21,73.88,1.97,3.42,121.14-74.29,123.03-71.03,1.54,2.66-123.29,72.97-121.42,76.21,1.57,2.73,123.05-74.71,124.64-71.96s-124.4,71.58-122.4,75.05,123.34-74.78,124.88-72.1c1.91,3.32-124.07,73.79-122.5,76.5.14.25,11.72-7.12,11.88-6.86"/>
    <path class="cls-2" d="m140.64,6.47c.11.19,6.8-4.15,6.9-3.98.22.37-16.92,13.1-16.6,13.65.35.61,23.82-14.67,24.22-13.98.49.85-33.27,22.63-32.76,23.52.54.94,36.36-22.08,36.83-21.26.88,1.52-51.96,33.81-51.09,35.32.75,1.3,53.91-32.61,54.56-31.5"/>
    <path class="cls-2" d="m82.28,50.3c.07.12,5.35-3.31,5.44-3.14.19.34-11.31,12.02-11.14,12.32,1.38,2.39,85.57-51.99,86.69-50.05,1.21,2.1-89.92,53.03-88.48,55.53S162.54,10.82,164.05,13.43"/>
    <path class="cls-2" d="m4.18,80.47c.05.09,4.61-2.83,4.69-2.71.14.24-5.58,8.36-5.47,8.55.22.37,18.04-11.06,18.32-10.58.24.42-16.93,13.31-16.61,13.87.42.72,25.09-15.37,25.47-14.71.34.59-23.07,17.86-22.69,18.52.51.89,33.07-20.37,33.62-19.41s-30.32,22.19-29.78,23.12c.72,1.25,41.8-25.68,42.47-24.52.48.84-39.65,26.73-38.95,27.94.87,1.51,52.88-32.41,53.69-31s-51.84,32.69-51.01,34.12c2.04,3.54,145.54-88.92,147.66-85.25S18.17,103.15,20.62,107.39c1.99,3.45,142.63-87.34,144.79-83.59,1.9,3.28-144.33,82.02-142,86.06,2.09,3.61,140.81-85.74,142.73-82.41,2.39,4.14-142.74,81.52-140.39,85.59,1.95,3.37,138.27-83.96,140.06-80.86,1.69,2.92-141.79,82.54-139.75,86.08,2.42,4.19,137.89-84.99,140.22-80.95C168.98,41.97-.51,132.28,1.92,136.49c1.97,3.42,162.76-99.16,165.01-95.27C169.33,45.38-1.99,138.66.06,142.22c2.71,4.7,165.66-101.86,168.35-97.2S-1.26,143.22.72,146.64c2.76,4.77,169.86-102.82,171.92-99.26S-.7,146.51,2.17,151.48c2.13,3.7,173.5-107.2,176.55-101.93,2.82,4.88-176.6,101.57-174.15,105.81,2.28,3.95,175.12-107.84,178.04-102.79,2.4,4.15-178.75,102.17-176.29,106.44S183.75,51.48,185.96,55.3,4.85,160.61,7.17,164.62c2.77,4.8,177.79-107.65,179.96-103.9,2.47,4.29-182.25,105.19-179.83,109.38S182.7,61.94,185.69,67.1,4.88,170.36,7.58,175.02c2.93,5.08,174.66-105.93,176.86-102.11,2.84,4.92-177.77,100.94-175.14,105.5,2.85,4.94,171.78-104.48,174.08-100.5,2.11,3.65-174.76,99.32-172.31,103.57s169.49-103.42,171.9-99.24c2.95,5.11-170.67,99.24-168.46,103.08,2.67,4.62,166.67-102.53,169.4-97.8S15.73,182.79,18.4,187.41c2.06,3.56,164.88-100.44,167.15-96.5,2.12,3.66-165.83,96.32-163.47,100.41,2.63,4.55,165.39-100.38,167.51-96.71,2.26,3.92-167.96,96.33-165.68,100.28,1.99,3.45,166.88-102.28,169.45-97.83,2.12,3.66-170.89,98-168.15,102.74,2.52,4.36,167.46-102.34,169.91-98.1,2.32,4.02-172.29,99.22-169.72,103.67s167.45-102.78,170.1-98.21c2.27,3.93-171.96,99.87-169.91,103.42,2.21,3.83,165.86-101.01,168.13-97.07,2.46,4.26-170.47,97.41-167.99,101.7,2.02,3.51,165.36-101.59,168.01-97,2.79,4.84-169.92,97.45-167.61,101.45,1.97,3.4,163.8-100.99,166.58-96.18,2.16,3.75-168.82,97.85-166.47,101.92s164.8-101.61,167.6-96.76S23.96,225.78,26.83,230.76c2.23,3.87,165.67-101.26,168.1-97.05,2.14,3.7-170,97.07-167.68,101.08,2.15,3.72,166.89-101.76,169.23-97.7,2.71,4.7-170.49,98.05-167.72,102.85,2.02,3.5,168.93-103.97,171.72-99.14,2.57,4.45-171.54,100.06-169.48,103.62,2.72,4.72,170.45-104.6,173.13-99.96,2.93,5.07-172.86,98.99-170.33,103.37,2.22,3.85,171.65-104.51,173.99-100.45,2.01,3.47-171.61,99.41-169.13,103.71.41.72,26.9-16.28,27.22-15.72.3.53-19.93,15.41-19.62,15.95.18.31,12.48-7.59,12.64-7.3"/>
  </g>
</svg>