<?xml version="1.0" encoding="UTF-8"?><svg id="_клякса_3" xmlns="http://www.w3.org/2000/svg" viewBox="0 0 299.23 266.55"><defs><style>.cls-1{stroke-linecap:round;stroke-linejoin:round;stroke-width:1.2px;}.cls-1,.cls-2{fill:none;stroke:#ffd382;}.cls-2{stroke-miterlimit:10;}</style></defs><path class="cls-2" d="m110.07,256.89c-10.45-6.44-6.1-18.31-20.62-20.08-20.02-2.44-31.22-9.58-31.86-28.3-.64-18.71,8.49-27.02-12.43-40.24-20.92-13.22-44.36-25.16-31.44-39.45,12.92-14.29,36.57-14.85,49.67-29.99,13.95-16.12,14.18-21.42,26.92-30.98,10.43-7.83,19.3-27.27,19.33-43.08.03-15.81,5.21-33.44,23.24-18.75,18.03,14.7,22.34,8.85,33.59,3.11s19.79-6.46,33.58,22.15c13.79,28.61,30.6,12.33,43.16,9.16s22.23-4.06,13.58,22.64c-8.65,26.7,8.61,26.39,14.8,33.76,0,0,23.7,17.07,2.07,35.8-21.63,18.74-.89,29.21,3.03,34.51s18.35,13.73-9.79,26.06c-28.14,12.33-31.37,11.55-28.21,23.31,3.16,11.75,14.15,33.28-10.58,28.49-24.73-4.8-21.52-7.24-29.53-.72-8.01,6.52-9.86,17.99-30.26,8.96-20.41-9.03-22.29,25.78-58.26,3.63Z"/><path class="cls-1" d="m204.17,240.67c.52.9,35.23-21.33,35.66-20.59.46.8-28.89,20.36-28.52,21,.39.68,29.48-18.01,29.91-17.27.37.64-23.2,18.2-22.8,18.89.3.53,23.58-14.42,23.93-13.82.27.47-19.32,14.82-18.98,15.42.28.48,19.45-12,19.78-11.42.19.32-13.61,11.99-13.33,12.46.16.28,13.88-8.43,14.06-8.12.1.18-5.59,7.69-5.46,7.92.05.09,3.06-1.9,3.12-1.8"/><path class="cls-1" d="m247.53,201.58c.56.97,35.07-21.33,35.54-20.52"/><path class="cls-1" d="m19.43,123.86c.17.29,9.86-6.03,10.01-5.78.29.51-19.49,16.42-19.19,16.94,3.08,5.34,184.51-112.47,187.08-108.01S7.92,136.37,10.26,140.42c2.71,4.69,186.76-115.08,189.91-109.64S9.88,139.83,12.77,144.84,198.86,30.45,201.87,35.66,14.43,144.66,16.77,148.71c3.1,5.36,185.87-113.82,188.69-108.94,2.18,3.77-187.82,107.05-184.68,112.49,2.75,4.76,185.68-113.2,188.28-108.7,3.11,5.39-187.74,105.88-184.54,111.42,3.01,5.22,185.4-113.41,188.16-108.63,2.51,4.35-187.67,106.71-184.9,111.5,3.2,5.54,187.33-114.98,190.29-109.86S28.53,154.54,31.62,159.88,225.01,40.61,228.31,46.32,34.11,157.94,36.8,162.6c2.87,4.98,210.35-129.3,213.75-123.41,2.89,5-213.38,121.2-210.53,126.14,2.66,4.61,213.52-131.2,216.95-125.26,2.6,4.5-215.09,121.81-211.59,127.87,2.97,5.14,211.19-128.89,214.2-123.67,3.39,5.87-213.3,121.46-210.53,126.25,2.58,4.46,207.95-127,210.95-121.79,2.52,4.36-209.89,120.56-207.13,125.33,3.52,6.09,203.7-124.05,206.49-119.22S53.15,173.21,56.18,178.46c2.51,4.35,197.59-120.63,200.43-115.72,3.13,5.43-201.16,114.56-198.15,119.78,3.33,5.76,193.67-119.18,196.86-113.66,2.53,4.39-199.88,112.37-196.45,118.32,2.36,4.09,192.45-117.36,195.15-112.67,2.4,4.16-198.35,113.06-195.27,118.4,2.31,4,192.98-119.24,196.37-113.37,2.68,4.64-199.54,113.77-196.98,118.19,3.15,5.46,195.07-118.57,197.65-114.11,3.25,5.63-201.17,114.93-198.02,120.4,3.37,5.84,198.99-121.31,201.77-116.49,2.6,4.51-205.16,116.89-201.91,122.54,3.01,5.21,202.74-125,206.18-119.04,2.97,5.14-207.7,120.63-205.26,124.85,3.02,5.22,206.31-127.45,209.92-121.2,3.01,5.21-211.06,120.2-208.36,124.88,3.08,5.33,209.68-127,212.25-122.55,3.17,5.48-214.51,120.16-211.16,125.98,3.59,6.22,209.88-128.94,213.24-123.11,3.67,6.35-213.54,121.08-210.03,127.15s210.53-128.77,213.66-123.36c2.78,4.82-213.02,121.09-210.13,126.09,2.57,4.45,209.91-127.98,212.85-122.89,2.78,4.82-211.44,119.97-207.92,126.07,2.58,4.47,206.29-125.3,208.97-120.65,2.54,4.4-205.13,118.25-202.5,122.81,3.49,6.04,200.44-121.42,202.9-117.15,2.61,4.52-199.78,113.02-196.83,118.12,3.24,5.61,192.79-118.08,195.72-113,2.23,3.87-191.95,108.87-188.81,114.3,2.16,3.73,179.22-108.74,181.5-104.79,2.54,4.41-179.22,102.62-176.45,107.43,2.21,3.84,164.66-101.37,167.39-96.64s-167.12,95.39-164.4,100.1c2.44,4.22,161.14-98.48,163.49-94.39,2.13,3.69-163.4,95.2-161.17,99.06,1.93,3.35,159.82-98.13,162.36-93.74,2.19,3.8-162.99,92.25-160.2,97.07,2.08,3.61,160.63-97.34,162.63-93.89s-162.39,93.71-160.5,96.99c2.8,4.85,160.91-98.28,163.24-94.24,2.57,4.44-161.41,93.2-158.78,97.75,2.27,3.93,159.92-98.44,162.57-93.86,2.14,3.7-160.63,91.68-158.27,95.77s158.53-97.08,160.93-92.91-157.41,91.5-155.17,95.36c2.44,4.23,155.52-95.83,158.13-91.3s-154.58,88.8-152.25,92.84c2.1,3.63,152.88-94.29,155.49-89.77,1.92,3.32-148.75,85.61-146.46,89.58,1.78,3.08,146.01-88.57,147.86-85.37,2.07,3.58-119.22,71.01-117.53,73.95,1.02,1.76,70.1-42.49,70.98-40.98s-66.43,41.14-65.32,43.06,65.14-39.62,66.01-38.11c1.03,1.79-61.45,38.42-60.68,39.75.36.62,21.13-13.08,21.51-12.42.21.36-14.07,11.74-13.84,12.14.07.12,4.54-2.76,4.6-2.66"/><path class="cls-1" d="m115.42,2.97c.06.11,3.41-2.1,3.47-2,.16.27-7.36,9.28-7.21,9.54.19.32,14.3-8.82,14.55-8.4s-16.02,13.9-15.77,14.34c.32.55,20.29-12.43,20.6-11.9.35.61-21.73,17.29-21.44,17.79.34.59,24.58-14.92,24.9-14.37.44.75-25,18.21-24.65,18.81.46.8,28.03-17.25,28.49-16.45.53.92-29.75,20.62-29.22,21.55.48.84,32.98-20.02,33.4-19.28.46.8-34.79,23.56-34.34,24.34.56.98,38.25-23.59,38.9-22.46.61,1.06-40.72,26.08-40.01,27.31.65,1.13,45.29-27.73,45.97-26.54.75,1.3-50.28,33.08-49.41,34.59,1.23,2.12,74.81-45.47,75.8-43.76s-81.02,48.43-79.75,50.64c1.12,1.93,82.86-51.06,84.26-48.64,1.58,2.74-91.22,54.8-90.11,56.73,1.45,2.51,91.77-56.08,93.11-53.76,1.53,2.65-110.49,65.75-108.82,68.64,1.92,3.33,110.32-68.07,112.21-64.79,1.51,2.62-121.41,72.24-119.7,75.2,1.47,2.54,120.41-74.19,122.43-70.69,2.15,3.72-130.73,75.66-129,78.65,2.09,3.61,129.56-79.23,131.48-75.91"/></svg>