<?xml version="1.0" encoding="UTF-8"?><svg id="girl_копия_" xmlns="http://www.w3.org/2000/svg" viewBox="0 0 329.23 454.44"><defs><style>.cls-1{fill:#ffdfdd;stroke-width:2px;}.cls-1,.cls-2{stroke:#eb5346;}.cls-1,.cls-2,.cls-3,.cls-4,.cls-5,.cls-6{stroke-linecap:round;}.cls-1,.cls-2,.cls-3,.cls-4,.cls-6{stroke-linejoin:round;}.cls-2,.cls-3,.cls-4,.cls-5,.cls-6{fill:none;}.cls-7,.cls-8,.cls-9{fill:#fcf9e8;}.cls-7,.cls-8,.cls-5{stroke-miterlimit:10;stroke-width:3px;}.cls-7,.cls-3,.cls-4{stroke:#ffd382;}.cls-8{stroke:#619ce7;}.cls-10{fill:#fb6d61;}.cls-3{stroke-width:1.5px;}.cls-11{fill:#619ce7;}.cls-12{fill:#ffd382;}.cls-5{stroke:#fcf9e8;}.cls-6{stroke:#9bc4f8;}</style></defs><path class="cls-10" d="m134.39,258.17c4.24-1.4,10.65,6.48,14.31,17.6,3.56,10.82,3.2,20.69-.73,22.5.48-2.08,1.81-9.02.39-16.28-1.63-8.34-5.77-11.67-8.11-10.9-2.34.77-2.85,7.42.43,15.07,2.83,6.61,5.66,10.71,7.29,12.11-4.24.88-11.06-6.62-14.63-17.44-3.66-11.11-3.19-21.26,1.05-22.65Z"/><path class="cls-10" d="m188.89,269.31c3.19,4.11-2.94,14.22-13.7,22.59-10.48,8.15-21.45,11.62-24.98,8.01,2.47-.29,10.61-1.54,18.02-5.95,8.51-5.06,10.55-10.91,8.79-13.18-1.76-2.27-8.11-1.97-16.04,3.64-7.04,4.98-10.37,12.51-11.27,14.84-2.63-4.3,3.44-14.09,13.91-22.24,10.76-8.37,22.08-11.83,25.27-7.72Z"/><path class="cls-10" d="m176.24,336.77s-19.82-11.63-15.65-18.39c4.17-6.76-11.86-17.84-11.86-17.84,0,0-18.01,8.02-16.91,19.56s-7.93,17.37-7.93,17.37"/><path class="cls-7" d="m62.5,364.37l13.18,54.31s18.38,4.01,26.55-4.49c8.17-8.5,17.89-64.65,17.89-64.65,0,0-48.6,15.05-57.63,14.83Z"/><path class="cls-7" d="m54.35,233.64c-2.33-2.16-14.59-22.76-15.1-28.37s1.36-16.68-5.96-19.06c-7.32-2.38-10.87-21.93-18.19-19.9s4.98,16.66,4.98,16.66c0,0-2.74-3.38-5.98-.3-1.7,1.62-.46,3.48-.94,4.51-.53,1.16-3.21.87-4.04,2.04s-.38,2.46-1.11,3.49c-.54.77-2.22,1.24-2.89,2-1.46,1.66-1.31,3.61-1.19,4.21,1.01,5.25,2.67,9.8,15.74,13.32,0,0,9.87,35.74,17.87,39.66"/><path class="cls-7" d="m102.36,366.74l13.18,54.31s18.38,4.01,26.55-4.49c8.17-8.5,17.89-64.65,17.89-64.65,0,0-48.6,15.05-57.63,14.83Z"/><path class="cls-8" d="m55.84,232.41c-5.74,5.49-21.39,23.19-19.53,29.62,3.96,13.66,38.8,26.1,56.81,13.28,32.81-23.36,6.57-55.24-11.93-42.1-11.82,8.4-25.35-.8-25.35-.8Z"/><path class="cls-6" d="m55.14,233.14s.92-.57.94-.54c.27.47-15.92,17.77-15.62,18.29s24.8-15.24,25.2-14.55c.57.99-29.8,24.83-29.32,25.67.91,1.58,54.22-33.31,55.09-31.81.93,1.62-51.21,37.49-50.55,38.63.81,1.4,59.3-36.3,60.19-34.75s-53.63,38.49-52.74,40.04,57.17-35.02,58.04-33.51c.72,1.25-49.74,35.95-48.92,37.37s50.55-30.59,51.16-29.54c.56.97-40.45,30.8-39.79,31.94.49.86,37.87-23.21,38.45-22.2.39.67-19.73,19.4-19.41,19.97.08.14,6.18-3.79,6.27-3.62"/><path class="cls-7" d="m103.6,413.36s3.41,10.54,4.75,14.23c.85,2.32,1.45,11.55-9.76,13.35s-32.46,4.86-33.97,4.78c-5.52-.31-14.25.33-16.07-6.38-1.61-5.95,8.6-11.66,12.75-12.65,4.15-.99,4.84-1.98,12.54-10.41,1.58-1.73,4.7-2.46,8.57.19,11.04,7.58,21.19-3.11,21.19-3.11Z"/><path class="cls-4" d="m73.78,416.4c.03.06,2.58-1.59,2.62-1.51.44.76-27.81,20.04-27.4,20.74.53.91,32.78-20.06,33.27-19.21.61,1.06-33.81,23.08-33.35,23.87.59,1.02,37.01-22.8,37.63-21.73.44.77-35.93,23.72-35.44,24.57.61,1.06,40.99-25.28,41.69-24.07s-37.45,24.93-36.83,26c.76,1.31,48.1-29.3,48.77-28.16s-43.12,27.38-42.35,28.7c.69,1.19,42.98-26.08,43.53-25.13s-33.86,23.49-33.39,24.29,34.22-21.1,34.8-20.09c.41.71-24.75,17.82-24.3,18.61.37.64,25.2-15.36,25.55-14.75.2.35-14.04,12.54-13.78,12.98.22.38,13.24-8.1,13.44-7.76"/><path class="cls-8" d="m127.04,229.98c11.27,5.76,23.95,31.96,20.37,62.63,0,0,16.92,28.91,21.84,58.98,4.34,26.55-141.41,33.88-126.21-11.49,14.04-41.91,23.57-49.53,23.57-49.53,0,0,5.94-41.16,12.73-51.38,1.83-2.75,9.41-10.28,9.41-10.28l38.28,1.06Z"/><path class="cls-6" d="m88.09,229.63s1.14-.7,1.16-.67c.3.53-12.87,15.49-12.59,15.97.44.76,26.6-16.24,26.98-15.58.51.88-31.03,26.06-30.43,27.1s45.39-28.04,46.18-26.66c.69,1.2-49.15,35.7-48.5,36.83.86,1.49,58.74-35.62,59.48-34.34.82,1.41-62.72,43.24-61.58,45.21s66.13-40.69,67.22-38.81c1.02,1.77-69.81,46.95-68.87,48.59,1.12,1.94,71.66-43.85,72.73-41.99,1.15,1.99-81.92,54.31-80.82,56.22,1.32,2.28,83.07-50.26,84.07-48.54,1.13,1.96-91.7,59.53-90.44,61.7,1.15,1.99,91.43-56.05,92.84-53.6s-99.28,62.94-97.71,65.66c1.29,2.24,97.84-59.84,99.29-57.33,1.33,2.3-105.26,66.51-103.6,69.39,1.48,2.56,103.12-62.51,104.41-60.28,1.6,2.76-107.35,67.34-105.83,69.96,1.38,2.39,104.43-63.32,105.74-61.05s-104.24,65.78-102.6,68.62c1.3,2.25,102.29-63.04,104.01-60.05s-98.98,63.39-97.54,65.89c1.19,2.07,99.69-61.29,101.3-58.49,1.39,2.41-93.8,60.56-92.49,62.84,1.58,2.73,94.51-57.85,95.93-55.39,1.16,2-86.48,56-84.96,58.63,1.07,1.86,86.74-53.43,88.19-50.92,1.16,2.02-77.06,50.76-75.75,53.04s77.28-47.68,78.6-45.38c1.08,1.88-65.81,44.49-64.67,46.47.94,1.63,66.1-40.62,67.17-38.78.76,1.32-52.35,37.53-51.65,38.74.77,1.33,52.93-32.48,53.76-31.04.56.97-34.29,28.32-33.82,29.15.56.97,35.1-21.49,35.63-20.57"/><path class="cls-7" d="m143.69,417.02s3.9,9.24,5.43,12.46c.96,2.03,1.96,10.32-9.35,12.9-11.31,2.58-39.24,8.97-40.78,9.02-5.62.19-11.87-2.56-14-8.46-1.89-5.24-.32-9.87,3.85-11.12s13.63-.51,21.1-8.79c1.53-1.7,4.89-3.37,8.92-1.3,11.54,5.91,24.84-4.71,24.84-4.71Z"/><path class="cls-4" d="m86.08,433.54c.04.07,3-1.82,3.04-1.75.1.17-4.96,7.44-4.86,7.61.49.86,31.47-19.44,32.02-18.49.49.84-31.37,22.09-30.93,22.86.57.98,35.6-21.99,36.22-20.91.47.82-34.14,23.7-33.64,24.56.6,1.03,41.19-25.14,41.78-24.12.5.86-38.9,25.4-38.24,26.55.74,1.27,52.35-31.96,53.1-30.66.65,1.13-48.19,30.74-47.37,32.16.69,1.19,48.36-29.44,49.02-28.3.55.95-38.58,25.53-38.05,26.45.62,1.08,38.98-23.95,39.61-22.87.4.7-28.29,19.42-27.82,20.24.42.73,28.84-17.69,29.29-16.91.32.55-17.28,13.7-17.04,14.13.3.52,16.97-10.43,17.24-9.95"/><path class="cls-10" d="m157.91,294.5s-74.15,4.19-88.7-7.53c-.76-.61-1.61-.57-2.49.04l-3.33,5.88c-.48,1.79.44,3.73,2.19,4.04,13.89,2.46,62.62,10.12,94.42.35l-2.09-2.79Z"/><path class="cls-7" d="m35.49,187.36c-2.72.26-9.47-2.74-13.37-.06-1.69,1.16-2.83,6.51,7.64,7.19,0,0-4.88.43-5.91,1.7-2.65,3.27-.86,10.86,3.7,10.89,2.78.02,8.17,4.17,8.17,4.17"/><path class="cls-9" d="m137.62,260.94c25.45,12.16,38.06,44.18,66.98,47.48,11.9,3.72-1.63,7.68-7.41,5.57,22.92,4.66,28.38,20.63,1.01,8.05,22.74,12.81,14.02,20.46-4.51,5.04,17.6,21.62-2.69,15-8.9-1.14-.8,30.28-15.55,2.25-12.57-12.01l-50.14-33.79,15.55-19.21Z"/><path class="cls-12" d="m136.67,262.56c12.85,6.19,22.22,17.24,32.15,27.12,4.92,4.89,10.08,9.63,15.93,13.39,2.89,1.86,5.96,3.42,9.17,4.66,1.58.61,3.2,1.12,4.84,1.54,1.81.45,3.7.56,5.5,1,.87.21,1.8.65,2.59,1.1.29.16.39.23.6.41.23.2.12.21.05-.02-.08-.27.07-.33.07-.58,0,.11.17-.06.06-.06-.06,0-.2.21-.27.26.31-.21-.34.18-.42.23-.32.17-.37.18-.6.26-2.64.98-5.97,1.25-8.66.32l-1,3.62c3.62.75,7.21,1.79,10.55,3.38,2.31,1.1,4.51,2.35,6.22,4.03.15.15.31.31.45.47.08.09.51.62.23.25.23.3.42.62.59.96-.25-.48-.06.02,0,.04.21.1-.09.48.02-.04-.07.34-.05.13.05-.08-.19.44.13-.19.02,0-.11.2.24-.43.04-.06-.09.17.24-.4-.03,0-.14.2.24-.05-.04.01-.2.04-.4.1-.6.14-.26.05.36-.04.08-.02-.1,0-.2.02-.3.02-.25,0-.5.01-.75,0-.62-.02-1.05-.07-1.51-.14-4.37-.74-8.57-2.49-12.57-4.32-2.15-.98-4.03,2.02-1.89,3.24,3.19,1.81,6.37,3.76,9.14,6.17.91.79,1.8,1.64,2.57,2.58.05.06.38.5.55.8.09.15.17.31.26.47.23.4,0-.04.07.17.05.15.08.29.12.44-.06-.25-.09-.36-.03-.05,0,.04.13-.46,0-.11.15-.41-.04-.11.25-.4-.26.26.14-.06.09-.04-.28.08-.15.15.07,0-.09.06-.25.08-.35.1.27-.05.17.01-.16,0-.21,0-1.03-.08-.68-.02-.45-.07-.89-.18-1.33-.3-1.05-.3-2.07-.71-3.05-1.19-3.53-1.71-6.75-4.03-9.76-6.52-1.87-1.55-4.17.77-2.65,2.65,2.21,2.73,4.48,5.62,5.92,8.85.1.22.29.72.41,1.15.05.17.09.35.12.52.1.45-.06-.28.02.21.06.42-.19.25.03.04-.01.01-.2.5-.01.12.08-.15-.15.03.14-.23-.24.21.27-.36.03-.04.09-.12.35-.27.04-.06.16-.11.43-.08.07-.04-.39.05-.12,0-.04.01-.18-.04-.36-.08-.54-.13s-.35-.11-.52-.17c-.3-.11.26.13-.17-.07s-.85-.43-1.26-.68c-1.91-1.16-3.53-2.67-5.08-4.43-2.07-2.36-3.77-5.1-4.91-8.02-.74-1.9-3.62-1.73-3.68.5s-.17,4.57-.55,6.82c-.12.73-.27,1.46-.46,2.18-.09.32-.18.64-.29.95-.13.39-.16.45-.23.6-.12.24-.25.47-.38.7-.23.38,0,0-.12.16-.17.25-.25.33-.1.13-.25.31-.35.11-.14.09-.29.02.47-.1.02,0s.35.04-.04-.01c-.45-.05.03.05-.1-.03-.17-.1-.34-.2-.51-.32.43.3-.1-.1-.18-.18-.16-.16-.31-.31-.46-.48-.44-.49-.41-.46-.83-1.1-.67-1.02-1.23-2.1-1.74-3.21-1.15-2.54-2.01-5.51-2.55-8.34-.59-3.1-.83-6.54-.24-9.49.18-.87-.13-1.62-.86-2.12-5.67-3.82-11.34-7.64-17.02-11.47-8.96-6.04-17.93-12.08-26.89-18.12-2.08-1.4-4.16-2.8-6.23-4.2l.38,2.94c4.53-5.6,9.07-11.2,13.6-16.8.65-.8,1.3-1.61,1.95-2.41s.76-1.87,0-2.65c-.65-.67-2.02-.79-2.65,0-4.53,5.6-9.07,11.2-13.6,16.8-.65.8-1.3,1.61-1.95,2.41-.79.98-.7,2.22.38,2.94,5.67,3.82,11.34,7.64,17.02,11.47,8.96,6.04,17.93,12.08,26.89,18.12,2.08,1.4,4.16,2.8,6.23,4.2l-.86-2.12c-1.37,6.8.3,14.27,3.08,20.52,1.06,2.38,2.45,4.99,4.64,6.52s4.56.9,5.99-1.19c.93-1.36,1.39-3.08,1.71-4.68.56-2.84.75-5.76.83-8.65l-3.68.5c2.29,5.85,6.37,11.55,11.87,14.79,1.58.93,3.68,1.89,5.54,1.27,2.34-.78,2.47-3.4,1.83-5.41-1.35-4.23-4.45-7.95-7.2-11.34l-2.65,2.65c3.22,2.67,6.63,5.2,10.4,7.05,2.15,1.06,4.68,2.18,7.14,2.08,1.93-.07,3.79-1.21,3.79-3.34s-1.73-4.19-3.19-5.67c-3.26-3.3-7.34-5.83-11.35-8.1l-1.89,3.24c4.22,1.93,8.64,3.85,13.24,4.66,2.2.39,5.24.8,7.02-.93,1.52-1.48,1.05-3.68-.05-5.25-1.6-2.27-4.05-3.92-6.45-5.24-4.14-2.28-8.71-3.77-13.32-4.72-2.37-.49-3.28,2.82-1,3.62,2.91,1.01,6.35.8,9.3.08,2.23-.54,5.6-1.89,5.19-4.76-.51-3.51-5.66-4.37-8.39-4.83-3.55-.61-7.03-1.68-10.29-3.21-13.48-6.32-23-18.5-33.49-28.62-6.11-5.9-12.74-11.42-20.44-15.13-2.16-1.04-4.07,2.19-1.89,3.24Z"/><path class="cls-8" d="m161.45,272.73c-1.96,7.7-9.69,30.03-16.2,31.56-13.84,3.26-41.8-20.97-39.48-42.95,4.23-40.05,44.88-32.86,42.53-10.3-1.51,14.42,13.15,21.69,13.15,21.69Z"/><path class="cls-6" d="m117,237.44c.09.16,5.58-3.44,5.67-3.28.28.49-15.38,17.61-15.09,18.11.4.69,30.51-18.46,30.88-17.83.58,1.01-33.31,26.94-32.73,27.94s38.75-23.94,39.43-22.76c.56.97-39.19,30.25-38.6,31.27.63,1.09,41.13-24.93,41.65-24.04s-39.33,30.78-38.62,32c.53.92,38.36-23.34,38.88-22.45.6,1.03-35.28,28.23-34.74,29.16s37.22-22.69,37.74-21.79c.46.8-32.78,27.32-32.28,28.18.55.95,37.45-23.04,38.06-21.97.56.97-32.35,26.46-31.76,27.47.48.82,34.13-20.7,34.56-19.95.37.63-27.11,23.84-26.57,24.77.27.47,21.77-13.43,22.14-12.78.24.42-10.9,14.37-10.63,14.84.04.07,2.85-1.72,2.88-1.66"/><path class="cls-7" d="m60.02,208.75c-8.7-10-13.81-27.77,7.74-32.9,2.29-.55,3.98-2.8,3.75-5.15-6.45-67.3,99.39-72.4,104.9-3.52,3.32,41.48-27.14,69.84-73.16,63.66-10.42-1.4-29.35-6.13-43.24-22.09Z"/><circle class="cls-7" cx="168.51" cy="143.3" r="23.47"/><path class="cls-3" d="m153.33,125.28c.12.21,7.08-4.35,7.19-4.15.33.56-15.64,17.94-15.3,18.52.37.64,31.36-19.04,31.77-18.34.48.83-32.05,26.13-31.49,27.1.51.88,38.39-23.43,38.94-22.48.68,1.18-36.4,29.04-35.91,29.88.67,1.15,40.17-24.66,40.81-23.56.6,1.04-35.72,28.88-35.25,29.68s37.27-22.7,37.78-21.81-29.53,25.29-29.09,26.05c.34.6,28.03-17.05,28.41-16.4"/><path class="cls-7" d="m127.89,214.07c-2.88-4.56-7.83-20.04-1.43-21.7,7.2-1.87,18.63-4.99,15.17-16.29-3.46-11.31-14.29-3.41-14.29-3.41,0,0,.44-13.56-4.85-18.72-9.19-8.97-17.62-3.05-28.04-5.38-10.24-2.28-8.73-16.61-8.67-17.12,27.69-25.58,87.05-15.22,91.14,35.9,3.21,40.05-25.09,67.87-68.47,64.17.06-.05,21.04-14.91,19.43-17.46Z"/><path class="cls-3" d="m89.21,128.63c.17.3,10.28-6.31,10.44-6.03.26.45-13.62,16.24-13.38,16.66.5.87,36.33-21.98,36.76-21.22.47.82-33.38,27.51-32.89,28.36.64,1.1,45.73-27.78,46.33-26.75s-35.46,28.52-34.92,29.45c.7,1.21,44.33-27.32,45.08-26.03.49.84-30.74,25.87-30.21,26.79s37.91-23.16,38.46-22.2c.51.89-31.64,26.86-31.15,27.72.65,1.12,37.62-22.85,38.11-22,.63,1.09-35.88,28.63-35.25,29.72s40.13-24.29,40.62-23.45c.57.99-40.37,31.29-39.82,32.25.66,1.15,43.26-26.57,43.95-25.37.54.94-29.12,24.69-28.55,25.68.44.76,31-19.16,31.55-18.21.47.82-30.44,25.98-30,26.76s31.53-19.18,31.95-18.45c.76,1.31-53.38,38.08-52.63,39.37.62,1.08,52.55-32.39,53.44-30.85s-52.02,37.64-51.1,39.23c.76,1.31,50.18-30.34,50.77-29.31,1.06,1.84-57.87,40.77-57.01,42.27.65,1.12,54.23-33.14,55.02-31.77.87,1.51-53.83,39.09-53.08,40.39.58,1,47.02-28.64,47.67-27.52"/><circle class="cls-7" cx="64.71" cy="169.94" r="6.03"/><ellipse class="cls-11" cx="79.91" cy="171.85" rx="9.9" ry="6.85" transform="translate(-89.44 86.77) rotate(-38.39)"/><path class="cls-5" d="m95.33,172.54c1.38-4.25.54-16.3-13.31-13.84"/><circle class="cls-7" cx="172.88" cy="203.8" r="32.4"/><path class="cls-3" d="m152.64,178.54c.11.19,8.39-5.13,8.51-4.91.37.64-19.25,19.2-18.92,19.77.61,1.05,36.51-22.13,36.97-21.34.54.93-39.38,30.05-38.68,31.27.75,1.29,47.5-28.88,48.13-27.79.77,1.34-47.86,35.27-47,36.76.63,1.09,53.27-32.89,54.2-31.29.87,1.5-51.97,37.3-51.22,38.6.82,1.43,55.33-33.64,56.06-32.37s-51.77,37.75-50.92,39.21,53.45-32.8,54.29-31.34-48.29,35.3-47.52,36.62,48.01-29.34,48.71-28.12c.53.91-39.76,30.73-39.11,31.86s37.01-22.57,37.53-21.67c.33.57-19.41,19.69-19.12,20.2.14.24,8.52-5.21,8.65-4.99"/><path class="cls-10" d="m70.49,181.89c-.12,3.16,3.15-.55,7.68-.38,4.52.18,8.58,4.18,8.7,1.01s-3.44-5.87-7.97-6.05-8.29,2.25-8.41,5.41Z"/><path class="cls-1" d="m285.87,33.18c-3.22-2.38-6.57-4.22-10.02-5.52-3.46-1.31-7.6-2.35-12.41-3.13l5.55-19.33c5.14.34,10.53,1.65,16.17,3.94,5.64,2.29,10.74,5.12,15.3,8.48,5.73,4.22,9.89,8.47,12.49,12.73,2.59,4.26,4.11,8.35,4.54,12.26.43,3.91.05,7.57-1.14,10.97-1.2,3.4-2.72,6.36-4.57,8.86s-3.93,4.53-6.24,6.07c-2.31,1.54-4.71,2.78-7.19,3.71-2.49.93-5.08,1.64-7.79,2.13-2.71.49-5.31.92-7.8,1.3-1.87.28-3.83.6-5.88.95-2.06.35-4.05.85-5.98,1.5-1.93.65-3.75,1.48-5.47,2.5-1.72,1.02-3.14,2.29-4.26,3.81l-1.19,1.61c-.53.72-.95,1.38-1.25,1.98l-17.73-13.07c.48-1.03,1.11-2.12,1.89-3.27.78-1.15,1.47-2.13,2.06-2.94,1.85-2.51,3.83-4.54,5.94-6.09,2.11-1.55,4.33-2.82,6.64-3.81,2.31-.99,4.71-1.75,7.17-2.28,2.46-.53,4.94-.99,7.43-1.36,3.58-.54,6.96-1.19,10.15-1.95,3.19-.76,5.74-2.44,7.65-5.04,1.58-2.15,2.11-4.59,1.57-7.34-.54-2.74-2.41-5.3-5.64-7.68Zm-37.31,76.76c-2.9,3.94-6.42,6.04-10.56,6.31-4.14.27-7.82-.79-11.04-3.16-3.22-2.38-5.32-5.58-6.29-9.61-.97-4.03,0-8.01,2.9-11.95,2.9-3.94,6.42-6.04,10.56-6.31,4.14-.27,7.82.79,11.04,3.16s5.32,5.58,6.29,9.61c.97,4.03,0,8.02-2.9,11.95Z"/><path class="cls-2" d="m226.46,88.43c.06.11,4.34-2.67,4.41-2.55.15.25-9.98,10.18-9.83,10.43.29.5,18.09-11.16,18.4-10.62s-19.45,14.49-19.1,15.1c.33.58,22.97-13.9,23.24-13.42s-22.8,16.98-22.47,17.56c.42.72,25.44-15.72,25.89-14.95.38.66-24.37,18.27-23.98,18.96.42.74,26.31-16.06,26.68-15.41.45.78-24.54,17.72-24.19,18.33.38.65,25.24-15.54,25.66-14.81.33.57-22.38,16.79-22.04,17.36.27.46,22.26-13.75,22.65-13.08.32.55-17.15,14.28-16.83,14.83.18.31,14.92-9.16,15.16-8.75"/><path class="cls-2" d="m269.02,78.78c.7,1.22,47.19-29.13,48.01-27.72.51.88-35.35,23.87-34.89,24.66.57.99,32.46-19.78,32.91-19,.3.52-19.78,15.95-19.51,16.41.21.37,13.81-8.49,14.03-8.1"/><path class="cls-2" d="m250.64,62.86c.11.19,6.97-4.22,7.05-4.07.27.46-14.91,12.36-14.69,12.74.37.64,27.48-16.91,27.93-16.13.39.68-28.19,20.4-27.78,21.11.68,1.18,41.84-25.55,42.45-24.51s-39.81,25.94-39.3,26.82c.83,1.44,69.11-42.53,70.24-40.56.93,1.62-67.78,41.28-66.69,43.17,1.01,1.74,66.48-40.9,67.57-39.01s-65.19,39.85-64.27,41.44,63.52-38.8,64.44-37.2c1.07,1.85-62.18,37.87-61.18,39.6.09.16,6.16-3.78,6.26-3.61"/><path class="cls-2" d="m268.91,5.56s.53-.32.53-.31c.07.12-2.4,6.37-2.31,6.51.14.24,9.23-5.61,9.35-5.4.17.29-11.27,11.03-11.07,11.38.29.49,16.58-10.06,16.79-9.69.28.48-18.84,15.22-18.53,15.75.37.64,23.41-14.22,23.71-13.69.27.47-18.53,14.94-18.19,15.53s22.51-13.91,22.91-13.23c.31.54-17.53,14.38-17.25,14.86.31.53,21.21-12.9,21.49-12.41.25.43-17.69,13.55-17.37,14.12.27.47,20.39-12.36,20.65-11.92s-17.14,13.47-16.82,14.02c.3.51,19.79-12.03,20.05-11.58.22.39-16.36,13.91-16.12,14.32.25.43,19.28-11.86,19.6-11.31.26.45-17.28,13.36-16.96,13.92.29.51,19.27-11.81,19.57-11.3s-17.95,14.24-17.67,14.73c.34.58,19.93-12.13,20.2-11.66.37.64-20.1,15.52-19.83,15.97.32.56,21.67-13.16,21.95-12.67.37.64-26.01,18.12-25.59,18.85.38.66,26.82-16.33,27.18-15.69"/><path class="cls-1" d="m186.9,18.06c-2.68.84-5.11,1.96-7.28,3.37-2.17,1.41-4.48,3.32-6.92,5.71l-8.62-11.15c2.32-2.76,5.3-5.27,8.93-7.5,3.63-2.24,7.35-3.94,11.14-5.13,4.76-1.49,8.89-2.08,12.37-1.77,3.48.3,6.42,1.14,8.81,2.52,2.39,1.38,4.3,3.11,5.73,5.2,1.43,2.09,2.47,4.17,3.11,6.26s.93,4.1.84,6.05c-.09,1.95-.38,3.82-.89,5.61-.5,1.79-1.18,3.55-2.03,5.29-.85,1.74-1.68,3.38-2.5,4.95-.61,1.17-1.25,2.41-1.9,3.72-.65,1.31-1.2,2.64-1.63,4-.43,1.36-.72,2.74-.86,4.13-.14,1.39,0,2.72.38,3.98l.42,1.34c.19.6.38,1.1.6,1.53l-14.74,4.6c-.38-.7-.74-1.51-1.06-2.43-.33-.92-.6-1.71-.8-2.38-.65-2.08-.98-4.04-.98-5.88,0-1.84.2-3.62.6-5.33.4-1.72.97-3.38,1.69-5,.72-1.61,1.49-3.2,2.31-4.76,1.18-2.25,2.21-4.43,3.11-6.54.89-2.12,1-4.25.33-6.41-.56-1.79-1.72-3.1-3.49-3.93-1.77-.83-4-.84-6.68,0Zm27.9,52.92c1.02,3.28.75,6.14-.81,8.58-1.56,2.45-3.69,4.09-6.37,4.93-2.68.84-5.36.69-8.04-.43-2.68-1.13-4.53-3.32-5.55-6.6s-.75-6.14.81-8.58c1.56-2.45,3.69-4.09,6.37-4.93s5.36-.69,8.04.43c2.68,1.12,4.53,3.33,5.55,6.6Z"/><path class="cls-2" d="m196.99,66.38c.06.11,3.97-2.4,4.02-2.32.16.27-7.62,8.36-7.49,8.59.2.34,14.59-8.98,14.83-8.56.22.38-14.54,12.93-14.31,13.33.3.51,18.19-11.1,18.45-10.65.28.48-17.17,13.5-16.94,13.91s18.48-11.37,18.79-10.85c.25.42-16,13.24-15.71,13.74.25.43,16.44-10.11,16.71-9.65.23.39-11.86,10.73-11.67,11.07.15.27,10.56-6.45,10.72-6.19"/><path class="cls-2" d="m170.18,10.42c.14.24,8.52-5.18,8.63-4.98.19.33-13.28,12.34-13.06,12.71.43.74,28.39-17.25,28.76-16.6.35.61-26.51,19.32-26.09,20.05.56.97,32.63-19.79,33.04-19.08.43.75-30.81,21.74-30.33,22.57.54.94,34.75-21.1,35.2-20.32.21.37-13.96,12.47-13.69,12.93.25.43,16.88-10.43,17.18-9.92.25.44-13.67,12.27-13.45,12.66s15.66-9.53,15.87-9.16-15.05,12.13-14.77,12.62c.21.37,16.09-9.75,16.29-9.4.27.47-17.43,13.63-17.11,14.19.27.46,17.88-10.86,18.11-10.46.29.5-21.73,16.86-21.43,17.38.27.48,21.18-13.03,21.53-12.43s-24.58,17.3-24.13,18.07c.35.6,22.82-13.98,23.17-13.38.39.68-24.96,18.07-24.58,18.72s21.81-13.27,22.1-12.76c.41.72-22.6,16.9-22.31,17.4s18.78-11.4,19.02-10.98c.27.47-18.53,14.72-18.21,15.27.22.39,15.55-9.47,15.77-9.1.28.48-14.69,12.48-14.49,12.82s13.75-8.44,13.97-8.06c.11.2-4.27,6.52-4.17,6.7.09.15,5-3.09,5.09-2.94"/><path class="cls-1" d="m310.58,145.76c0-2.81-.35-5.46-1.05-7.95-.7-2.5-1.83-5.26-3.39-8.3l13.22-4.91c1.95,3.04,3.45,6.63,4.5,10.76,1.05,4.13,1.58,8.19,1.58,12.16,0,4.99-.66,9.1-1.99,12.34-1.33,3.23-3,5.79-5.03,7.66-2.03,1.87-4.25,3.18-6.67,3.92-2.42.74-4.72,1.11-6.9,1.11s-4.19-.33-6.02-.99c-1.83-.66-3.53-1.5-5.09-2.51-1.56-1.01-3.04-2.18-4.44-3.51-1.4-1.33-2.73-2.61-3.98-3.86-.94-.94-1.93-1.91-2.98-2.92-1.05-1.01-2.16-1.93-3.33-2.75-1.17-.82-2.4-1.5-3.68-2.05-1.29-.55-2.59-.82-3.92-.82h-1.4c-.63,0-1.17.04-1.64.12v-15.44c.78-.16,1.66-.25,2.63-.29.97-.04,1.81-.06,2.51-.06,2.18,0,4.15.27,5.91.82,1.75.54,3.39,1.27,4.91,2.16,1.52.9,2.94,1.93,4.27,3.1,1.33,1.17,2.61,2.38,3.86,3.63,1.79,1.79,3.57,3.43,5.32,4.91,1.75,1.48,3.76,2.22,6.02,2.22,1.87,0,3.47-.72,4.8-2.16,1.32-1.44,1.99-3.57,1.99-6.37Zm-58.83,10.88c-3.43,0-6.08-1.11-7.95-3.33-1.87-2.22-2.81-4.74-2.81-7.54s.94-5.32,2.81-7.54c1.87-2.22,4.52-3.33,7.95-3.33,3.43,0,6.08,1.11,7.95,3.33,1.87,2.22,2.81,4.74,2.81,7.54,0,2.81-.94,5.32-2.81,7.54-1.87,2.22-4.52,3.33-7.95,3.33Z"/><path class="cls-2" d="m306.27,129.75s1.28-.79,1.3-.75c.05.09.34,4.21.38,4.29.21.37,12.14-7.4,12.31-7.11.18.32-10.94,11.08-10.78,11.37.19.33,12.49-7.68,12.69-7.33.23.39-12.08,10.82-11.86,11.2.18.32,12.93-7.88,13.11-7.57.21.36-13.04,11.31-12.81,11.71.21.37,13.53-8.29,13.74-7.93.3.51-15.3,13.21-15.06,13.62s15.55-9.54,15.8-9.12"/><path class="cls-2" d="m268.39,138.12s.7-.42.71-.41c.06.11-.76,4.58-.71,4.67.11.19,8.02-4.93,8.15-4.7.14.25-8.3,9.51-8.15,9.77.22.39,13.71-8.37,13.91-8.03.23.41-14.11,11.82-13.91,12.16.21.36,17.22-10.59,17.5-10.1.2.35-12.67,11.44-12.44,11.85s15.57-9.58,15.82-9.13c.22.39-11.69,10.64-11.5,10.98.21.36,14.15-8.64,14.35-8.29.23.39-11.28,10.3-11.07,10.66s13.62-8.37,13.84-7.99c.17.29-11.02,10.49-10.83,10.83.17.29,13.78-8.4,13.97-8.07.18.31-11.52,10.37-11.35,10.66.19.32,15.07-9.2,15.28-8.82.19.33-12.44,11.36-12.22,11.75.54.93,35.09-21.43,35.59-20.55.58,1-32.88,22.22-32.34,23.15.43.75,31.87-19.5,32.34-18.67s-28.86,20.19-28.45,20.9c.48.83,27.53-16.9,27.97-16.15s-23.85,16.99-23.49,17.62c.32.55,21.84-13.49,22.22-12.83.21.36-15.31,12.47-15.11,12.81.18.31,11.68-7.14,11.85-6.84"/><path class="cls-2" d="m244.52,137.5c.06.1,3.57-2.17,3.61-2.09.12.21-7.2,9.01-7.06,9.25.23.4,15.15-9.21,15.35-8.86.22.37-15.09,13.11-14.84,13.55.31.54,18.23-11.05,18.46-10.66.25.43-16.59,14-16.31,14.47s18.07-10.98,18.31-10.57-14.68,12.86-14.4,13.34c.21.37,14.47-8.94,14.72-8.5.15.27-7.13,8.43-6.99,8.66.05.09,3.57-2.17,3.61-2.09"/></svg>