<?xml version="1.0" encoding="UTF-8"?>
<svg id="_клякса5" data-name="клякса5" xmlns="http://www.w3.org/2000/svg" viewBox="0 0 296.18 252.87">
  <defs>
    <style>
      .cls-1 {
        stroke-linecap: round;
        stroke-linejoin: round;
        stroke-width: 1.2px;
      }

      .cls-1, .cls-2 {
        fill: none;
        stroke: #fcf9e8;
      }

      .cls-2 {
        stroke-miterlimit: 10;
      }
    </style>
  </defs>
  <path class="cls-2" d="m12.42,96.82c3.94-.72,47.81-20.7,52.7-24.47,4.89-3.76,8.66-4.52,13.18-5.65s11.67-24.09,19.95-31.24,23.34-4.52,27.86-12.05c4.52-7.53,18.07-38.02,26.73-17.69,8.66,20.33,20.7,38.02,35.39,32,14.68-6.02,29.36-7.53,36.14,19.58,6.78,27.1,28.61,19.58,48.94,20.7,20.33,1.13,27.86,15.43,19.58,27.1-8.28,11.67-13.93,17.32-21.08,28.61-7.15,11.29-12.05,22.21.38,33.88,12.42,11.67,20.33,30.12,1.13,47.43-19.2,17.32-37.27,22.96-68.89,15.06-31.62-7.91-50.44-1.88-65.12,10.92-14.68,12.8-21.08,9.79-27.48-7.91-6.4-17.69-29.36-12.8-45.93-7.91-16.56,4.89-39.53,22.96-43.29-15.43-3.76-38.4-14.68-37.64-13.55-49.31,1.13-11.67-9.03-32.37-9.03-41.79s0-19.58,12.42-21.83Z"/>
  <g>
    <path class="cls-1" d="m153.95,231.45c1.7,2.95,113.72-68.93,115.14-66.47,1.67,2.9-102.65,59.55-100.98,62.44s102.26-61.84,103.47-59.74c1.57,2.72-92.81,56.81-91.62,58.89s93.94-57.61,95.4-55.08c1.3,2.25-89.18,52.86-87.72,55.38,1.23,2.13,89.36-54.19,90.49-52.24,1.06,1.83-84.67,51.58-83.53,53.55,1.41,2.45,84.87-51.62,86-49.65s-81.36,49.13-80.37,50.83c1.42,2.45,81.27-50.05,82.62-47.7,1.17,2.03-77.2,47.28-76.05,49.28,1.07,1.86,76.26-46.99,77.54-44.77.93,1.62-72.83,43.95-71.87,45.62,1.19,2.07,71.22-44,72.47-41.84,1.14,1.97-67.32,40.89-66.17,42.89.92,1.6,65.47-39.68,66.29-38.27.94,1.63-60.06,37.6-59.16,39.16.79,1.36,57.11-34.5,57.77-33.36.77,1.33-46.42,31.35-45.71,32.58.66,1.14,40.1-24.29,40.59-23.43.38.66-27.79,19.14-27.32,19.97.23.39,15.22-9.26,15.43-8.91"/>
    <path class="cls-1" d="m4.93,100.25c.08.13,4.66-2.84,4.72-2.73.16.27-9.26,10.82-9.04,11.18.83,1.44,47.13-28.79,47.81-27.6.83,1.43-49.45,32.71-48.73,33.96,2.08,3.6,159.43-97.07,161.61-93.31S-1.74,115.39.33,118.97c2.8,4.86,160.05-97.96,162.45-93.79C164.73,28.56-1.53,120.86.73,124.77c2.63,4.56,163.43-99.77,165.77-95.71S-.24,126.19,1.79,129.71c2.87,4.98,165.38-101.47,167.98-96.98C172.58,37.61.41,129.39,3.07,133.99c2.12,3.68,167.54-101.89,169.78-98.02,2.36,4.08-170.42,98.31-167.83,102.8,2.38,4.13,171.21-105.46,174.07-100.5,2.68,4.64-175.94,98.85-172.94,104.04,2.61,4.52,177.05-108.22,179.65-103.72,2.94,5.1-181.56,104.15-178.58,109.3,2.7,4.68,194.46-117.9,196.9-113.68,2.7,4.67-198.36,114.75-195.73,119.3,2.79,4.83,200.08-123.22,203.42-117.44,2.99,5.18-206.04,116.2-202.99,121.49,2.51,4.35,203.13-124.96,206.46-119.2S5.91,157.63,9.28,163.46c2.9,5.02,206.01-125.41,208.81-120.56,3.54,6.12-211.24,119.68-207.73,125.76S217.93,42.62,220.62,47.28c3.21,5.57-211.53,118.8-208.02,124.88,3.32,5.76,206.1-127.09,209.6-121.01,2.61,4.53-210.14,121.21-207.44,125.9,2.92,5.06,205.66-126.71,209.12-120.73,2.45,4.25-209.77,120.78-207.12,125.38,2.79,4.83,205.72-126.38,209.02-120.68,2.46,4.26-211.03,119.46-207.76,125.13,2.78,4.82,206.49-126.27,209.54-120.98S16.34,185.3,19.08,190.04,226.09,63.37,229.19,68.73c2.94,5.1-211.36,121.07-208.49,126.03,3.43,5.94,208.97-127.93,212.13-122.47,3.6,6.24-213.99,121.76-211.32,126.39S232.23,68.87,235.76,74.98c3.16,5.47-217.23,123.4-213.7,129.52,3.22,5.57,217.43-132.53,220.46-127.28,2.86,4.96-223.49,125.88-220.1,131.77,3.88,6.72,223.11-137.57,226.9-131S20.08,208.54,22.87,213.36c3.22,5.59,230.76-141.39,234.29-135.27,3.87,6.7-237.14,134.21-233.28,140.9,2.96,5.12,241.33-146.7,244.52-141.17,2.94,5.09-246.83,137.89-243.07,144.4,4.26,7.39,244.91-151.14,249.13-143.84,3.24,5.62-252.51,140.14-248.21,147.59,4.07,7.04,250.59-153.99,254.62-147.01,3.44,5.96-255.26,144.46-252.2,149.77,4.07,7.04,252.67-153.87,256.13-147.88S28.1,225.68,31.82,232.12c3.14,5.44,253.8-156.01,257.9-148.9,3.81,6.59-254.82,143.69-250.9,150.47,3.71,6.42,251.43-152.38,254.55-146.97,3.44,5.96-244.53,137.79-241.14,143.65,2.88,4.99,240.05-145.29,242.95-140.27,3.63,6.29-221.58,126.29-218.12,132.28,2.75,4.77,216.37-131.83,219.36-126.65,2.83,4.9-208.91,120.41-206.19,125.12,3.3,5.71,201.02-122.52,203.82-117.68,2.8,4.85-197.81,114.1-195.23,118.58,2.91,5.04,185.82-113.15,188.36-108.75s-185.96,106.57-183.62,110.61c2.56,4.43,174.02-106.46,176.62-101.97s-175.4,100.23-172.72,104.87c2.03,3.52,164.47-99.58,166.47-96.11,2.28,3.95-166.8,94.42-163.98,99.31,2.1,3.65,157.38-96.26,159.72-92.21s-159.56,92.02-157.29,95.96,151.5-92.36,153.61-88.69c1.86,3.22-155.22,88.64-153.01,92.45,2.35,4.06,149.52-92,151.98-87.74s-151.64,87.22-149.46,90.98,147.3-89.83,149.37-86.24c1.75,3.04-149.82,86.55-148.07,89.57,2.04,3.53,146.99-89.06,148.8-85.91,2.24,3.88-147.28,85.98-145.12,89.72,2.52,4.37,145.85-88.37,147.66-85.25,1.69,2.93-142.37,81.64-139.91,85.9.1.17,7.31-4.5,7.43-4.29"/>
    <path class="cls-1" d="m98.05,35.62c.1.17,5.6-3.42,5.68-3.28.22.38-12.33,12.17-12.15,12.48.83,1.43,61.29-37.82,62.34-35.99s-67.8,42.36-66.74,44.2c.95,1.65,68.29-41.31,69.1-39.9.89,1.54-74.62,46.56-73.47,48.55S157.06,15.81,158.36,18.07"/>
    <path class="cls-1" d="m140.77,1.29c.07.13,4.01-2.46,4.07-2.35.23.41-11.79,11.36-11.6,11.68.24.42,16.42-10,16.65-9.61.36.62-21.64,17.08-21.24,17.77.35.6,23.33-14.34,23.71-13.69.48.83-28.31,19.65-27.96,20.25.38.65,28.77-17.53,29.17-16.84"/>
  </g>
</svg>