<svg width="40" height="46" viewBox="0 0 40 46" fill="none" xmlns="http://www.w3.org/2000/svg">
<path d="M34.1415 5.91936C37.8132 9.62929 39.9132 14.6368 39.9974 19.8831C40.0816 25.1293 38.1433 30.203 34.5926 34.0313L34.1415 34.5028L24.7128 44.0284C23.5165 45.2366 21.9104 45.9401 20.2199 45.9963C18.5295 46.0526 16.8811 45.4575 15.6086 44.3316L15.2886 44.0284L5.85775 34.5006C2.1071 30.7105 0 25.57 0 20.21C0 14.85 2.1071 9.70947 5.85775 5.91936C9.6084 2.12926 14.6954 0 19.9996 0C25.3038 0 30.3908 2.12926 34.1415 5.91936ZM19.9996 13.4734C19.1241 13.4734 18.2573 13.6476 17.4484 13.9862C16.6396 14.3247 15.9047 14.8209 15.2857 15.4465C14.6666 16.072 14.1756 16.8147 13.8406 17.632C13.5055 18.4493 13.3331 19.3253 13.3331 20.21C13.3331 21.0946 13.5055 21.9706 13.8406 22.788C14.1756 23.6053 14.6666 24.3479 15.2857 24.9735C15.9047 25.599 16.6396 26.0952 17.4484 26.4338C18.2573 26.7723 19.1241 26.9466 19.9996 26.9466C21.7677 26.9466 23.4633 26.2368 24.7135 24.9735C25.9637 23.7101 26.6661 21.9966 26.6661 20.21C26.6661 18.4233 25.9637 16.7098 24.7135 15.4465C23.4633 14.1831 21.7677 13.4734 19.9996 13.4734Z" fill="#FB6D61"/>
</svg>
