<svg width="41" height="36" viewBox="0 0 41 36" fill="none" xmlns="http://www.w3.org/2000/svg">
<path fill-rule="evenodd" clip-rule="evenodd" d="M30.1609 35.8772C27.2039 35.782 18.8236 34.7686 10.0471 27.091C1.27262 19.4115 0.116518 12.0806 0.00563061 9.49143C-0.158647 5.54568 3.29529 1.71314 7.28519 0.216412C7.76565 0.0348774 8.2918 -0.0342385 8.812 0.0158469C9.33221 0.0659324 9.82859 0.233498 10.2525 0.502101C13.538 2.59716 15.805 5.76669 17.7517 8.25883C18.18 8.80637 18.3632 9.47265 18.2662 10.1307C18.1693 10.7888 17.799 11.3927 17.226 11.8273L13.2197 14.4308C13.0262 14.5531 12.8899 14.7327 12.8363 14.9363C12.7827 15.1398 12.8153 15.3535 12.9281 15.5376C13.8358 16.9804 15.4498 19.1294 17.2979 20.7465C19.146 22.3636 21.719 23.8693 23.483 24.7533C23.7041 24.862 23.9645 24.8923 24.2104 24.8382C24.4564 24.7841 24.6693 24.6495 24.8054 24.4623L27.4133 20.9891C27.8928 20.4318 28.6001 20.0585 29.3871 19.9473C30.1741 19.8361 30.9797 19.9956 31.6352 20.3925C34.5245 22.1426 37.8963 24.0921 40.3646 26.8574C40.6965 27.2309 40.9076 27.6756 40.9758 28.145C41.0441 28.6144 40.967 29.0912 40.7527 29.5256C39.0339 33.0347 34.6847 36.0228 30.1609 35.8772Z" fill="#FFD382"/>
</svg>
