<svg width="43" height="42" viewBox="0 0 43 42" fill="none" xmlns="http://www.w3.org/2000/svg">
<path d="M21.5 0C33.3745 0 43 9.35817 43 20.9028C43 32.4474 33.3745 41.8055 21.5 41.8055C17.7004 41.8119 13.9677 40.8343 10.6855 38.9732L0.00863322 41.8055L2.91543 31.421C0.999693 28.229 -0.00662549 24.5984 3.28276e-05 20.9028C3.28276e-05 9.35817 9.62558 0 21.5 0ZM14.1728 11.0785L13.7428 11.0952C13.4648 11.1138 13.1932 11.1848 12.943 11.3042C12.7099 11.4328 12.497 11.5933 12.3109 11.7808C12.0529 12.017 11.9067 12.2218 11.7498 12.4204C10.9545 13.4256 10.5264 14.6598 10.5329 15.9279C10.5372 16.9521 10.8124 17.9492 11.2424 18.8815C12.1217 20.7669 13.5687 22.7631 15.4779 24.613C15.938 25.0582 16.3895 25.5056 16.8754 25.9215C19.2477 27.952 22.0747 29.4164 25.1314 30.1982L26.3526 30.3801C26.7503 30.401 27.1481 30.3717 27.548 30.3529C28.174 30.3208 28.7853 30.156 29.3389 29.87C29.6202 29.7286 29.895 29.5752 30.1624 29.4102C30.1624 29.4102 30.2534 29.3503 30.4311 29.2221C30.7214 29.013 30.8998 28.8646 31.1406 28.6201C31.3212 28.4389 31.4717 28.2285 31.5921 27.9888C31.7598 27.6481 31.9275 26.998 31.9963 26.4566C32.0479 26.0428 32.0329 25.817 32.0264 25.677C32.0178 25.4533 31.8265 25.2213 31.6179 25.123L30.3666 24.5775C30.3666 24.5775 28.4961 23.7853 27.3523 23.2794C27.2326 23.2287 27.1044 23.1997 26.9739 23.1937C26.8268 23.1787 26.6781 23.1947 26.5379 23.2405C26.3976 23.2863 26.2692 23.3609 26.1612 23.4592C26.1505 23.455 26.0064 23.5741 24.452 25.4052C24.3627 25.5218 24.2399 25.6099 24.0989 25.6583C23.958 25.7067 23.8055 25.7132 23.6608 25.677C23.5206 25.6406 23.3834 25.5945 23.2501 25.539C22.9835 25.4303 22.8911 25.3885 22.7083 25.3132C21.4739 24.7905 20.3314 24.0831 19.3221 23.2167C19.0512 22.9868 18.7996 22.7359 18.5416 22.4935C17.6958 21.7059 16.9587 20.8149 16.3486 19.843L16.2218 19.6444C16.132 19.5102 16.0585 19.3664 16.0025 19.2159C15.9208 18.9086 16.1336 18.662 16.1336 18.662C16.1336 18.662 16.6561 18.106 16.899 17.805C17.1355 17.5123 17.3355 17.2281 17.4645 17.0253C17.7182 16.6281 17.7977 16.2205 17.6644 15.9049C17.0624 14.4752 16.4404 13.0531 15.7982 11.6387C15.6714 11.3586 15.2951 11.1579 14.9533 11.1182C14.8372 11.1042 14.7211 11.0931 14.605 11.0847C14.3163 11.0686 14.0268 11.0714 13.7385 11.0931L14.1728 11.0785Z" fill="#AFD889"/>
</svg>
