<?xml version="1.0" encoding="UTF-8"?><svg id="_башня" xmlns="http://www.w3.org/2000/svg" viewBox="0 0 744.51 455.74"><defs><style>.cls-1{stroke:#d06866;stroke-width:6px;}.cls-1,.cls-2,.cls-3,.cls-4,.cls-5,.cls-6,.cls-7,.cls-8,.cls-9,.cls-10{stroke-miterlimit:10;}.cls-1,.cls-11,.cls-12,.cls-13,.cls-14,.cls-15,.cls-16,.cls-17,.cls-18,.cls-10,.cls-19,.cls-20{stroke-linecap:round;}.cls-1,.cls-11,.cls-13,.cls-14,.cls-15,.cls-16,.cls-17,.cls-18,.cls-10,.cls-19,.cls-20{fill:none;}.cls-21{fill:#afd889;}.cls-2{font-size:36.59px;}.cls-2,.cls-3,.cls-4,.cls-5,.cls-6,.cls-8,.cls-9,.cls-22{fill:#fcf9e8;}.cls-2,.cls-4,.cls-6,.cls-9{font-family:Ubuntu-Bold, Ubuntu;font-weight:700;stroke-width:2px;}.cls-2,.cls-9{stroke:#ffbe45;}.cls-11,.cls-6,.cls-12,.cls-17{stroke:#eb5346;}.cls-11,.cls-12,.cls-13,.cls-14,.cls-15,.cls-16,.cls-17,.cls-18,.cls-19,.cls-20{stroke-linejoin:round;}.cls-3,.cls-5,.cls-12,.cls-7,.cls-8,.cls-16,.cls-10{stroke-width:3px;}.cls-3,.cls-14,.cls-15{stroke:#ffd382;}.cls-4,.cls-5,.cls-18{stroke:#619ce7;}.cls-4,.cls-6{font-size:59.97px;}.cls-23{fill:#fb6d61;}.cls-12{fill:#ffdfdd;}.cls-13{stroke:#afd889;}.cls-14,.cls-17,.cls-20{stroke-width:1.5px;}.cls-24{fill:#619ce7;}.cls-7{stroke:#fcf9e9;}.cls-7,.cls-25{fill:#acca88;}.cls-8,.cls-16,.cls-10{stroke:#fcf9e8;}.cls-9{font-size:46.52px;}.cls-18{stroke-width:5px;}.cls-19,.cls-20{stroke:#9bc4f8;}.cls-26{fill:#fcf9e9;}</style></defs><path class="cls-25" d="m599.92,292.08c-19.95-11.37-28.31-38.11-51.6-42.48-9.45-3.72,1.77-6.14,6.35-4.09-18.34-5.12-21.84-18.41-.35-6.6-17.71-11.73-10.19-17.44,3.96-3.83-13.02-18.59,3.06-12.02,7.16,1.44,2.42-24.54,12.76-.92,9.51,10.49l38.73,30.37-13.75,14.68Z"/><path class="cls-26" d="m600.56,291c-10.01-5.75-16.97-15.22-24.4-23.79s-15.64-16.35-26.85-18.69c-.88-.18-1.68-.53-2.45-.99-.31-.18-.73-.73-1.01-.84.41.17-.49.44.14.2.33-.12.69-.34,1.07-.46,2.11-.63,4.92-.72,6.98.15l.96-2.28c-4.64-1.32-9.84-3.33-13.17-7-.37-.4-.81-1.03-.97-1.41-.05-.11-.09-.41-.09-.32-.02-.24,0-.02.01-.09-.03.13-.04.05.02.03.1-.03.37-.09.51-.1.78-.06,1.56.09,2.32.27,3.54.84,6.87,2.57,10.04,4.31,1.42.78,2.59-1.27,1.26-2.16-2.98-1.99-6.03-4.17-8.34-6.96-.51-.61-1.06-1.43-1.29-2.06-.15-.41-.07-.17-.09-.55,0-.04-.09.29-.15.23.01.01.15-.07.34-.08.35,0,.5.02.78.08.97.2,1.88.61,2.75,1.06,3.14,1.64,5.89,3.97,8.44,6.4.99.94,2.8-.31,1.96-1.51-1.64-2.36-3.39-4.85-4.38-7.57-.24-.65-.46-1.3-.44-1.9,0-.09.02-.26.03-.26-.01,0-.15.2-.11.12-.05.08.1,0,0,0-.2,0,.16,0,.21.02-.27-.05.36.1.49.15.42.15,1.13.58,1.63.94,1.45,1.04,2.72,2.41,3.79,3.82,1.61,2.13,2.85,4.54,3.65,7.09.44,1.41,2.32,1.04,2.46-.33.28-2.77.53-6.08,1.93-8.57.18-.31.3-.5.53-.74.21-.21.13-.11.36-.2-.16.07.1.04.03,0,.32.14.34.18.55.36,1.24,1.12,1.94,2.94,2.49,4.49.79,2.23,1.32,4.57,1.57,6.92.28,2.62.3,5.33-.41,7.89-.11.39-.02.95.32,1.22,4.36,3.42,8.73,6.84,13.09,10.26l20.86,16.36c1.59,1.25,3.19,2.5,4.78,3.75v-1.77c-4.58,4.89-9.17,9.79-13.75,14.68-1.1,1.17.67,2.95,1.77,1.77,4.58-4.89,9.17-9.79,13.75-14.68.42-.45.55-1.34,0-1.77-4.36-3.42-8.73-6.84-13.09-10.26l-20.86-16.36c-1.59-1.25-3.19-2.5-4.78-3.75l.32,1.22c1.47-5.33.57-11.57-1.36-16.67-1.02-2.68-4.39-8.93-7.73-4.86-2.28,2.78-2.52,7.31-2.87,10.71l2.46-.33c-1.5-4.83-4.51-9.6-8.73-12.51-1.15-.79-2.75-1.66-4.19-1.23-1.69.5-1.84,2.37-1.53,3.83.73,3.42,3.05,6.62,5.01,9.43l1.96-1.51c-2.45-2.34-5.09-4.58-8.04-6.29-1.63-.95-3.58-1.96-5.52-1.99-1.43-.02-2.79.75-2.87,2.31-.09,1.66,1.11,3.21,2.11,4.42,2.45,2.93,5.69,5.24,8.84,7.35l1.26-2.16c-3.29-1.8-6.76-3.58-10.41-4.5-1.64-.41-4.04-.9-5.46.37-3.11,2.8,2.73,7.11,4.67,8.39,3.23,2.12,6.89,3.58,10.59,4.63,1.32.37,2.3-1.72.96-2.28-2.29-.98-4.87-1.1-7.32-.74-1.67.25-4.45.9-4.57,3.03-.14,2.46,3.54,3.85,5.4,4.24,3,.64,5.89,1.7,8.6,3.14,10.88,5.8,18.05,16.49,26.07,25.47,4.65,5.2,9.74,10.09,15.82,13.58,1.4.8,2.66-1.36,1.26-2.16Z"/><path class="cls-7" d="m646.03,387.61s5.13,18.15,11.22,21.2c6.1,3.05-7.07,16.49-7.07,16.49l-26.6-16.9,1.52-24.53,20.92,3.74Z"/><path class="cls-25" d="m582.92,289.71c-20.96-9.37-31.88-35.17-55.49-37.26-9.76-2.78,1.17-6.28,5.92-4.68-18.75-3.32-23.52-16.2-.99-6.53-18.77-9.96-11.83-16.36,3.57-4.19-14.77-17.23,1.88-12.26,7.26.74.03-24.66,12.61-2.15,10.48,9.52l41.5,26.47-12.26,15.95Z"/><path class="cls-26" d="m583.55,288.63c-10.53-4.76-18.37-13.47-26.62-21.28s-17.1-14.7-28.5-16.05c-.91-.11-1.77-.35-2.6-.73-.28-.13-.89-.69-1.12-.73.07.01.03.27,0,.29-.01.01.05-.1.14-.15.3-.16.58-.38.91-.52,2.15-.93,5.02-1.19,7.25-.49l.66-2.41c-4.72-.85-10.16-2.32-13.82-5.64-.51-.47-.89-.86-1.18-1.39-.02-.04-.13-.32-.14-.34.01.03-.04-.09-.03.04,0-.07.03-.05.07-.06.19-.04.21-.11.62-.18.53-.09,1.54-.04,2.24.05,3.54.47,7.03,1.87,10.29,3.26,1.44.61,2.72-1.38,1.26-2.16-3.16-1.69-6.42-3.55-8.99-6.09-.61-.6-1.26-1.27-1.61-2.06,0-.01-.15-.45-.11-.35-.03-.06-.03,0-.04.04-.04.17.04,0-.09.05.13-.05.28-.1.42-.11-.14.01.58,0,.75.03.93.1,1.87.43,2.74.77,3.25,1.28,6.24,3.35,8.97,5.49,1.25.98,2.83-.52,1.77-1.77-1.86-2.19-3.77-4.49-5.03-7.09-.25-.52-.52-1.33-.56-1.67-.01-.11,0-.22,0-.34,0,.31.03-.05.03-.04.08.08-.2.25-.19.23.01-.02.12-.02.19-.02.32,0,.16-.02.54.09.63.18,1.15.43,1.72.76,1.57.91,2.94,2.13,4.17,3.45,1.79,1.92,3.27,4.17,4.29,6.59.51,1.22,2.45,1.2,2.46-.33.01-2.82-.08-6.1,1.04-8.76.09-.21.39-.73.4-.76.03-.05.36-.35.16-.2.11-.08.38-.15.15-.1.22-.04.07-.06.19-.01.3.12.02-.02.2.07.14.07.28.16.41.26,1.14.83,2.14,2.71,2.81,4.11,1.03,2.14,1.75,4.44,2.25,6.76.55,2.53.85,5.24.4,7.81-.1.57.07,1.09.57,1.41,4.68,2.98,9.35,5.96,14.03,8.94,7.45,4.75,14.9,9.5,22.35,14.25,1.71,1.09,3.42,2.18,5.12,3.27l-.45-1.71c-4.09,5.32-8.17,10.63-12.26,15.95-.98,1.27,1.19,2.52,2.16,1.26,4.09-5.32,8.17-10.63,12.26-15.95.42-.55.06-1.38-.45-1.71-4.68-2.98-9.35-5.96-14.03-8.94l-22.35-14.25c-1.71-1.09-3.42-2.18-5.12-3.27l.57,1.41c.96-5.51-.52-11.52-2.91-16.5-1.25-2.62-5.24-8.54-8.21-4.17-.76,1.11-1.09,2.51-1.32,3.82-.4,2.31-.49,4.66-.5,7l2.46-.33c-1.96-4.65-5.35-9.19-9.85-11.67-1.26-.7-3.01-1.47-4.44-.83-1.55.7-1.56,2.49-1.1,3.9,1.12,3.41,3.76,6.39,6.04,9.07l1.77-1.77c-2.68-2.1-5.49-4.08-8.59-5.51-1.73-.79-3.73-1.62-5.67-1.51-1.42.09-2.75.9-2.76,2.46-.01,1.65,1.35,3.15,2.45,4.23,2.72,2.69,6.15,4.69,9.5,6.48l1.26-2.16c-3.47-1.48-7.08-2.94-10.83-3.51-1.68-.25-4.04-.54-5.39.78-3.08,3.02,3.34,6.93,5.36,7.98,3.4,1.77,7.12,2.88,10.88,3.56,1.57.28,2.22-1.92.66-2.41-2.33-.73-5.02-.53-7.35.09-1.61.42-4.13,1.36-4.07,3.4.07,2.66,4.23,3.52,6.18,3.75,2.97.36,5.9,1.17,8.65,2.32,11.28,4.71,19.39,14.61,28.18,22.69,5.12,4.71,10.64,9.1,17.02,11.98,1.45.66,2.73-1.5,1.26-2.16Z"/><path class="cls-7" d="m632.97,389.32l-10.73,44.21s-14.97,3.27-21.62-3.65c-6.65-6.92-14.56-52.63-14.56-52.63,0,0,39.56,12.26,46.91,12.07Z"/><path class="cls-5" d="m646.31,267.89c7.69,6.86,8.18,49.05-.97,72.47,0,0,22.73,32.42,18.98,44.06-5.13,15.94-101.68.22-105.73-38.52-3.99-38.24,25.77-48.71,25.77-48.71,0,0,15.02-25.24,22.48-31.89,2.01-1.79,9.53-6.15,9.53-6.15l29.93,8.73Z"/><path class="cls-20" d="m607.89,264.52c.12.22,8.83-5.45,8.98-5.19.43.75-22.93,21.41-22.52,22.12.45.78,32.46-20.03,33.02-19.06.82,1.42-50.85,37.12-50.01,38.58.96,1.66,60.16-37.09,61.18-35.32,1.29,2.23-77.45,51.28-76.3,53.29,1.47,2.55,84.34-51.16,85.41-49.31,1.28,2.22-89.97,57.66-88.62,60.01,1.46,2.53,89.92-54.94,91.23-52.67s-93.66,58.99-92.01,61.85c1.46,2.53,91.78-56.4,93.26-53.84,1.59,2.75-93.83,60.89-92.57,63.08,1.44,2.49,91.87-55.93,93.12-53.76,1.57,2.71-91.3,59.65-90.11,61.72,1.47,2.55,88.81-53.99,89.99-51.95s-86.11,56.7-84.94,58.72c1.02,1.78,82.88-50.82,84.16-48.59,1.15,2-78.73,52.52-77.62,54.44.91,1.58,74.86-46.02,76.07-43.92,1.06,1.83-70.2,46.65-69.08,48.59.89,1.55,65.8-39.99,66.67-38.49.97,1.67-59.29,41.07-58.22,42.92.84,1.46,57.68-35.59,58.67-33.87.66,1.15-49.76,36.35-48.85,37.93.72,1.25,52.52-32.22,53.34-30.8.64,1.1-44.26,32.69-43.52,33.98s46.61-28.63,47.35-27.34c.48.83-37.33,29.06-36.81,29.96.56.98,39.8-24.06,40.27-23.25s-28.17,24.61-27.74,25.35c.47.81,30.54-18.5,30.92-17.85.32.55-17.62,18.09-17.26,18.71.27.46,18.96-11.56,19.23-11.1"/><path class="cls-3" d="m623.58,430.63s1.59,8.66,2.29,11.71c.44,1.92-.28,9.21-10.46,9.28s-35.33.25-36.65,0c-4.85-.9-9.69-4.44-10.39-9.91-.62-4.85,1.59-8.52,5.4-8.8s11.78,2.15,19.75-3.53c1.64-1.17,4.83-1.96,7.89.58,8.76,7.25,22.18.67,22.18.67Z"/><path class="cls-3" d="m656.15,450.48c-4.99,0-6.19-6.1-7-14.99-.9-9.91.62-28.41,14.2-25.77,8.88,1.72,9.56,13.74,6.86,22.45s-7.91,18.32-14.06,18.32Z"/><path class="cls-14" d="m569.9,434.96c.05.09,3.32-2.05,3.38-1.95.18.32-4.05,11.68-3.91,11.92.4.7,28.21-17.27,28.64-16.53.35.6-22.94,21.55-22.6,22.14.52.9,30.55-18.62,30.97-17.88.3.52-17.08,18.43-16.71,19.07.42.72,33.73-20.43,34.14-19.71.33.57-19.21,19.16-18.93,19.65s20.1-12.38,20.44-11.8"/><path class="cls-14" d="m654.11,412.31c.07.12,4.37-2.65,4.43-2.56.18.31-9.4,14.54-9.2,14.89.33.58,19.36-11.81,19.63-11.33.3.52-20.32,19.88-19.9,20.61.3.51,22.08-13.53,22.42-12.94.38.66-21.67,21.31-21.33,21.91s19.96-12.33,20.31-11.73c.28.48-16.73,18.23-16.37,18.86.15.25,10.75-6.57,10.9-6.3"/><path class="cls-23" d="m644.72,338.18s-54.9-25.33-60.88-39.3c-.31-.73-.94-1.02-1.8-.92l-4.64,2.95c-1.03,1.1-1.11,2.85.03,3.74,9.04,7.08,41.14,31.21,67.73,36.33l-.43-2.8Z"/><path class="cls-5" d="m595.07,267.16c-4.68,4.47-17.42,18.88-15.9,24.11,3.22,11.12,31.59,21.25,46.25,10.81,26.71-19.02,5.35-44.97-9.71-34.27-9.62,6.83-20.64-.65-20.64-.65Z"/><path class="cls-20" d="m594.03,268.23s1.37-.84,1.39-.8c.28.49-15.03,17.23-14.69,17.83s24.8-15.24,25.2-14.55c.36.62-25.45,23.13-24.96,23.98.56.97,47.52-29.16,48.27-27.87.67,1.17-42.63,32.13-41.93,33.33.76,1.32,47.23-29.16,48.05-27.74.61,1.05-39.65,30.66-38.96,31.85.5.87,40.97-25.17,41.63-24.03.59,1.03-30.73,25.16-30.16,26.15.37.64,27.82-17.08,28.26-16.32"/><path class="cls-23" d="m626.05,309.07c3.06-1.97,9.72,2.92,14.88,10.93,5.02,7.79,6.76,15.65,4.03,17.88-.05-1.74-.42-7.48-3.03-12.91-2.99-6.24-6.94-8.02-8.63-6.93-1.69,1.09-.72,6.43,3.43,11.79,3.59,4.63,6.66,7.28,8.22,8.05-3.16,1.56-10.07-2.95-15.1-10.74-5.16-8.01-6.87-16.09-3.81-18.06Z"/><path class="cls-23" d="m671.28,306.67c3.36,2.58.6,11.81-6.17,20.61-6.58,8.57-14.52,13.55-18.04,11.43,1.89-.74,8.04-3.39,12.98-8.38,5.67-5.73,6.08-10.76,4.22-12.18-1.85-1.43-6.8.11-11.89,6.15-4.53,5.37-5.61,11.98-5.84,14-2.95-2.85-.18-11.8,6.41-20.37,6.76-8.8,14.97-13.84,18.33-11.26Z"/><path class="cls-1" d="m675.13,362.42s-18-5.1-16.1-11.28c1.9-6.18-13-11.62-13-11.62,0,0-12.54,10.01-9.32,18.87,3.22,8.87-2.69,15.31-2.69,15.31"/><path class="cls-7" d="m593.05,243c-7.06-10.12-10.03-27.08,10.43-29.69,2.18-.28,3.96-2.2,3.98-4.39.7-62.94,99.18-57.17,97.46,7.14-1.04,38.73-32.05,61.96-74.03,51.67-9.51-2.33-26.56-8.58-37.83-24.74Z"/><circle class="cls-3" cx="650.6" cy="162.41" r="21.85"/><path class="cls-14" d="m636.36,145.73c.12.21,6.85-4.2,6.95-4.02.31.54-14.82,17.5-14.5,18.06.35.61,30-18.21,30.39-17.55.46.79-30.28,25.17-29.74,26.1.48.83,36.29-22.15,36.81-21.25.64,1.11-33.78,27.6-33.32,28.39.62,1.07,37.17-22.82,37.76-21.8.55.95-31.93,26.79-31.5,27.51s32.86-20.01,33.31-19.23-23.13,21.78-22.77,22.4c.25.42,19.98-12.16,20.25-11.69"/><path class="cls-3" d="m655.35,254.65c-2.22-4.5-5.27-19.33.83-20.23,6.85-1.01,17.74-2.77,15.66-13.58-2.08-10.81-12.89-4.57-12.89-4.57,0,0,1.75-12.51-2.63-17.81-7.62-9.21-16-4.57-25.43-7.76-9.26-3.13-6.44-16.24-6.33-16.71,28.17-20.93,82.09-5.46,80.81,42.27-1,37.4-29.95,60.34-69.74,52.61.06-.04,20.96-11.72,19.72-14.23Z"/><path class="cls-14" d="m624.56,174.14c.15.27,9.1-5.59,9.25-5.34.21.36-9.46,13.95-9.26,14.29.43.74,31.05-18.79,31.42-18.14.4.69-27.3,24.18-26.89,24.89.55.95,39.21-23.82,39.72-22.93.47.82-28,24.44-27.56,25.2.58,1,36.67-22.6,37.28-21.53.43.74-26.46,23.55-25.99,24.36s33.39-20.41,33.88-19.56-28.86,25.34-28.4,26.13c.59,1.03,34.54-20.99,34.99-20.2.6,1.04-34.29,27.78-33.69,28.82s38.21-23.13,38.68-22.33-31.1,26.2-30.66,26.96c.52.9,33.8-20.75,34.33-19.82s-30.32,25.34-29.73,26.36c.45.77,31.6-19.53,32.16-18.57.76,1.32-52.19,37.91-51.47,39.15s51.95-31.6,52.64-30.39c.74,1.28-52.17,37.42-51.44,38.68.6,1.04,50.41-31.07,51.26-29.6,1.17,2.03-68.62,46.61-67.43,48.66.98,1.7,64.82-39.19,65.59-37.87.97,1.67-52.1,37.62-51.31,38.98.55.95,45.95-28.08,46.62-26.92"/><circle class="cls-7" cx="601.23" cy="207.54" r="5.61"/><ellipse class="cls-24" cx="615.12" cy="210.81" rx="9.21" ry="6.37" transform="translate(-17.53 361.03) rotate(-32.27)"/><path class="cls-10" d="m629.32,212.98c1.7-3.8,2.12-15.03-10.95-14.13"/><circle class="cls-3" cx="710.68" cy="218.65" r="30.16"/><path class="cls-14" d="m691.71,195.25c.11.18,8.11-4.96,8.24-4.75.36.62-18.37,18.72-18.05,19.27.58,1.01,35.06-21.25,35.5-20.49.52.89-37.49,29.03-36.82,30.2.71,1.23,45.28-27.53,45.88-26.49.73,1.27-45.17,33.81-44.35,35.23.6,1.03,50.26-31.04,51.13-29.52.81,1.41-48.4,35.35-47.7,36.57.77,1.33,51.41-31.25,52.09-30.07s-47.09,35.21-46.32,36.55,48.28-29.63,49.04-28.31-41.99,31.87-41.32,33.04c.62,1.08,40.93-25.02,41.53-23.98.41.71-29.99,25.41-29.48,26.3.43.75,25.13-15.33,25.49-14.72"/><path class="cls-23" d="m605.41,219.17c-.43,2.92,2.97-.2,7.14.41,4.17.61,7.53,4.72,7.96,1.8s-2.61-5.78-6.78-6.39c-4.17-.61-7.9,1.26-8.32,4.18Z"/><path class="cls-7" d="m168.72,208.1s11.27,9.78,41.37,17.4c28.82,7.29,101.3-24.96,101.3-24.96,0,0,2.12-29.08,7.58-32.71,5.46-3.63,3.64,51.37,3.64,51.37,0,0-80.68,38.29-109.8,40.47-29.12,2.18-72.19-39.5-72.19-39.5l28.08-12.07Z"/><path class="cls-5" d="m99.14,141.88l80.84,72.09s-11.26,18.74-18.4,23.93-107.21-78.72-62.44-96.02Z"/><path class="cls-20" d="m92.49,145.82c.12.2,6.59-4.04,6.69-3.87.23.4-11.71,15.59-11.46,16.03.23.39,17.57-10.84,17.87-10.32s-16.47,17.84-16.2,18.29c.31.54,21.98-13.4,22.29-12.87.4.69-19.21,19.98-18.82,20.66.34.59,25.11-15.37,25.49-14.71.42.73-21.66,21.04-21.23,21.79.34.59,27.31-16.71,27.72-16s-23.59,21.67-23.24,22.29c.4.7,28.8-17.73,29.28-16.9.45.78-24.51,22.6-24.04,23.41s30.16-18.26,30.53-17.63c.41.72-25.41,23.15-24.98,23.89.4.69,30.93-19.01,31.43-18.15.39.67-26,23.48-25.51,24.32.42.74,31.6-19.27,32.04-18.5.38.65-26.94,23.1-26.44,23.96.38.66,31.91-19.46,32.36-18.68.37.64-26.31,23.91-25.93,24.57.49.85,31.94-19.63,32.46-18.74.37.64-26.79,23.25-26.4,23.92.48.83,31.83-19.48,32.31-18.65.52.9-26.08,23.18-25.64,23.94.51.89,31.38-19.22,31.86-18.4s-25.1,22.78-24.67,23.53c.33.57,27.5-16.64,27.83-16.07.29.5-20.29,19.94-19.98,20.48.12.2,9.05-5.5,9.17-5.29"/><path class="cls-3" d="m144.61,21.83c1.84,0,12.77-4.63,19.32,13.29,6.56,17.92,3.59,17.99,9.95,26.79,6.37,8.8,9.27,18.24,1.1,28.28-8.17,10.04-12.67,19.46-9.29,30.23,3.38,10.77-16.95,19.8-28.69,15.23-11.74-4.56-22.31-10.05-27.76-10.48-5.45-.43,35.36-103.35,35.36-103.35Z"/><path class="cls-14" d="m144.41,22.42s1.21-.74,1.23-.71c.2.34-5.98,12.23-5.84,12.48.28.48,17-10.36,17.24-9.95.45.78-22.33,21.57-21.97,22.2.42.73,26.62-16.21,26.98-15.58.53.91-32.31,26.88-31.69,27.94.42.73,34.29-21,34.81-20.1.55.95-40.08,31.6-39.5,32.61.52.9,41.33-25.49,42.04-24.27.65,1.13-47.26,35.51-46.58,36.68.78,1.36,48.18-29.57,48.94-28.26.68,1.18-54.05,38.19-53.07,39.9.84,1.46,56.3-34.5,57.16-33,.96,1.66-61.85,42.54-60.92,44.16.75,1.3,63.76-39.26,64.81-37.42,1.16,2-69.12,46.83-68.13,48.55.91,1.58,68.87-42.42,70.02-40.43,1.22,2.11-68.63,46.49-67.44,48.57.89,1.53,62.32-37.72,63.07-36.41.85,1.47-54.51,38.38-53.59,39.97.71,1.23,43.87-26.78,44.5-25.69.66,1.15-35.56,28.68-34.94,29.76.54.94,32.45-20.03,33.01-19.06.41.7-23.86,21.65-23.49,22.29.3.52,24.54-15.09,24.94-14.4"/><path class="cls-7" d="m58.02,410.28c-1.48.65-8.13,3.49-12.77,15.69-4.63,12.2-38.1,12.42-39.3,15.29-1.2,2.87-3.25,9.34,11.69,8.43,14.95-.91,53.86-.75,53.86-.75,0,0-7.19-7.3-.94-33.74,6.25-26.44-12.54-4.92-12.54-4.92Z"/><path class="cls-12" d="m35.4,352.45s-11.15,56.92,33.34,60.5c44.48,3.57,131.46-.99,131.46-.99l-131.05,3.18s-6.2,30.08.94,33.74c7.14,3.66,175.28.87,179.19.04,3.91-.83,18.29-9.51,18.74-21.62.44-12.11-3.57-28.26-7.53-32.53s-15.94-14.89-28.42-18.5-94.22-26.63-96.46-27.55c-2.24-.93-96.08,6.19-100.2,3.73"/><path class="cls-17" d="m68.21,416.15s2.58-1.5,2.58-1.49c.13.22-3.86,8.55-3.79,8.68.15.27,15.34-9.3,15.53-8.97.09.16-16.69,15.39-16.36,15.96.28.48,27.96-16.57,28.14-16.25.36.62-28.95,22.26-28.51,23.03,1.94,3.35,124.16-76.59,126.28-72.91,1.54,2.67-127.24,76.76-125.86,79.16.9,1.56,133.26-77.28,133.41-77.02.96,1.67-133.14,78.65-130.82,82.67.08.14,137.38-83.33,139.11-80.32.9,1.56-131.14,78.6-129.34,81.72,1.33,2.3,137.23-79.91,137.52-79.4,1.53,2.64-128.58,76.4-126.62,79.8,2.13,3.68,132.72-80.49,134.4-77.59.17.29-123.12,77.32-122.84,77.81.99,1.71,130.16-76.67,130.82-75.53.99,1.72-120.27,73.88-119.26,75.64,1.14,1.98,125.18-75.11,126.4-72.98,1.99,3.45-114.79,70.78-113.49,73.02.02.04,118.57-72.26,120.22-69.41.92,1.59-109.18,67.57-108.13,69.4,1.41,2.44,112.51-67.64,113.67-65.63,1.23,2.13-104.27,62.59-102.54,65.58.85,1.47,105.4-64.96,107.18-61.88,1.09,1.88-96.75,60.42-95.95,61.81.41.71,99.58-59,100.24-57.87,1.39,2.4-88.28,56.93-87.8,57.76,1.1,1.9,90.21-54.55,91.28-52.7.5.86-79.84,51.85-79.43,52.57.86,1.49,80.96-47.84,81.44-47.02.12.21-69.95,46.72-69.87,46.87,0,.02,70.7-42.19,71.29-41.16.08.13-59.61,39.64-58.85,40.96.57.99,59.15-36,59.95-34.61.49.85-47.31,34.15-47.18,34.38.1.18,47.49-28.06,47.77-27.58.36.63-35.9,27.16-35.81,27.32.56.97,35.31-20.77,35.48-20.48.33.57-23.57,19.33-23.12,20.11.17.3,17.72-10.66,17.9-10.34"/><path class="cls-17" d="m34.48,353.47s2.31-1.34,2.31-1.34c.04.07-3.33,9.1-3.23,9.27.22.39,15.49-9.08,15.55-8.98.05.09-15.81,15.42-15.75,15.53.34.59,27.57-16.02,27.61-15.94.22.38-27.4,23.06-27.29,23.26.36.63,41.18-24.41,41.46-23.93.47.81-41.15,29.37-40.61,30.3.28.48,53.49-31.38,53.71-31.01.32.56-52.35,36.68-52.31,36.75.02.03,64.3-38.51,64.9-37.47.79,1.37-63.91,41.22-62.81,43.13.4.69,75.36-45.03,76.02-43.89,1.16,2.01-73.74,48.26-73.42,48.82.64,1.11,84.84-50.97,85.7-49.48,1.25,2.17-82.51,53.66-82.24,54.12.85,1.47,92.48-55.8,93.52-53.99s-89.73,56.33-88.5,58.47c.86,1.49,95.8-58.01,96.97-55.99.99,1.72-92,57.99-91.34,59.13.96,1.67,97.81-58.61,98.74-57.01,1.22,2.12-91.32,58.59-90.82,59.45s98.78-57.43,98.95-57.13c.08.14-88.77,57.92-88.59,58.22.69,1.19,96.22-56.89,96.8-55.89.61,1.06-86.72,55.15-85.98,56.42.06.11,92.94-55.77,93.86-54.19.01.03-82.61,53.72-82.16,54.51.32.56,89.52-53.66,90.37-52.18"/><polygon class="cls-7" points="114.4 112.55 99.56 147.95 70.46 127.36 100.89 97.26 114.4 112.55"/><path class="cls-5" d="m70.46,127.36s-30.87,50.17-32.33,93.3-8.72,123.09-3.88,133.27c4.85,10.18,104.19-6.3,104.19-6.3,0,0-31.59-194.96-39.25-200.15-6.77-4.58-28.74-20.12-28.74-20.12Z"/><path class="cls-20" d="m70.09,128.04s.7-.42.71-.41c.21.37-8.61,14.04-8.39,14.41.23.4,15.66-9.47,15.85-9.15.42.73-22.08,20.51-21.68,21.2.35.61,28.02-17.18,28.46-16.43.55.96-33.99,27.49-33.55,28.25.56.98,39.96-24.33,40.5-23.38.64,1.11-45.9,34.08-45.05,35.56.67,1.16,51.74-31.67,52.52-30.32,1.04,1.8-57.02,40.77-56.2,42.19s58.44-35.69,59.28-34.23-62.84,43.39-61.89,45.04c1.07,1.85,63.04-38.65,64.01-36.96,1.2,2.09-66.84,45.07-65.7,47.05.92,1.6,66.58-40.74,67.58-39.02s-69.29,47.03-68.37,48.61c.99,1.71,69.14-42.25,70.15-40.5,1.19,2.05-71.43,48.2-70.52,49.77s71.19-43.46,72.21-41.69c1.21,2.09-74.03,49.44-72.71,51.73,1.1,1.91,73.33-44.97,74.47-43,1.32,2.29-76.28,50.09-74.99,52.33s75.49-46.1,76.58-44.21-78.27,51.35-77.11,53.35c1.09,1.88,77.37-47.61,78.64-45.4,1.34,2.32-80.56,52.28-79.19,54.65s79.59-48.54,80.71-46.6-82.54,54.54-81.31,56.66c1.1,1.91,81.62-50.18,82.95-47.89,1.43,2.48-84.64,55.13-83.49,57.12s83.54-51.53,84.97-49.06c1.05,1.82-86.94,55.45-85.47,58.01,1.04,1.81,85.6-52.4,86.89-50.17,1.21,2.1-88.65,57.41-87.38,59.61,1.14,1.97,87.55-53.58,88.87-51.31,1.47,2.54-90.58,58.24-89.28,60.5,1.39,2.4,89.41-54.65,90.72-52.38,1.14,1.97-92.45,59.58-91.06,61.98s91.46-55.36,92.56-53.44c1.35,2.34-94.28,59.64-92.74,62.31,1.11,1.92,92.63-56.93,94.12-54.34s-95.64,60.78-94.04,63.55c1.48,2.56,94.29-57.24,95.5-55.14s-96.04,61.75-94.79,63.92c1.65,2.86,94.73-58.14,96.22-55.55,1.27,2.2-90.65,59.24-89.46,61.29,1.37,2.37,89.46-55.11,90.96-52.52,1.06,1.83-76.46,50.84-75.16,53.09,1.2,2.07,75.35-46.52,76.66-44.26.79,1.37-60.2,41.57-59.28,43.17,1.02,1.77,59.84-36.4,60.65-35.01.55.95-40.77,31.76-40.13,32.87.51.89,40.92-25.2,41.6-24.02.4.7-20.69,20.51-20.27,21.23.37.64,21.43-13.02,21.71-12.53.12.2.23,9.04.33,9.21.01.02,1.06-.65,1.08-.62"/><path class="cls-3" d="m142.86,27.13s5.62-6.32-4.33-11.73c-9.94-5.41-33.3-11.98-49.56-10.52-16.26,1.46-31.72,10.43-35.87,16.92s-5.76,12.87-6.2,16.62c-.44,3.76-8.81,8.27-12.46,8.69-3.65.41-7.54,6.94-7.92,12.61-.38,5.67-1.81,10.58-8.06,15.13s-13.74,19.54.88,26.56c14.62,7.02,27.41,20.6,30.36,26.03,2.96,5.43,14.79,5.56,22.98-2.78,8.18-8.35,20.1-7.15,23.04-9.55,2.93-2.4,10.07-16.17,4.54-23.17-5.52-7-3.23-6.73-3.23-6.73l7.28-15.01s19.24-8.73,22.56-15.32c3.32-6.59,8.43-26.52,15.98-27.74Z"/><path class="cls-14" d="m58.43,16.47c.19.33,10.94-6.71,11.11-6.41.35.61-21.44,20.9-21.05,21.57.59,1.02,45.83-28.26,46.61-26.91.96,1.67-66.86,45.52-65.98,47.04,1.12,1.93,78.12-47.6,79.2-45.73,1.44,2.49-83.6,54.81-82.19,57.25,1.27,2.19,93.09-56.96,94.48-54.55,1.78,3.09-108.4,67.89-106.56,71.06,1.44,2.5,115.43-70.62,117.15-67.64S9.37,87.68,10.96,90.44c1.78,3.08,126.63-77.97,128.73-74.32S12.32,94.35,14.42,97.98,142.86,20.24,144.41,22.93c1.75,3.03-123.94,76.82-122.12,79.98,1.41,2.45,109.29-67.17,111.05-64.12,1.36,2.35-104.84,66.16-103.13,69.13,1.3,2.25,96.85-59.05,98.21-56.7,1.17,2.02-93.38,59.04-91.84,61.72.77,1.33,64.32-39.22,65.22-37.65.76,1.32-59.68,42.26-58.9,43.6.82,1.42,53.42-32.83,54.28-31.34.64,1.11-49.95,35.96-49.27,37.13.79,1.37,52.66-32.22,53.45-30.86.89,1.54-48.49,35.39-47.73,36.7s47.46-29.07,48.18-27.82"/><path class="cls-7" d="m232.39,310.83c-24.54-20.29-93.1-87.62-93.1-87.62l-32.74,35.02s72.33,56.39,116.4,70.95c0,0,24.01,8.57,31.95,10.67,9.5,2.51,39-1.2,38.96-4-.02-1.5-29.52-2.32-27.95-2.6,3.21-.59,26.97,2.26,25.82-3.17-.5-2.39-32.95-.98-32.95-.98,0,0,28.74-10.19,24.46-9.69-3.1.36-29.15,3.92-29.15,3.92,0,0,19.14-8.5,17.37-8.2-8.06,1.41-30.4,2.88-39.07-4.28Z"/><path class="cls-7" d="m223.02,315.9c-2.32,2.34-2.85,5.49-2.29,7.45,1.68,5.95,5.32,7.32,16.48,10.14,2.04.52,24.32,7.35,26.71,7.73,2.39.38,5.15-2.7,1.46-5.07-2.53-1.63-20.54-9.28-20.95-11.75"/><path class="cls-5" d="m63.14,162.86c.41-.63,21.55-29.07,52.8,18.32,25.37,38.46,29.97,44.6,29.97,44.6,0,0-25.84,38.14-31.72,40.25-5.88,2.12-73.12-69.49-51.05-103.17Z"/><path class="cls-20" d="m66.73,159.2c.1.18,7.11-4.36,7.22-4.17.32.55-14.84,16.86-14.58,17.31.36.62,28.98-17.67,29.39-16.97s-30.5,25.4-29.92,26.41c.65,1.13,37.54-22.8,38.03-21.96.56.97-37.2,29.83-36.59,30.87.75,1.29,42.74-26.06,43.34-25.02.55.95-41.67,31.62-40.96,32.85.63,1.09,45.83-27.73,46.38-26.78s-43.94,33.15-43.32,34.23,47.38-29.12,48.15-27.8-45.58,33.23-44.74,34.67c.76,1.32,48.22-29.66,49.01-28.3.65,1.13-45.46,34.54-44.87,35.58.74,1.29,48.86-29.68,49.5-28.58.69,1.2-46.25,33.56-45.46,34.93.84,1.46,48.99-29.75,49.63-28.65.6,1.04-45.47,34.42-44.79,35.6.59,1.03,48.79-29.75,49.48-28.57.76,1.31-45.23,33.93-44.64,34.96.85,1.46,48.46-29.41,49.08-28.34.79,1.36-44.86,33.09-44.04,34.51s47.77-29.17,48.46-27.98-43.35,33.39-42.76,34.41c.71,1.23,46.77-28.84,47.57-27.46.61,1.06-42.24,32.33-41.45,33.7.4.69,31.49-19.05,31.87-18.4.46.8-25.54,23.35-25.06,24.19.19.34,11.82-7.27,12.01-6.94"/><path class="cls-7" d="m142.65,27.11s11.76,7.95,10.49,25.8c-1.27,17.84-4.04,23.44-.45,27.04s6.87,6.32,6.87,6.32c0,0-2.34,5.44-5.12,5.74s-5.27,3.4-5.03,4.91c.24,1.51-3.33,17.39-5.42,19.89s-20.46,5.62-34.08-8.06c-13.62-13.68-12.72-23.1-12.72-23.1,0,0-8.24,3.47-7.9-15.54.34-19.01,14.52-1.05,14.52-1.05,0,0,20.08-3.32,27.46-22.76,7.38-19.45,11.37-19.19,11.37-19.19Z"/><path class="cls-16" d="m130.21,62.85c.22-.32,4.93-5.96,12.76-5.82"/><path class="cls-18" d="m132.97,67.97c.87.3,4.92,4.5,11.47,1.56"/><ellipse class="cls-23" cx="132.49" cy="79.79" rx="4.04" ry="8.77" transform="translate(2 162.81) rotate(-63.53)"/><rect class="cls-8" x="441.49" y="381.22" width="70.62" height="70.62" rx="12.64" ry="12.64"/><path class="cls-19" d="m448.76,387.37c.07.12,4.28-2.61,4.34-2.5.14.25-8.75,11.34-8.6,11.59.28.49,20.87-12.82,21.21-12.24.3.52-21.59,19.06-21.22,19.7.43.74,33.57-20.68,34.13-19.7.51.88-34.73,25.15-34.13,26.18.77,1.33,44.68-27.36,45.35-26.18.74,1.29-46,32.47-45.35,33.6.91,1.58,55.98-33.88,56.65-32.71,1.03,1.78-57.45,38.32-56.65,39.71.93,1.62,60.97-37.42,61.93-35.76.78,1.35-62.87,40.56-61.93,42.18.8,1.38,63.47-38.61,64.32-37.13,1.12,1.95-65.3,41.76-64.22,43.63.89,1.54,63.67-38.72,64.52-37.25,1.11,1.92-63.61,40.8-62.48,42.75,1.05,1.81,61.51-37.74,62.48-36.07.72,1.24-58.84,38.66-57.97,40.16.67,1.17,57.11-34.96,57.97-33.47.78,1.35-48.59,33.63-47.81,34.97.55.96,47.03-28.97,47.81-27.6.63,1.08-35.97,26.63-35.41,27.6.49.84,34.88-21.35,35.41-20.44.44.76-24.72,19.68-24.28,20.44.37.64,23.93-14.62,24.28-14.02.2.34-12.11,13.54-11.85,13.99.12.22,9.63-5.87,9.77-5.64"/><text class="cls-4" transform="translate(450.62 438.69)"><tspan x="0" y="0">Л</tspan></text><rect class="cls-8" x="441.49" y="241.17" width="70.62" height="70.62" rx="12.64" ry="12.64"/><path class="cls-19" d="m448.76,247.33c.07.12,4.28-2.61,4.34-2.5.14.25-8.75,11.34-8.6,11.59.28.49,20.87-12.82,21.21-12.24.3.52-21.59,19.06-21.22,19.7.43.74,33.57-20.68,34.13-19.7.51.88-34.73,25.15-34.13,26.18.77,1.33,44.68-27.36,45.35-26.18.74,1.29-46,32.47-45.35,33.6.91,1.58,55.98-33.88,56.65-32.71,1.03,1.78-57.45,38.32-56.65,39.71.93,1.62,60.97-37.42,61.93-35.76.78,1.35-62.87,40.56-61.93,42.18.8,1.38,63.47-38.61,64.32-37.13,1.12,1.95-65.3,41.76-64.22,43.63.89,1.54,63.67-38.72,64.52-37.25,1.11,1.92-63.61,40.8-62.48,42.75,1.05,1.81,61.51-37.74,62.48-36.07.72,1.24-58.84,38.66-57.97,40.16.67,1.17,57.11-34.96,57.97-33.47.78,1.35-48.59,33.63-47.81,34.97.55.96,47.03-28.97,47.81-27.6.63,1.08-35.97,26.63-35.41,27.6.49.84,34.88-21.35,35.41-20.44.44.76-24.72,19.68-24.28,20.44.37.64,23.93-14.62,24.28-14.02.2.34-12.11,13.54-11.85,13.99.12.22,9.63-5.87,9.77-5.64"/><text class="cls-4" transform="translate(455.66 298.64)"><tspan x="0" y="0">С</tspan></text><rect class="cls-8" x="323.76" y="183.6" width="53.31" height="53.31" rx="12.64" ry="12.64"/><path class="cls-19" d="m330.3,189.03c.07.12,4.28-2.61,4.34-2.5.14.25-8.75,11.34-8.6,11.59.28.49,20.87-12.82,21.21-12.24.3.52-21.59,19.06-21.22,19.7.43.74,33.57-20.68,34.13-19.7.51.88-34.73,25.15-34.13,26.18.72,1.24,41.81-25.6,42.44-24.5.7,1.21-43.06,30.85-42.44,31.92.76,1.31,46.56-28.17,47.12-27.2.86,1.48-47.11,32.66-46.45,33.82.72,1.25,47.34-29.06,48.09-27.76.58,1-45.87,31.3-45.17,32.5.56.97,44.58-27.12,45.18-26.08.71,1.24-40.28,28.23-39.6,29.41.55.95,39.08-23.76,39.6-22.86s-29.41,22.38-28.86,23.34c.48.84,28.41-17.43,28.86-16.66.24.42-17.56,16.15-17.26,16.66.2.34,16.69-10.21,16.94-9.78"/><circle class="cls-21" cx="350.41" cy="210.26" r="14.72"/><rect class="cls-8" x="449.4" y="183.6" width="54.79" height="54.79" rx="12.64" ry="12.64"/><path class="cls-15" d="m456.01,189.1c.07.12,4.28-2.61,4.34-2.5.14.25-8.75,11.34-8.6,11.59.28.49,20.87-12.82,21.21-12.24.3.52-21.59,19.06-21.22,19.7.43.74,33.57-20.68,34.13-19.7.51.88-34.73,25.15-34.13,26.18.73,1.26,42.45-25.99,43.09-24.88.71,1.23-43.72,31.22-43.09,32.29.77,1.34,47.55-28.78,48.12-27.78.88,1.52-48.47,33.4-47.78,34.59.75,1.3,48.97-30.06,49.74-28.72.6,1.04-48.01,32.47-47.29,33.73.59,1.02,46.7-28.41,47.32-27.32.76,1.32-43.14,29.77-42.41,31.04.58,1.01,41.86-25.45,42.41-24.49.6,1.05-33.17,24.41-32.56,25.48.55.94,32.05-19.67,32.56-18.8.29.5-21.31,18.19-20.96,18.8.24.42,20.64-12.63,20.95-12.09.19.33-8.78,11.12-8.59,11.44.05.09,4.27-2.63,4.34-2.5"/><text class="cls-9" transform="translate(462.73 228.19)"><tspan x="0" y="0">З</tspan></text><rect class="cls-8" x="235.68" y="279.44" width="51.51" height="51.51" rx="12.64" ry="12.64"/><path class="cls-15" d="m242.15,284.79c.07.12,4.28-2.61,4.34-2.5.14.25-8.75,11.34-8.6,11.59.28.49,20.87-12.82,21.21-12.24.3.52-21.59,19.06-21.22,19.7.43.74,33.57-20.68,34.13-19.7.51.88-34.73,25.15-34.13,26.18.7,1.22,40.96-25.08,41.58-24.01.69,1.19-42.19,30.38-41.58,31.42.74,1.28,45.3-27.42,45.85-26.47.82,1.43-45.27,31.66-44.63,32.77.69,1.2,45.18-27.73,45.89-26.5.55.94-43.07,29.78-42.41,30.91.53.91,41.85-25.46,42.41-24.49.65,1.13-36.41,26.13-35.79,27.21.49.85,35.32-21.48,35.79-20.66s-24.82,19.91-24.34,20.73c.41.71,23.97-14.71,24.34-14.05.19.33-12.98,13.65-12.75,14.05.13.22,10.96-6.71,11.13-6.42"/><text class="cls-2" transform="translate(242.85 317.36)"><tspan x="0" y="0">Ш</tspan></text><rect class="cls-8" x="294.69" y="238.22" width="73.68" height="73.68" rx="12.64" ry="12.64"/><path class="cls-15" d="m302.1,244.51c.07.12,4.28-2.61,4.34-2.5.14.25-8.75,11.34-8.6,11.59.28.49,20.87-12.82,21.21-12.24.3.52-21.59,19.06-21.22,19.7.43.74,33.57-20.68,34.13-19.7.51.88-34.73,25.15-34.13,26.18.77,1.33,44.68-27.36,45.35-26.18.74,1.29-46,32.47-45.35,33.6.93,1.61,56.95-34.46,57.63-33.27,1.05,1.81-58.45,38.86-57.63,40.27.96,1.66,62.8-38.55,63.79-36.83.8,1.39-64.75,41.59-63.79,43.25.83,1.43,65.84-40.06,66.73-38.52,1.17,2.02-67.84,43.14-66.73,45.08.93,1.61,66.53-40.45,67.41-38.92,1.17,2.03-67.63,42.96-66.43,45.03,1.11,1.93,65.4-40.13,66.43-38.35.77,1.34-63.93,41.43-62.99,43.06.73,1.27,62.05-37.98,62.99-36.37s-56.31,37.82-55.42,39.37c.64,1.11,54.51-33.57,55.42-32,.75,1.29-43.72,30.85-43.05,32.02.59,1.02,42.41-25.96,43.05-24.85.56.97-32.48,23.89-31.92,24.85.49.85,31.46-19.22,31.92-18.43.29.5-19.92,17.77-19.54,18.43.25.43,19.19-11.69,19.46-11.23"/><rect class="cls-8" x="292.46" y="380.51" width="70.62" height="70.62" rx="12.64" ry="12.64"/><path class="cls-11" d="m299.74,386.67c.07.12,4.28-2.61,4.34-2.5.14.25-8.75,11.34-8.6,11.59.28.49,20.87-12.82,21.21-12.24.3.52-21.59,19.06-21.22,19.7.43.74,33.57-20.68,34.13-19.7.51.88-34.73,25.15-34.13,26.18.77,1.33,44.68-27.36,45.35-26.18.74,1.29-46,32.47-45.35,33.6.91,1.58,55.98-33.88,56.65-32.71,1.03,1.78-57.45,38.32-56.65,39.71.93,1.62,60.97-37.42,61.93-35.76.78,1.35-62.87,40.56-61.93,42.18.8,1.38,63.47-38.61,64.32-37.13,1.12,1.95-65.3,41.76-64.22,43.63.89,1.54,63.67-38.72,64.52-37.25,1.11,1.92-63.61,40.8-62.48,42.75,1.05,1.81,61.51-37.74,62.48-36.07.72,1.24-58.84,38.66-57.97,40.16.67,1.17,57.11-34.96,57.97-33.47.78,1.35-48.59,33.63-47.81,34.97.55.96,47.03-28.97,47.81-27.6.63,1.08-35.97,26.63-35.41,27.6.49.84,34.88-21.35,35.41-20.44.44.76-24.72,19.68-24.28,20.44.37.64,23.93-14.62,24.28-14.02.2.34-12.11,13.54-11.85,13.99.12.22,9.63-5.87,9.77-5.64"/><text class="cls-6" transform="translate(310.61 437.15)"><tspan x="0" y="0">Р</tspan></text><path class="cls-8" d="m382.81,182.3c2.74,0,5.1-2.05,5.35-4.77.21-2.23-.54-4.53-2.24-6.23l-30-51.2c-3.04-3.04-7.96-3.04-11,0l-30,51.2c-1.71,1.71-2.45,4.01-2.24,6.23.26,2.72,2.62,4.77,5.35,4.77h64.79Z"/><path class="cls-11" d="m345.48,124.05c.04.08,3.13-1.91,3.17-1.83.16.29-9.32,11.61-9.11,11.97s15.98-9.82,16.24-9.37c.44.77-22.62,19-22.25,19.64.33.58,24.89-15.15,25.22-14.56.59,1.03-31.78,23.76-31.2,24.77.46.79,33.75-20.43,34.16-19.72.68,1.18-41.39,29.48-40.64,30.78.52.9,43.12-26.56,43.84-25.31.79,1.37-49.22,33.14-48.36,34.61.7,1.21,50.49-31.02,51.29-29.61.71,1.24-48.66,32.87-47.91,34.17s49.99-30.64,50.76-29.31c.58,1-38.81,28.58-38.27,29.52.5.87,40.85-25.13,41.52-23.97.54.93-30.43,23.04-29.89,23.97s32.44-19.64,32.83-18.96c.3.52-20.59,18.34-20.24,18.96.32.56,23.11-14.06,23.42-13.52.25.44-10.87,13.16-10.66,13.52.17.29,13.86-8.49,14.07-8.13"/><path class="cls-8" d="m518.88,182.3c3.55,0,6.62-2.66,6.95-6.19.27-2.89-.7-5.88-2.91-8.09l-38.97-66.51c-3.95-3.95-10.34-3.95-14.29,0l-38.97,66.51c-2.21,2.21-3.19,5.2-2.91,8.09.33,3.54,3.4,6.19,6.95,6.19h84.15Z"/><path class="cls-11" d="m470.61,106.43c.05.09,3.56-2.17,3.62-2.09.17.3-9.91,11.92-9.69,12.3.24.41,17.88-10.99,18.17-10.49.48.83-24.57,20.06-24.18,20.75.36.62,26.96-16.4,27.32-15.77.63,1.09-33.91,24.91-33.3,25.98.49.84,35.82-21.68,36.26-20.93.71,1.23-43.52,30.63-42.74,31.99.54.94,45.18-27.83,45.94-26.52.84,1.46-52.78,35.06-51.87,36.64.75,1.3,53.93-33.13,54.8-31.64s-62,40.13-61.06,41.76,62.94-38.58,63.91-36.9-65.01,42.94-64.14,44.45c.82,1.42,66.3-40.79,67.39-38.91s-62.13,40.17-61.08,41.98,63.26-38.29,64.02-36.96c.69,1.19-52.24,35.57-51.43,36.96.75,1.31,53.9-32.77,54.61-31.53.78,1.34-42.49,30.42-41.85,31.53.53.92,44.41-27.19,45.08-26.03.51.88-34.55,25.13-34.03,26.03s36.22-22.3,36.82-21.26c.42.73-25.98,20.48-25.53,21.26.36.62,28-17.06,28.38-16.39.24.42-16.25,15.94-15.99,16.39.27.47,19.13-11.62,19.38-11.19.18.31-7.86,10.87-7.68,11.19.15.27,8.82-5.43,8.97-5.18"/><rect class="cls-8" x="372.98" y="262.42" width="63.23" height="49.47" rx="12.64" ry="12.64"/><path class="cls-11" d="m379.94,267.69c.07.12,4.28-2.61,4.34-2.5.14.25-8.75,11.34-8.6,11.59.28.49,20.87-12.82,21.21-12.24.3.52-21.59,19.06-21.22,19.7.43.74,33.57-20.68,34.13-19.7.51.88-34.73,25.15-34.13,26.18.77,1.33,44.67-27.35,45.35-26.18.74,1.29-45.96,32.44-45.31,33.57.86,1.48,52.56-31.81,53.19-30.71.94,1.62-51.96,35.32-51.23,36.58.83,1.43,54.03-33.16,54.88-31.68.64,1.12-51.5,34.37-50.72,35.71.64,1.11,51.01-31.03,51.69-29.84.78,1.35-44.17,30.33-43.42,31.62.6,1.04,42.85-26.06,43.42-25.07s-32.46,24.02-31.85,25.07c.53.92,31.36-19.24,31.85-18.39.28.48-20.6,17.81-20.26,18.39.23.41,19.93-12.2,20.23-11.68"/><path class="cls-22" d="m310.4,369.55v-49.39c0-6.02,4.88-10.9,10.9-10.9h167.66c6.02,0,10.9,4.88,10.9,10.9v49.39c0,6.02-4.88,10.9-10.9,10.9h-18.12c-4.81,0-9.06-3.14-10.44-7.75-3.63-12.21-15.56-34.55-54.13-34.55-36.58,0-49.14,22.67-53.25,34.82-1.5,4.45-5.63,7.48-10.33,7.48h-21.41c-6.02,0-10.9-4.88-10.9-10.9Z"/><path class="cls-13" d="m378.16,340.8c.61,1.05,49.27-30.25,50.05-28.9.54.93-29.38,22.45-28.94,23.2.47.82,39.54-24.32,40.19-23.2.5.87-28.56,22.1-28.12,22.86.57.99,39.13-23.67,39.6-22.86.53.92-29.61,23.37-29.23,24.04.51.88,41.02-25.12,41.64-24.04.58,1-33.99,25.34-33.55,26.08.72,1.26,44.4-27.43,45.18-26.08.67,1.16-39.04,27.84-38.54,28.71.58,1.01,48.92-30.02,49.69-28.69.62,1.08-44.64,30.63-43.96,31.81.77,1.34,49.7-30.69,50.56-29.19.69,1.19-45.95,31.79-45.24,33.02.62,1.07,47.6-29.21,48.35-27.91.6,1.03-44.25,31.16-43.54,32.4.58,1,43.03-26.59,43.79-25.28.62,1.08-40.79,28.48-40.09,29.69.55.96,39.43-24.3,40.09-23.15.55.96-37.09,27.67-36.59,28.54.55.95,36.03-22.09,36.59-21.12s-34.5,25.79-33.95,26.74c.45.77,33.5-20.38,33.95-19.6.43.74-32.8,24.31-32.36,25.06.38.65,31.93-19.44,32.36-18.69.36.63-25.91,21.09-25.44,21.9.32.55,25.04-15.38,25.44-14.69.29.5-12.72,14.33-12.52,14.69s11.87-7.28,12.06-6.96"/><path class="cls-13" d="m316.46,314.7c.05.09,3.88-2.39,3.95-2.28.15.26-7.27,11.21-7.1,11.5.28.49,20.57-12.49,20.84-12.03.37.65-21.2,17.94-20.84,18.58.49.86,31.67-19.46,32.17-18.58s-32.68,24.65-32.17,25.51c.7,1.22,43.68-26.4,44.19-25.51.73,1.26-44.77,31.57-44.19,32.58.88,1.52,55.73-33.8,56.43-32.58.93,1.62-57.16,38.33-56.43,39.6.8,1.38,67.6-41.32,68.59-39.6,1.08,1.87-69.71,45.07-68.59,47s80.3-48.92,81.41-47c1.3,2.25-82.82,51.19-81.41,53.63s91.53-56,92.9-53.63c1.62,2.8-92.71,57.17-91.25,59.7s102-62.12,103.4-59.7c1.55,2.68-99.2,61.59-97.98,63.7.58,1.01,41.78-25.25,42.27-24.4.39.68-30.84,23.94-30.26,24.94.25.43,19.57-11.93,19.84-11.46.19.33-7.51,11.17-7.36,11.44.06.1,3.57-2.19,3.62-2.09"/></svg>